G75*
%MOIN*%
%OFA0B0*%
%FSLAX24Y24*%
%IPPOS*%
%LPD*%
%AMOC8*
5,1,8,0,0,1.08239X$1,22.5*
%
%ADD10C,0.0040*%
%ADD11C,0.0000*%
%ADD12C,0.0440*%
%ADD13C,0.0560*%
%ADD14C,0.0600*%
%ADD15C,0.0318*%
%ADD16C,0.0100*%
%ADD17C,0.0200*%
D10*
X025817Y016206D02*
X026337Y016206D01*
X026337Y016553D01*
X026164Y016722D02*
X026337Y016895D01*
X026164Y017068D01*
X025817Y017068D01*
X025817Y017237D02*
X026337Y017237D01*
X026164Y017411D01*
X026337Y017584D01*
X025817Y017584D01*
X025817Y017753D02*
X026337Y017753D01*
X025817Y018100D01*
X026337Y018100D01*
X026077Y017068D02*
X026077Y016722D01*
X026164Y016722D02*
X025817Y016722D01*
X026077Y016379D02*
X026077Y016206D01*
X026789Y015279D02*
X026789Y014932D01*
X026789Y015106D02*
X027310Y015106D01*
X027136Y014932D01*
X027136Y014764D02*
X026789Y014590D01*
X027136Y014417D01*
X027049Y014248D02*
X027136Y014161D01*
X027136Y013988D01*
X027049Y013901D01*
X026876Y013901D01*
X026789Y013988D01*
X026789Y014161D01*
X026963Y014248D02*
X026963Y013901D01*
X027049Y013732D02*
X026963Y013646D01*
X026963Y013385D01*
X026789Y013385D02*
X027310Y013385D01*
X027310Y013646D01*
X027223Y013732D01*
X027049Y013732D01*
X026963Y013559D02*
X026789Y013732D01*
X026963Y014248D02*
X027049Y014248D01*
D11*
X000459Y021363D02*
X000459Y000363D01*
X026559Y000363D01*
X026559Y001363D01*
X027459Y002263D01*
X027459Y015263D01*
X026459Y016263D01*
X026459Y020763D01*
X025859Y021363D01*
X000459Y021363D01*
X002133Y019857D02*
X002135Y019884D01*
X002141Y019911D01*
X002150Y019937D01*
X002163Y019961D01*
X002179Y019984D01*
X002198Y020003D01*
X002220Y020020D01*
X002244Y020034D01*
X002269Y020044D01*
X002296Y020051D01*
X002323Y020054D01*
X002351Y020053D01*
X002378Y020048D01*
X002404Y020040D01*
X002428Y020028D01*
X002451Y020012D01*
X002472Y019994D01*
X002489Y019973D01*
X002504Y019949D01*
X002515Y019924D01*
X002523Y019898D01*
X002527Y019871D01*
X002527Y019843D01*
X002523Y019816D01*
X002515Y019790D01*
X002504Y019765D01*
X002489Y019741D01*
X002472Y019720D01*
X002451Y019702D01*
X002429Y019686D01*
X002404Y019674D01*
X002378Y019666D01*
X002351Y019661D01*
X002323Y019660D01*
X002296Y019663D01*
X002269Y019670D01*
X002244Y019680D01*
X002220Y019694D01*
X002198Y019711D01*
X002179Y019730D01*
X002163Y019753D01*
X002150Y019777D01*
X002141Y019803D01*
X002135Y019830D01*
X002133Y019857D01*
X002133Y018125D02*
X002135Y018152D01*
X002141Y018179D01*
X002150Y018205D01*
X002163Y018229D01*
X002179Y018252D01*
X002198Y018271D01*
X002220Y018288D01*
X002244Y018302D01*
X002269Y018312D01*
X002296Y018319D01*
X002323Y018322D01*
X002351Y018321D01*
X002378Y018316D01*
X002404Y018308D01*
X002428Y018296D01*
X002451Y018280D01*
X002472Y018262D01*
X002489Y018241D01*
X002504Y018217D01*
X002515Y018192D01*
X002523Y018166D01*
X002527Y018139D01*
X002527Y018111D01*
X002523Y018084D01*
X002515Y018058D01*
X002504Y018033D01*
X002489Y018009D01*
X002472Y017988D01*
X002451Y017970D01*
X002429Y017954D01*
X002404Y017942D01*
X002378Y017934D01*
X002351Y017929D01*
X002323Y017928D01*
X002296Y017931D01*
X002269Y017938D01*
X002244Y017948D01*
X002220Y017962D01*
X002198Y017979D01*
X002179Y017998D01*
X002163Y018021D01*
X002150Y018045D01*
X002141Y018071D01*
X002135Y018098D01*
X002133Y018125D01*
D12*
X016698Y009289D02*
X016698Y008849D01*
X018698Y008849D02*
X018698Y009289D01*
D13*
X002139Y013663D02*
X001579Y013663D01*
X001579Y014663D02*
X002139Y014663D01*
X002139Y015663D02*
X001579Y015663D01*
D14*
X007829Y020077D02*
X007829Y020677D01*
X008829Y020677D02*
X008829Y020077D01*
X009829Y020077D02*
X009829Y020677D01*
X010829Y020677D02*
X010829Y020077D01*
X011829Y020077D02*
X011829Y020677D01*
X012829Y020677D02*
X012829Y020077D01*
X013829Y020077D02*
X013829Y020677D01*
X014829Y020677D02*
X014829Y020077D01*
X015829Y020077D02*
X015829Y020677D01*
X016829Y020677D02*
X016829Y020077D01*
X018462Y020077D02*
X018462Y020677D01*
X019462Y020677D02*
X019462Y020077D01*
X020462Y020077D02*
X020462Y020677D01*
X021462Y020677D02*
X021462Y020077D01*
X022462Y020077D02*
X022462Y020677D01*
X023462Y020677D02*
X023462Y020077D01*
X024462Y020077D02*
X024462Y020677D01*
X025462Y020677D02*
X025462Y020077D01*
X025925Y012368D02*
X026525Y012368D01*
X026525Y011368D02*
X025925Y011368D01*
X025925Y010368D02*
X026525Y010368D01*
X026525Y009368D02*
X025925Y009368D01*
X025925Y008368D02*
X026525Y008368D01*
X026525Y007368D02*
X025925Y007368D01*
X025925Y006368D02*
X026525Y006368D01*
X026525Y005368D02*
X025925Y005368D01*
X024462Y001689D02*
X024462Y001089D01*
X023462Y001089D02*
X023462Y001689D01*
X022462Y001689D02*
X022462Y001089D01*
X021462Y001089D02*
X021462Y001689D01*
X020462Y001689D02*
X020462Y001089D01*
X019462Y001089D02*
X019462Y001689D01*
X017458Y001669D02*
X017458Y001069D01*
X016458Y001069D02*
X016458Y001669D01*
X015458Y001669D02*
X015458Y001069D01*
X014458Y001069D02*
X014458Y001669D01*
X013458Y001669D02*
X013458Y001069D01*
X012458Y001069D02*
X012458Y001669D01*
X011458Y001669D02*
X011458Y001069D01*
X010458Y001069D02*
X010458Y001669D01*
D15*
X009159Y002663D03*
X008759Y003963D03*
X006959Y002363D03*
X011859Y005163D03*
X013059Y004763D03*
X014059Y004763D03*
X014859Y004263D03*
X015759Y006763D03*
X012959Y007763D03*
X012959Y009363D03*
X014059Y009563D03*
X018659Y013363D03*
X018859Y012963D03*
X019159Y012663D03*
X019059Y012063D03*
X019659Y011763D03*
X020359Y011863D03*
X018659Y014063D03*
X018459Y014563D03*
X021259Y014663D03*
X021759Y015763D03*
X022359Y015863D03*
X020459Y018563D03*
X014959Y016163D03*
X014759Y016563D03*
X013159Y016563D03*
X005359Y018963D03*
X004959Y019263D03*
X001059Y009863D03*
D16*
X000609Y009902D02*
X004609Y009902D01*
X004609Y009804D02*
X000609Y009804D01*
X000609Y009705D02*
X004609Y009705D01*
X004609Y009607D02*
X000609Y009607D01*
X000609Y009508D02*
X004609Y009508D01*
X004609Y009410D02*
X000609Y009410D01*
X000609Y009311D02*
X004609Y009311D01*
X004609Y009213D02*
X000609Y009213D01*
X000609Y009114D02*
X004609Y009114D01*
X004609Y009016D02*
X000609Y009016D01*
X000609Y008917D02*
X004609Y008917D01*
X004609Y008819D02*
X000609Y008819D01*
X000609Y008720D02*
X004609Y008720D01*
X004609Y008622D02*
X000609Y008622D01*
X000609Y008523D02*
X004609Y008523D01*
X004609Y008425D02*
X000609Y008425D01*
X000609Y008326D02*
X004609Y008326D01*
X004609Y008228D02*
X000609Y008228D01*
X000609Y008129D02*
X004609Y008129D01*
X004609Y008031D02*
X000609Y008031D01*
X000609Y007932D02*
X004609Y007932D01*
X004609Y007834D02*
X000609Y007834D01*
X000609Y007735D02*
X004609Y007735D01*
X004609Y007713D02*
X004647Y007621D01*
X005147Y007121D01*
X005217Y007051D01*
X005309Y007013D01*
X008055Y007013D01*
X008509Y006559D01*
X008509Y004613D01*
X008547Y004521D01*
X008790Y004277D01*
X008785Y004272D01*
X008697Y004272D01*
X008584Y004225D01*
X008497Y004138D01*
X008450Y004024D01*
X008450Y003901D01*
X008497Y003788D01*
X008584Y003701D01*
X008697Y003654D01*
X008820Y003654D01*
X008934Y003701D01*
X009021Y003788D01*
X009068Y003901D01*
X009068Y003989D01*
X009073Y003994D01*
X009147Y003921D01*
X009217Y003851D01*
X009309Y003813D01*
X011355Y003813D01*
X012309Y002859D01*
X012309Y002795D01*
X012241Y002863D01*
X009396Y002863D01*
X009334Y002925D01*
X009220Y002972D01*
X009097Y002972D01*
X008984Y002925D01*
X008897Y002838D01*
X008850Y002724D01*
X008850Y002601D01*
X008897Y002488D01*
X008984Y002401D01*
X009097Y002354D01*
X009220Y002354D01*
X009334Y002401D01*
X009396Y002463D01*
X012076Y002463D01*
X012420Y002119D01*
X012369Y002119D01*
X012203Y002050D01*
X012077Y001924D01*
X011839Y001924D01*
X011840Y001924D02*
X011713Y002050D01*
X011548Y002119D01*
X011369Y002119D01*
X011203Y002050D01*
X011077Y001924D01*
X010839Y001924D01*
X010840Y001924D02*
X010713Y002050D01*
X010548Y002119D01*
X010369Y002119D01*
X010203Y002050D01*
X010077Y001924D01*
X000609Y001924D01*
X000609Y002022D02*
X010175Y002022D01*
X010077Y001924D02*
X010008Y001758D01*
X010008Y000979D01*
X010077Y000814D01*
X010203Y000687D01*
X010369Y000619D01*
X010548Y000619D01*
X010713Y000687D01*
X010840Y000814D01*
X010908Y000979D01*
X010908Y001758D01*
X010840Y001924D01*
X010880Y001825D02*
X011036Y001825D01*
X011008Y001758D02*
X011077Y001924D01*
X011175Y002022D02*
X010741Y002022D01*
X010908Y001727D02*
X011008Y001727D01*
X011008Y001758D02*
X011008Y000979D01*
X011077Y000814D01*
X011203Y000687D01*
X011369Y000619D01*
X011548Y000619D01*
X011713Y000687D01*
X011840Y000814D01*
X011908Y000979D01*
X011908Y001758D01*
X011840Y001924D01*
X011880Y001825D02*
X012036Y001825D01*
X012008Y001758D02*
X012008Y000979D01*
X012077Y000814D01*
X012203Y000687D01*
X012369Y000619D01*
X012548Y000619D01*
X012713Y000687D01*
X012840Y000814D01*
X012908Y000979D01*
X012908Y001758D01*
X012840Y001924D01*
X012800Y001963D01*
X013116Y001963D01*
X013077Y001924D01*
X012839Y001924D01*
X012880Y001825D02*
X013036Y001825D01*
X013008Y001758D02*
X013008Y000979D01*
X013077Y000814D01*
X013203Y000687D01*
X013369Y000619D01*
X013548Y000619D01*
X013713Y000687D01*
X013840Y000814D01*
X013908Y000979D01*
X013908Y001758D01*
X013840Y001924D01*
X013713Y002050D01*
X013658Y002073D01*
X013658Y002146D01*
X013591Y002213D01*
X013855Y002213D01*
X014110Y001957D01*
X014077Y001924D01*
X013839Y001924D01*
X013880Y001825D02*
X014036Y001825D01*
X014008Y001758D02*
X014008Y000979D01*
X014077Y000814D01*
X014203Y000687D01*
X014369Y000619D01*
X014548Y000619D01*
X014713Y000687D01*
X014840Y000814D01*
X014908Y000979D01*
X014908Y001758D01*
X014840Y001924D01*
X014713Y002050D01*
X014688Y002060D01*
X014670Y002105D01*
X014600Y002175D01*
X014100Y002675D01*
X014008Y002713D01*
X012862Y002713D01*
X012809Y002766D01*
X012809Y004212D01*
X012771Y004304D01*
X012109Y004966D01*
X012109Y004976D01*
X012121Y004988D01*
X012168Y005101D01*
X012168Y005224D01*
X012121Y005338D01*
X012034Y005425D01*
X011920Y005472D01*
X011797Y005472D01*
X011684Y005425D01*
X011597Y005338D01*
X011550Y005224D01*
X011550Y005101D01*
X011597Y004988D01*
X011609Y004976D01*
X011609Y004813D01*
X011647Y004721D01*
X011717Y004651D01*
X012309Y004059D01*
X012309Y003566D01*
X011600Y004275D01*
X011508Y004313D01*
X009462Y004313D01*
X009250Y004525D01*
X009009Y004766D01*
X009009Y006712D01*
X008971Y006804D01*
X008900Y006875D01*
X008300Y007475D01*
X008208Y007513D01*
X005462Y007513D01*
X005109Y007866D01*
X005109Y014712D01*
X005071Y014804D01*
X005000Y014875D01*
X004600Y015275D01*
X004508Y015313D01*
X003009Y015313D01*
X002917Y015275D01*
X002847Y015204D01*
X002555Y014913D01*
X002497Y014913D01*
X002382Y015027D01*
X002224Y015093D01*
X001493Y015093D01*
X001335Y015027D01*
X001214Y014906D01*
X001149Y014748D01*
X001149Y014577D01*
X001214Y014419D01*
X001335Y014298D01*
X001493Y014233D01*
X002224Y014233D01*
X002382Y014298D01*
X002497Y014413D01*
X002708Y014413D01*
X002800Y014451D01*
X003162Y014813D01*
X004355Y014813D01*
X004609Y014559D01*
X004609Y007713D01*
X004640Y007637D02*
X000609Y007637D01*
X000609Y007538D02*
X004730Y007538D01*
X004828Y007440D02*
X000609Y007440D01*
X000609Y007341D02*
X004927Y007341D01*
X005025Y007243D02*
X000609Y007243D01*
X000609Y007144D02*
X005124Y007144D01*
X005229Y007046D02*
X000609Y007046D01*
X000609Y006947D02*
X008121Y006947D01*
X008219Y006849D02*
X000609Y006849D01*
X000609Y006750D02*
X008318Y006750D01*
X008416Y006652D02*
X000609Y006652D01*
X000609Y006553D02*
X008509Y006553D01*
X008509Y006455D02*
X000609Y006455D01*
X000609Y006356D02*
X008509Y006356D01*
X008509Y006258D02*
X000609Y006258D01*
X000609Y006159D02*
X008509Y006159D01*
X008509Y006061D02*
X000609Y006061D01*
X000609Y005962D02*
X008509Y005962D01*
X008509Y005864D02*
X000609Y005864D01*
X000609Y005765D02*
X008509Y005765D01*
X008509Y005667D02*
X000609Y005667D01*
X000609Y005568D02*
X008509Y005568D01*
X008509Y005470D02*
X000609Y005470D01*
X000609Y005371D02*
X008509Y005371D01*
X008509Y005273D02*
X000609Y005273D01*
X000609Y005174D02*
X008509Y005174D01*
X008509Y005076D02*
X000609Y005076D01*
X000609Y004977D02*
X008509Y004977D01*
X008509Y004879D02*
X000609Y004879D01*
X000609Y004780D02*
X008509Y004780D01*
X008509Y004682D02*
X000609Y004682D01*
X000609Y004583D02*
X008521Y004583D01*
X008583Y004485D02*
X000609Y004485D01*
X000609Y004386D02*
X008682Y004386D01*
X008780Y004288D02*
X000609Y004288D01*
X000609Y004189D02*
X008548Y004189D01*
X008477Y004091D02*
X000609Y004091D01*
X000609Y003992D02*
X008450Y003992D01*
X008453Y003894D02*
X000609Y003894D01*
X000609Y003795D02*
X008493Y003795D01*
X008593Y003697D02*
X000609Y003697D01*
X000609Y003598D02*
X011570Y003598D01*
X011668Y003500D02*
X000609Y003500D01*
X000609Y003401D02*
X011767Y003401D01*
X011865Y003303D02*
X000609Y003303D01*
X000609Y003204D02*
X011964Y003204D01*
X012062Y003106D02*
X000609Y003106D01*
X000609Y003007D02*
X012161Y003007D01*
X012259Y002909D02*
X009350Y002909D01*
X009159Y002663D02*
X012159Y002663D01*
X012659Y002163D01*
X013359Y002163D01*
X013458Y002063D01*
X013458Y001369D01*
X013008Y001333D02*
X012908Y001333D01*
X012908Y001431D02*
X013008Y001431D01*
X013008Y001530D02*
X012908Y001530D01*
X012908Y001628D02*
X013008Y001628D01*
X013008Y001727D02*
X012908Y001727D01*
X013008Y001758D02*
X013077Y001924D01*
X013658Y002121D02*
X013947Y002121D01*
X014046Y002022D02*
X013741Y002022D01*
X013908Y001727D02*
X014008Y001727D01*
X014008Y001758D02*
X014077Y001924D01*
X014008Y001628D02*
X013908Y001628D01*
X013908Y001530D02*
X014008Y001530D01*
X014008Y001431D02*
X013908Y001431D01*
X013908Y001333D02*
X014008Y001333D01*
X014008Y001234D02*
X013908Y001234D01*
X013908Y001136D02*
X014008Y001136D01*
X014008Y001037D02*
X013908Y001037D01*
X013891Y000939D02*
X014025Y000939D01*
X014066Y000840D02*
X013850Y000840D01*
X013767Y000742D02*
X014149Y000742D01*
X014310Y000643D02*
X013606Y000643D01*
X013310Y000643D02*
X012606Y000643D01*
X012767Y000742D02*
X013149Y000742D01*
X013066Y000840D02*
X012850Y000840D01*
X012891Y000939D02*
X013025Y000939D01*
X013008Y001037D02*
X012908Y001037D01*
X012908Y001136D02*
X013008Y001136D01*
X013008Y001234D02*
X012908Y001234D01*
X012310Y000643D02*
X011606Y000643D01*
X011767Y000742D02*
X012149Y000742D01*
X012066Y000840D02*
X011850Y000840D01*
X011891Y000939D02*
X012025Y000939D01*
X012008Y001037D02*
X011908Y001037D01*
X011908Y001136D02*
X012008Y001136D01*
X012008Y001234D02*
X011908Y001234D01*
X011908Y001333D02*
X012008Y001333D01*
X012008Y001431D02*
X011908Y001431D01*
X011908Y001530D02*
X012008Y001530D01*
X012008Y001628D02*
X011908Y001628D01*
X011908Y001727D02*
X012008Y001727D01*
X012008Y001758D02*
X012077Y001924D01*
X012175Y002022D02*
X011741Y002022D01*
X012122Y002416D02*
X009349Y002416D01*
X008968Y002416D02*
X000609Y002416D01*
X000609Y002318D02*
X012221Y002318D01*
X012319Y002219D02*
X000609Y002219D01*
X000609Y002121D02*
X012418Y002121D01*
X012309Y002810D02*
X012294Y002810D01*
X012809Y002810D02*
X027309Y002810D01*
X027309Y002712D02*
X014011Y002712D01*
X014162Y002613D02*
X027309Y002613D01*
X027309Y002515D02*
X014260Y002515D01*
X014359Y002416D02*
X027309Y002416D01*
X027309Y002325D02*
X026496Y001513D01*
X026409Y001425D01*
X026409Y000513D01*
X000609Y000513D01*
X000609Y021213D01*
X025796Y021213D01*
X026309Y020700D01*
X026309Y018747D01*
X025659Y018747D01*
X025659Y019671D01*
X025717Y019695D01*
X025844Y019822D01*
X025912Y019987D01*
X025912Y020766D01*
X025844Y020932D01*
X025717Y021058D01*
X025552Y021127D01*
X025373Y021127D01*
X025208Y021058D01*
X025081Y020932D01*
X025012Y020766D01*
X025012Y019992D01*
X024912Y020092D01*
X024912Y020766D01*
X024844Y020932D01*
X024717Y021058D01*
X024552Y021127D01*
X024373Y021127D01*
X024208Y021058D01*
X024081Y020932D01*
X024012Y020766D01*
X024012Y019987D01*
X024081Y019822D01*
X024208Y019695D01*
X024373Y019627D01*
X024552Y019627D01*
X024717Y019695D01*
X024730Y019708D01*
X025059Y019380D01*
X025059Y016263D01*
X022841Y016263D01*
X022641Y016463D01*
X022176Y016463D01*
X022059Y016345D01*
X021859Y016145D01*
X021859Y016056D01*
X021820Y016072D01*
X021697Y016072D01*
X021584Y016025D01*
X021497Y015938D01*
X021450Y015824D01*
X021450Y015701D01*
X021497Y015588D01*
X021584Y015501D01*
X021697Y015454D01*
X021820Y015454D01*
X021934Y015501D01*
X021996Y015563D01*
X022041Y015563D01*
X022131Y015653D01*
X022184Y015601D01*
X022297Y015554D01*
X022420Y015554D01*
X022534Y015601D01*
X022596Y015663D01*
X025341Y015663D01*
X025543Y015864D01*
X025543Y015864D01*
X025562Y015857D01*
X025581Y015852D01*
X025600Y015849D01*
X026553Y015849D01*
X026573Y015852D01*
X026592Y015857D01*
X026610Y015864D01*
X026627Y015874D01*
X026631Y015878D01*
X026934Y015575D01*
X026573Y015575D01*
X026553Y015573D01*
X026534Y015567D01*
X026516Y015560D01*
X026499Y015550D01*
X026483Y015538D01*
X026469Y015524D01*
X026457Y015509D01*
X026448Y015492D01*
X026440Y015473D01*
X026435Y015454D01*
X026432Y015435D01*
X026432Y013169D01*
X026435Y013149D01*
X026440Y013130D01*
X026448Y013112D01*
X026457Y013095D01*
X026469Y013080D01*
X026483Y013066D01*
X026499Y013054D01*
X026516Y013044D01*
X026534Y013036D01*
X026553Y013031D01*
X026573Y013029D01*
X027309Y013029D01*
X027309Y002325D01*
X027301Y002318D02*
X014457Y002318D01*
X014556Y002219D02*
X027203Y002219D01*
X027104Y002121D02*
X024595Y002121D01*
X024552Y002139D02*
X024717Y002070D01*
X024844Y001943D01*
X024912Y001778D01*
X024912Y000999D01*
X024844Y000834D01*
X024717Y000707D01*
X024552Y000639D01*
X024373Y000639D01*
X024208Y000707D01*
X024081Y000834D01*
X024012Y000999D01*
X024012Y001778D01*
X024081Y001943D01*
X024208Y002070D01*
X024373Y002139D01*
X024552Y002139D01*
X024330Y002121D02*
X023595Y002121D01*
X023552Y002139D02*
X023373Y002139D01*
X023208Y002070D01*
X023081Y001943D01*
X023012Y001778D01*
X023012Y000999D01*
X023081Y000834D01*
X023208Y000707D01*
X023373Y000639D01*
X023552Y000639D01*
X023717Y000707D01*
X023844Y000834D01*
X023912Y000999D01*
X023912Y001778D01*
X023844Y001943D01*
X023717Y002070D01*
X023552Y002139D01*
X023330Y002121D02*
X022595Y002121D01*
X022552Y002139D02*
X022373Y002139D01*
X022208Y002070D01*
X022081Y001943D01*
X022012Y001778D01*
X022012Y000999D01*
X022081Y000834D01*
X022208Y000707D01*
X022373Y000639D01*
X022552Y000639D01*
X022717Y000707D01*
X022844Y000834D01*
X022912Y000999D01*
X022912Y001778D01*
X022844Y001943D01*
X022717Y002070D01*
X022552Y002139D01*
X022330Y002121D02*
X021595Y002121D01*
X021552Y002139D02*
X021373Y002139D01*
X021208Y002070D01*
X021081Y001943D01*
X021012Y001778D01*
X021012Y000999D01*
X021081Y000834D01*
X021208Y000707D01*
X021373Y000639D01*
X021552Y000639D01*
X021717Y000707D01*
X021844Y000834D01*
X021912Y000999D01*
X021912Y001778D01*
X021844Y001943D01*
X021717Y002070D01*
X021552Y002139D01*
X021330Y002121D02*
X020595Y002121D01*
X020552Y002139D02*
X020373Y002139D01*
X020208Y002070D01*
X020081Y001943D01*
X020012Y001778D01*
X020012Y000999D01*
X020081Y000834D01*
X020208Y000707D01*
X020373Y000639D01*
X020552Y000639D01*
X020717Y000707D01*
X020844Y000834D01*
X020912Y000999D01*
X020912Y001778D01*
X020844Y001943D01*
X020717Y002070D01*
X020552Y002139D01*
X020330Y002121D02*
X019595Y002121D01*
X019552Y002139D02*
X019373Y002139D01*
X019208Y002070D01*
X019081Y001943D01*
X019012Y001778D01*
X019012Y000999D01*
X019081Y000834D01*
X019208Y000707D01*
X019373Y000639D01*
X019552Y000639D01*
X019717Y000707D01*
X019844Y000834D01*
X019912Y000999D01*
X019912Y001778D01*
X019844Y001943D01*
X019717Y002070D01*
X019552Y002139D01*
X019330Y002121D02*
X014654Y002121D01*
X014741Y002022D02*
X015179Y002022D01*
X015165Y002012D02*
X015115Y001962D01*
X015073Y001905D01*
X015041Y001841D01*
X015019Y001774D01*
X015008Y001704D01*
X015008Y001419D01*
X015408Y001419D01*
X015408Y002116D01*
X015353Y002108D01*
X015285Y002086D01*
X015222Y002054D01*
X015165Y002012D01*
X015087Y001924D02*
X014839Y001924D01*
X014880Y001825D02*
X015036Y001825D01*
X015012Y001727D02*
X014908Y001727D01*
X014908Y001628D02*
X015008Y001628D01*
X015008Y001530D02*
X014908Y001530D01*
X014908Y001431D02*
X015008Y001431D01*
X015008Y001319D02*
X015008Y001033D01*
X015019Y000963D01*
X015041Y000896D01*
X015073Y000833D01*
X015115Y000776D01*
X015165Y000725D01*
X015222Y000684D01*
X015285Y000652D01*
X015353Y000630D01*
X015408Y000621D01*
X015408Y001319D01*
X015008Y001319D01*
X015008Y001234D02*
X014908Y001234D01*
X014908Y001136D02*
X015008Y001136D01*
X015008Y001037D02*
X014908Y001037D01*
X014891Y000939D02*
X015027Y000939D01*
X015069Y000840D02*
X014850Y000840D01*
X014767Y000742D02*
X015149Y000742D01*
X015312Y000643D02*
X014606Y000643D01*
X015408Y000643D02*
X015508Y000643D01*
X015508Y000621D02*
X015563Y000630D01*
X015631Y000652D01*
X015694Y000684D01*
X015751Y000725D01*
X015801Y000776D01*
X015843Y000833D01*
X015875Y000896D01*
X015897Y000963D01*
X015908Y001033D01*
X015908Y001319D01*
X015508Y001319D01*
X015508Y001419D01*
X015408Y001419D01*
X015408Y001319D01*
X015508Y001319D01*
X015508Y000621D01*
X015604Y000643D02*
X016312Y000643D01*
X016285Y000652D02*
X016353Y000630D01*
X016408Y000621D01*
X016408Y001319D01*
X016008Y001319D01*
X016008Y001033D01*
X016019Y000963D01*
X016041Y000896D01*
X016073Y000833D01*
X016115Y000776D01*
X016165Y000725D01*
X016222Y000684D01*
X016285Y000652D01*
X016408Y000643D02*
X016508Y000643D01*
X016508Y000621D02*
X016563Y000630D01*
X016631Y000652D01*
X016694Y000684D01*
X016751Y000725D01*
X016801Y000776D01*
X016843Y000833D01*
X016875Y000896D01*
X016897Y000963D01*
X016908Y001033D01*
X016908Y001319D01*
X016508Y001319D01*
X016508Y001419D01*
X016408Y001419D01*
X016408Y002116D01*
X016353Y002108D01*
X016285Y002086D01*
X016222Y002054D01*
X016165Y002012D01*
X016115Y001962D01*
X016073Y001905D01*
X016041Y001841D01*
X016019Y001774D01*
X016008Y001704D01*
X016008Y001419D01*
X016408Y001419D01*
X016408Y001319D01*
X016508Y001319D01*
X016508Y000621D01*
X016604Y000643D02*
X017310Y000643D01*
X017369Y000619D02*
X017548Y000619D01*
X017713Y000687D01*
X017840Y000814D01*
X017908Y000979D01*
X017908Y001758D01*
X017840Y001924D01*
X017713Y002050D01*
X017548Y002119D01*
X017369Y002119D01*
X017203Y002050D01*
X017077Y001924D01*
X016829Y001924D01*
X016843Y001905D02*
X016801Y001962D01*
X016751Y002012D01*
X016694Y002054D01*
X016631Y002086D01*
X016563Y002108D01*
X016508Y002116D01*
X016508Y001419D01*
X016908Y001419D01*
X016908Y001704D01*
X016897Y001774D01*
X016875Y001841D01*
X016843Y001905D01*
X016880Y001825D02*
X017036Y001825D01*
X017008Y001758D02*
X017077Y001924D01*
X017175Y002022D02*
X016737Y002022D01*
X016508Y002022D02*
X016408Y002022D01*
X016408Y001924D02*
X016508Y001924D01*
X016508Y001825D02*
X016408Y001825D01*
X016408Y001727D02*
X016508Y001727D01*
X016508Y001628D02*
X016408Y001628D01*
X016408Y001530D02*
X016508Y001530D01*
X016508Y001431D02*
X016408Y001431D01*
X016408Y001333D02*
X015508Y001333D01*
X015508Y001419D02*
X015908Y001419D01*
X015908Y001704D01*
X015897Y001774D01*
X015875Y001841D01*
X015843Y001905D01*
X015801Y001962D01*
X015751Y002012D01*
X015694Y002054D01*
X015631Y002086D01*
X015563Y002108D01*
X015508Y002116D01*
X015508Y001419D01*
X015508Y001431D02*
X015408Y001431D01*
X015408Y001333D02*
X014908Y001333D01*
X015408Y001234D02*
X015508Y001234D01*
X015508Y001136D02*
X015408Y001136D01*
X015408Y001037D02*
X015508Y001037D01*
X015508Y000939D02*
X015408Y000939D01*
X015408Y000840D02*
X015508Y000840D01*
X015508Y000742D02*
X015408Y000742D01*
X015767Y000742D02*
X016149Y000742D01*
X016069Y000840D02*
X015847Y000840D01*
X015889Y000939D02*
X016027Y000939D01*
X016008Y001037D02*
X015908Y001037D01*
X015908Y001136D02*
X016008Y001136D01*
X016008Y001234D02*
X015908Y001234D01*
X015908Y001431D02*
X016008Y001431D01*
X016008Y001530D02*
X015908Y001530D01*
X015908Y001628D02*
X016008Y001628D01*
X016012Y001727D02*
X015904Y001727D01*
X015880Y001825D02*
X016036Y001825D01*
X016087Y001924D02*
X015829Y001924D01*
X015737Y002022D02*
X016179Y002022D01*
X015508Y002022D02*
X015408Y002022D01*
X015408Y001924D02*
X015508Y001924D01*
X015508Y001825D02*
X015408Y001825D01*
X015408Y001727D02*
X015508Y001727D01*
X015508Y001628D02*
X015408Y001628D01*
X015408Y001530D02*
X015508Y001530D01*
X016408Y001234D02*
X016508Y001234D01*
X016508Y001136D02*
X016408Y001136D01*
X016408Y001037D02*
X016508Y001037D01*
X016508Y000939D02*
X016408Y000939D01*
X016408Y000840D02*
X016508Y000840D01*
X016508Y000742D02*
X016408Y000742D01*
X016767Y000742D02*
X017149Y000742D01*
X017203Y000687D02*
X017369Y000619D01*
X017203Y000687D02*
X017077Y000814D01*
X017008Y000979D01*
X017008Y001758D01*
X017008Y001727D02*
X016904Y001727D01*
X016908Y001628D02*
X017008Y001628D01*
X017008Y001530D02*
X016908Y001530D01*
X016908Y001431D02*
X017008Y001431D01*
X017008Y001333D02*
X016508Y001333D01*
X016908Y001234D02*
X017008Y001234D01*
X017008Y001136D02*
X016908Y001136D01*
X016908Y001037D02*
X017008Y001037D01*
X017025Y000939D02*
X016889Y000939D01*
X016847Y000840D02*
X017066Y000840D01*
X017606Y000643D02*
X019362Y000643D01*
X019563Y000643D02*
X020362Y000643D01*
X020563Y000643D02*
X021362Y000643D01*
X021563Y000643D02*
X022362Y000643D01*
X022563Y000643D02*
X023362Y000643D01*
X023563Y000643D02*
X024362Y000643D01*
X024563Y000643D02*
X026409Y000643D01*
X026409Y000545D02*
X000609Y000545D01*
X000609Y000643D02*
X010310Y000643D01*
X010149Y000742D02*
X000609Y000742D01*
X000609Y000840D02*
X010066Y000840D01*
X010025Y000939D02*
X000609Y000939D01*
X000609Y001037D02*
X010008Y001037D01*
X010008Y001136D02*
X000609Y001136D01*
X000609Y001234D02*
X010008Y001234D01*
X010008Y001333D02*
X000609Y001333D01*
X000609Y001431D02*
X010008Y001431D01*
X010008Y001530D02*
X000609Y001530D01*
X000609Y001628D02*
X010008Y001628D01*
X010008Y001727D02*
X000609Y001727D01*
X000609Y001825D02*
X010036Y001825D01*
X010908Y001628D02*
X011008Y001628D01*
X011008Y001530D02*
X010908Y001530D01*
X010908Y001431D02*
X011008Y001431D01*
X011008Y001333D02*
X010908Y001333D01*
X010908Y001234D02*
X011008Y001234D01*
X011008Y001136D02*
X010908Y001136D01*
X010908Y001037D02*
X011008Y001037D01*
X011025Y000939D02*
X010891Y000939D01*
X010850Y000840D02*
X011066Y000840D01*
X011149Y000742D02*
X010767Y000742D01*
X010606Y000643D02*
X011310Y000643D01*
X008885Y002515D02*
X000609Y002515D01*
X000609Y002613D02*
X008850Y002613D01*
X008850Y002712D02*
X000609Y002712D01*
X000609Y002810D02*
X008885Y002810D01*
X008968Y002909D02*
X000609Y002909D01*
X005437Y007538D02*
X012746Y007538D01*
X012784Y007501D02*
X012897Y007454D01*
X013020Y007454D01*
X013134Y007501D01*
X013221Y007588D01*
X013268Y007701D01*
X013268Y007824D01*
X013221Y007938D01*
X013159Y008000D01*
X013159Y009126D01*
X013221Y009188D01*
X013268Y009301D01*
X013268Y009424D01*
X013221Y009538D01*
X013134Y009625D01*
X013020Y009672D01*
X012897Y009672D01*
X012784Y009625D01*
X012697Y009538D01*
X012650Y009424D01*
X012650Y009301D01*
X012697Y009188D01*
X012759Y009126D01*
X012759Y008000D01*
X012697Y007938D01*
X012650Y007824D01*
X012650Y007701D01*
X012697Y007588D01*
X012784Y007501D01*
X012676Y007637D02*
X005338Y007637D01*
X005240Y007735D02*
X012650Y007735D01*
X012654Y007834D02*
X005141Y007834D01*
X005109Y007932D02*
X012694Y007932D01*
X012759Y008031D02*
X005109Y008031D01*
X005109Y008129D02*
X012759Y008129D01*
X012759Y008228D02*
X005109Y008228D01*
X005109Y008326D02*
X012759Y008326D01*
X012759Y008425D02*
X005109Y008425D01*
X005109Y008523D02*
X012759Y008523D01*
X012759Y008622D02*
X005109Y008622D01*
X005109Y008720D02*
X012759Y008720D01*
X012759Y008819D02*
X005109Y008819D01*
X005109Y008917D02*
X012759Y008917D01*
X012759Y009016D02*
X005109Y009016D01*
X005109Y009114D02*
X012759Y009114D01*
X012686Y009213D02*
X005109Y009213D01*
X005109Y009311D02*
X012650Y009311D01*
X012650Y009410D02*
X005109Y009410D01*
X005109Y009508D02*
X012684Y009508D01*
X012766Y009607D02*
X005109Y009607D01*
X005109Y009705D02*
X013783Y009705D01*
X013797Y009738D02*
X013750Y009624D01*
X013750Y009501D01*
X013797Y009388D01*
X013884Y009301D01*
X013997Y009254D01*
X014120Y009254D01*
X014234Y009301D01*
X014296Y009363D01*
X014341Y009363D01*
X014441Y009463D01*
X014559Y009580D01*
X014559Y011263D01*
X025241Y011263D01*
X025503Y011524D01*
X025475Y011458D01*
X025475Y011279D01*
X025544Y011114D01*
X025671Y010987D01*
X025836Y010918D01*
X026615Y010918D01*
X026780Y010987D01*
X026907Y011114D01*
X026975Y011279D01*
X026975Y011458D01*
X026907Y011623D01*
X026780Y011750D01*
X026615Y011818D01*
X025836Y011818D01*
X025770Y011791D01*
X025897Y011918D01*
X026615Y011918D01*
X026780Y011987D01*
X026907Y012114D01*
X026975Y012279D01*
X026975Y012458D01*
X026907Y012623D01*
X026780Y012750D01*
X026615Y012818D01*
X025836Y012818D01*
X025671Y012750D01*
X025544Y012623D01*
X025475Y012458D01*
X025475Y012279D01*
X025539Y012126D01*
X025076Y011663D01*
X020596Y011663D01*
X020621Y011688D01*
X020668Y011801D01*
X020668Y011924D01*
X020621Y012038D01*
X020559Y012100D01*
X020559Y012245D01*
X020259Y012545D01*
X020259Y015445D01*
X019359Y016345D01*
X019241Y016463D01*
X016459Y016463D01*
X016459Y019680D01*
X016524Y019745D01*
X016574Y019695D01*
X016740Y019627D01*
X016919Y019627D01*
X017084Y019695D01*
X017211Y019822D01*
X017279Y019987D01*
X017279Y020766D01*
X017211Y020932D01*
X017084Y021058D01*
X016919Y021127D01*
X016740Y021127D01*
X016574Y021058D01*
X016448Y020932D01*
X016379Y020766D01*
X016379Y020166D01*
X016279Y020066D01*
X016279Y020766D01*
X016211Y020932D01*
X016084Y021058D01*
X015919Y021127D01*
X015740Y021127D01*
X015574Y021058D01*
X015448Y020932D01*
X015379Y020766D01*
X015379Y019987D01*
X015448Y019822D01*
X015574Y019695D01*
X015740Y019627D01*
X015859Y019627D01*
X015859Y019245D01*
X015232Y019872D01*
X015279Y019987D01*
X015279Y020766D01*
X015211Y020932D01*
X015084Y021058D01*
X014919Y021127D01*
X014740Y021127D01*
X014574Y021058D01*
X014448Y020932D01*
X014379Y020766D01*
X014379Y019987D01*
X014448Y019822D01*
X014507Y019763D01*
X014151Y019763D01*
X014211Y019822D01*
X014279Y019987D01*
X014279Y020766D01*
X014211Y020932D01*
X014084Y021058D01*
X013919Y021127D01*
X013740Y021127D01*
X013574Y021058D01*
X013448Y020932D01*
X013379Y020766D01*
X013379Y019987D01*
X013448Y019822D01*
X013574Y019695D01*
X013692Y019647D01*
X013776Y019563D01*
X012741Y019563D01*
X012659Y019645D01*
X012659Y019660D01*
X012740Y019627D01*
X012919Y019627D01*
X013084Y019695D01*
X013211Y019822D01*
X013279Y019987D01*
X013279Y020766D01*
X013211Y020932D01*
X013084Y021058D01*
X012919Y021127D01*
X012740Y021127D01*
X012574Y021058D01*
X012448Y020932D01*
X012379Y020766D01*
X012379Y020210D01*
X012329Y020160D01*
X012279Y020210D01*
X012279Y020766D01*
X012211Y020932D01*
X012084Y021058D01*
X011919Y021127D01*
X011740Y021127D01*
X011574Y021058D01*
X011448Y020932D01*
X011379Y020766D01*
X011379Y019987D01*
X011448Y019822D01*
X011574Y019695D01*
X011740Y019627D01*
X011919Y019627D01*
X012059Y019685D01*
X012059Y019380D01*
X012176Y019263D01*
X012276Y019163D01*
X008741Y019163D01*
X008659Y019245D01*
X008659Y019660D01*
X008740Y019627D01*
X008919Y019627D01*
X009084Y019695D01*
X009211Y019822D01*
X009279Y019987D01*
X009279Y020766D01*
X009211Y020932D01*
X009084Y021058D01*
X008919Y021127D01*
X008740Y021127D01*
X008574Y021058D01*
X008448Y020932D01*
X008379Y020766D01*
X008379Y020210D01*
X008329Y020160D01*
X008279Y020210D01*
X008279Y020766D01*
X008211Y020932D01*
X008084Y021058D01*
X007919Y021127D01*
X007740Y021127D01*
X007574Y021058D01*
X007448Y020932D01*
X007379Y020766D01*
X007379Y019987D01*
X007448Y019822D01*
X007574Y019695D01*
X007740Y019627D01*
X007919Y019627D01*
X008059Y019685D01*
X008059Y019245D01*
X007959Y019345D01*
X007841Y019463D01*
X005196Y019463D01*
X005134Y019525D01*
X005020Y019572D01*
X004897Y019572D01*
X004784Y019525D01*
X004697Y019438D01*
X004650Y019324D01*
X004650Y019201D01*
X004697Y019088D01*
X004784Y019001D01*
X004897Y018954D01*
X005020Y018954D01*
X005050Y018966D01*
X005050Y018901D01*
X005097Y018788D01*
X005184Y018701D01*
X005297Y018654D01*
X005420Y018654D01*
X005534Y018701D01*
X005596Y018763D01*
X007676Y018763D01*
X008159Y018280D01*
X008276Y018163D01*
X014259Y018163D01*
X014259Y017145D01*
X013959Y016845D01*
X013959Y014980D01*
X014076Y014863D01*
X014159Y014780D01*
X014159Y014780D01*
X014276Y014663D01*
X018166Y014663D01*
X018150Y014624D01*
X018150Y014501D01*
X018197Y014388D01*
X018284Y014301D01*
X018397Y014254D01*
X018412Y014254D01*
X018397Y014238D01*
X018350Y014124D01*
X018350Y014001D01*
X018397Y013888D01*
X018484Y013801D01*
X018597Y013754D01*
X018720Y013754D01*
X018834Y013801D01*
X018859Y013826D01*
X018859Y013600D01*
X018834Y013625D01*
X018720Y013672D01*
X018597Y013672D01*
X018484Y013625D01*
X018397Y013538D01*
X018350Y013424D01*
X018350Y013301D01*
X018397Y013188D01*
X018484Y013101D01*
X018567Y013066D01*
X018550Y013024D01*
X018550Y012901D01*
X018597Y012788D01*
X018684Y012701D01*
X018797Y012654D01*
X018850Y012654D01*
X018850Y012601D01*
X018897Y012488D01*
X018984Y012401D01*
X019053Y012372D01*
X018997Y012372D01*
X018884Y012325D01*
X018797Y012238D01*
X018750Y012124D01*
X018750Y012001D01*
X018797Y011888D01*
X018884Y011801D01*
X018997Y011754D01*
X019120Y011754D01*
X019234Y011801D01*
X019296Y011863D01*
X019366Y011863D01*
X019350Y011824D01*
X019350Y011701D01*
X019366Y011663D01*
X014376Y011663D01*
X014276Y011563D01*
X014276Y011563D01*
X014159Y011445D01*
X014159Y009856D01*
X014120Y009872D01*
X013997Y009872D01*
X013884Y009825D01*
X013797Y009738D01*
X013863Y009804D02*
X005109Y009804D01*
X005109Y009902D02*
X014159Y009902D01*
X014159Y010001D02*
X005109Y010001D01*
X005109Y010099D02*
X014159Y010099D01*
X014159Y010198D02*
X005109Y010198D01*
X005109Y010296D02*
X014159Y010296D01*
X014159Y010395D02*
X005109Y010395D01*
X005109Y010493D02*
X014159Y010493D01*
X014159Y010592D02*
X005109Y010592D01*
X005109Y010690D02*
X014159Y010690D01*
X014159Y010789D02*
X005109Y010789D01*
X005109Y010887D02*
X014159Y010887D01*
X014159Y010986D02*
X005109Y010986D01*
X005109Y011084D02*
X014159Y011084D01*
X014159Y011183D02*
X005109Y011183D01*
X005109Y011281D02*
X014159Y011281D01*
X014159Y011380D02*
X005109Y011380D01*
X005109Y011478D02*
X014191Y011478D01*
X014290Y011577D02*
X005109Y011577D01*
X005109Y011675D02*
X019360Y011675D01*
X019350Y011774D02*
X019169Y011774D01*
X018949Y011774D02*
X005109Y011774D01*
X005109Y011872D02*
X018812Y011872D01*
X018762Y011971D02*
X005109Y011971D01*
X005109Y012069D02*
X018750Y012069D01*
X018768Y012168D02*
X005109Y012168D01*
X005109Y012266D02*
X018825Y012266D01*
X018980Y012365D02*
X005109Y012365D01*
X005109Y012463D02*
X018921Y012463D01*
X018866Y012562D02*
X005109Y012562D01*
X005109Y012660D02*
X018781Y012660D01*
X018625Y012759D02*
X005109Y012759D01*
X005109Y012857D02*
X018568Y012857D01*
X018550Y012956D02*
X005109Y012956D01*
X005109Y013054D02*
X018562Y013054D01*
X018431Y013153D02*
X005109Y013153D01*
X005109Y013251D02*
X018370Y013251D01*
X018350Y013350D02*
X005109Y013350D01*
X005109Y013448D02*
X018360Y013448D01*
X018406Y013547D02*
X005109Y013547D01*
X005109Y013645D02*
X018533Y013645D01*
X018442Y013842D02*
X005109Y013842D01*
X005109Y013744D02*
X018859Y013744D01*
X018859Y013645D02*
X018784Y013645D01*
X019059Y013463D02*
X019059Y014863D01*
X018659Y015263D01*
X015759Y015263D01*
X015259Y015763D01*
X015259Y018663D01*
X014759Y019163D01*
X012559Y019163D01*
X012259Y019463D01*
X012259Y019948D01*
X011829Y020377D01*
X011379Y020343D02*
X010879Y020343D01*
X010879Y020327D02*
X010879Y020427D01*
X010779Y020427D01*
X010779Y020327D01*
X010379Y020327D01*
X010379Y020041D01*
X010390Y019971D01*
X010412Y019904D01*
X010444Y019841D01*
X010486Y019784D01*
X010536Y019734D01*
X010593Y019692D01*
X010657Y019660D01*
X010724Y019638D01*
X010779Y019629D01*
X010779Y020327D01*
X010879Y020327D01*
X010879Y019629D01*
X010935Y019638D01*
X011002Y019660D01*
X011065Y019692D01*
X011122Y019734D01*
X011173Y019784D01*
X011214Y019841D01*
X011246Y019904D01*
X011268Y019971D01*
X011279Y020041D01*
X011279Y020327D01*
X010879Y020327D01*
X010879Y020245D02*
X010779Y020245D01*
X010779Y020343D02*
X010279Y020343D01*
X010279Y020245D02*
X010379Y020245D01*
X010379Y020146D02*
X010279Y020146D01*
X010279Y020048D02*
X010379Y020048D01*
X010398Y019949D02*
X010264Y019949D01*
X010279Y019987D02*
X010279Y020766D01*
X010211Y020932D01*
X010084Y021058D01*
X009919Y021127D01*
X009740Y021127D01*
X009574Y021058D01*
X009448Y020932D01*
X009379Y020766D01*
X009379Y019987D01*
X009448Y019822D01*
X009574Y019695D01*
X009740Y019627D01*
X009919Y019627D01*
X010084Y019695D01*
X010211Y019822D01*
X010279Y019987D01*
X010223Y019851D02*
X010439Y019851D01*
X010518Y019752D02*
X010141Y019752D01*
X009984Y019654D02*
X010675Y019654D01*
X010779Y019654D02*
X010879Y019654D01*
X010879Y019752D02*
X010779Y019752D01*
X010779Y019851D02*
X010879Y019851D01*
X010879Y019949D02*
X010779Y019949D01*
X010779Y020048D02*
X010879Y020048D01*
X010879Y020146D02*
X010779Y020146D01*
X010779Y020427D02*
X010379Y020427D01*
X010379Y020712D01*
X010390Y020782D01*
X010412Y020850D01*
X010444Y020913D01*
X010486Y020970D01*
X010536Y021020D01*
X010593Y021062D01*
X010657Y021094D01*
X010724Y021116D01*
X010779Y021124D01*
X010779Y020427D01*
X010779Y020442D02*
X010879Y020442D01*
X010879Y020427D02*
X010879Y021124D01*
X010935Y021116D01*
X011002Y021094D01*
X011065Y021062D01*
X011122Y021020D01*
X011173Y020970D01*
X011214Y020913D01*
X011246Y020850D01*
X011268Y020782D01*
X011279Y020712D01*
X011279Y020427D01*
X010879Y020427D01*
X010879Y020540D02*
X010779Y020540D01*
X010779Y020639D02*
X010879Y020639D01*
X010879Y020737D02*
X010779Y020737D01*
X010779Y020836D02*
X010879Y020836D01*
X010879Y020934D02*
X010779Y020934D01*
X010779Y021033D02*
X010879Y021033D01*
X011105Y021033D02*
X011549Y021033D01*
X011450Y020934D02*
X011199Y020934D01*
X011251Y020836D02*
X011408Y020836D01*
X011379Y020737D02*
X011275Y020737D01*
X011279Y020639D02*
X011379Y020639D01*
X011379Y020540D02*
X011279Y020540D01*
X011279Y020442D02*
X011379Y020442D01*
X011379Y020245D02*
X011279Y020245D01*
X011279Y020146D02*
X011379Y020146D01*
X011379Y020048D02*
X011279Y020048D01*
X011261Y019949D02*
X011395Y019949D01*
X011436Y019851D02*
X011219Y019851D01*
X011141Y019752D02*
X011518Y019752D01*
X011675Y019654D02*
X010983Y019654D01*
X010379Y020442D02*
X010279Y020442D01*
X010279Y020540D02*
X010379Y020540D01*
X010379Y020639D02*
X010279Y020639D01*
X010279Y020737D02*
X010383Y020737D01*
X010408Y020836D02*
X010251Y020836D01*
X010208Y020934D02*
X010460Y020934D01*
X010554Y021033D02*
X010110Y021033D01*
X009549Y021033D02*
X009110Y021033D01*
X009208Y020934D02*
X009450Y020934D01*
X009408Y020836D02*
X009251Y020836D01*
X009279Y020737D02*
X009379Y020737D01*
X009379Y020639D02*
X009279Y020639D01*
X009279Y020540D02*
X009379Y020540D01*
X009379Y020442D02*
X009279Y020442D01*
X009279Y020343D02*
X009379Y020343D01*
X009379Y020245D02*
X009279Y020245D01*
X009279Y020146D02*
X009379Y020146D01*
X009379Y020048D02*
X009279Y020048D01*
X009264Y019949D02*
X009395Y019949D01*
X009436Y019851D02*
X009223Y019851D01*
X009141Y019752D02*
X009518Y019752D01*
X009675Y019654D02*
X008984Y019654D01*
X008675Y019654D02*
X008659Y019654D01*
X008659Y019555D02*
X012059Y019555D01*
X012059Y019457D02*
X008659Y019457D01*
X008659Y019358D02*
X012080Y019358D01*
X012179Y019260D02*
X008659Y019260D01*
X008459Y019163D02*
X008459Y020006D01*
X008829Y020377D01*
X008379Y020343D02*
X008279Y020343D01*
X008279Y020245D02*
X008379Y020245D01*
X008379Y020442D02*
X008279Y020442D01*
X008279Y020540D02*
X008379Y020540D01*
X008379Y020639D02*
X008279Y020639D01*
X008279Y020737D02*
X008379Y020737D01*
X008408Y020836D02*
X008251Y020836D01*
X008208Y020934D02*
X008450Y020934D01*
X008549Y021033D02*
X008110Y021033D01*
X007549Y021033D02*
X000609Y021033D01*
X000609Y021131D02*
X025878Y021131D01*
X025976Y021033D02*
X025743Y021033D01*
X025842Y020934D02*
X026075Y020934D01*
X026173Y020836D02*
X025884Y020836D01*
X025912Y020737D02*
X026272Y020737D01*
X026309Y020639D02*
X025912Y020639D01*
X025912Y020540D02*
X026309Y020540D01*
X026309Y020442D02*
X025912Y020442D01*
X025912Y020343D02*
X026309Y020343D01*
X026309Y020245D02*
X025912Y020245D01*
X025912Y020146D02*
X026309Y020146D01*
X026309Y020048D02*
X025912Y020048D01*
X025897Y019949D02*
X026309Y019949D01*
X026309Y019851D02*
X025856Y019851D01*
X025774Y019752D02*
X026309Y019752D01*
X026309Y019654D02*
X025659Y019654D01*
X025659Y019555D02*
X026309Y019555D01*
X026309Y019457D02*
X025659Y019457D01*
X025659Y019358D02*
X026309Y019358D01*
X026309Y019260D02*
X025659Y019260D01*
X025659Y019161D02*
X026309Y019161D01*
X026309Y019063D02*
X025659Y019063D01*
X025659Y018964D02*
X026309Y018964D01*
X026309Y018866D02*
X025659Y018866D01*
X025659Y018767D02*
X026309Y018767D01*
X025259Y019463D02*
X024659Y020063D01*
X024659Y020181D01*
X024462Y020377D01*
X024012Y020343D02*
X023912Y020343D01*
X023912Y020245D02*
X024012Y020245D01*
X024012Y020146D02*
X023912Y020146D01*
X023912Y020048D02*
X024012Y020048D01*
X024028Y019949D02*
X023897Y019949D01*
X023912Y019987D02*
X023912Y020766D01*
X023844Y020932D01*
X023717Y021058D01*
X023552Y021127D01*
X023373Y021127D01*
X023208Y021058D01*
X023081Y020932D01*
X023012Y020766D01*
X023012Y019987D01*
X023081Y019822D01*
X023208Y019695D01*
X023373Y019627D01*
X023552Y019627D01*
X023717Y019695D01*
X023844Y019822D01*
X023912Y019987D01*
X023856Y019851D02*
X024069Y019851D01*
X024151Y019752D02*
X023774Y019752D01*
X023617Y019654D02*
X024308Y019654D01*
X024617Y019654D02*
X024785Y019654D01*
X024883Y019555D02*
X022662Y019555D01*
X022662Y019457D02*
X024982Y019457D01*
X025059Y019358D02*
X022662Y019358D01*
X022662Y019260D02*
X025059Y019260D01*
X025059Y019161D02*
X022662Y019161D01*
X022662Y019063D02*
X025059Y019063D01*
X025059Y018964D02*
X022662Y018964D01*
X022662Y018884D02*
X022662Y019673D01*
X022717Y019695D01*
X022844Y019822D01*
X022912Y019987D01*
X022912Y020766D01*
X022844Y020932D01*
X022717Y021058D01*
X022552Y021127D01*
X022373Y021127D01*
X022208Y021058D01*
X022081Y020932D01*
X022012Y020766D01*
X022012Y019987D01*
X022081Y019822D01*
X022208Y019695D01*
X022262Y019673D01*
X022262Y019049D01*
X022076Y018863D01*
X020542Y018863D01*
X020520Y018872D01*
X020397Y018872D01*
X020284Y018825D01*
X020197Y018738D01*
X020150Y018624D01*
X020150Y018501D01*
X020197Y018388D01*
X020284Y018301D01*
X020397Y018254D01*
X020520Y018254D01*
X020634Y018301D01*
X020721Y018388D01*
X020752Y018463D01*
X022241Y018463D01*
X022545Y018766D01*
X022662Y018884D01*
X022644Y018866D02*
X025059Y018866D01*
X025059Y018767D02*
X022546Y018767D01*
X022447Y018669D02*
X025059Y018669D01*
X025059Y018570D02*
X022349Y018570D01*
X022250Y018472D02*
X025059Y018472D01*
X025059Y018373D02*
X020706Y018373D01*
X020571Y018275D02*
X025059Y018275D01*
X025059Y018176D02*
X016459Y018176D01*
X016459Y018078D02*
X025059Y018078D01*
X025059Y017979D02*
X016459Y017979D01*
X016459Y017881D02*
X025059Y017881D01*
X025059Y017782D02*
X016459Y017782D01*
X016459Y017684D02*
X025059Y017684D01*
X025059Y017585D02*
X016459Y017585D01*
X016459Y017487D02*
X025059Y017487D01*
X025059Y017388D02*
X016459Y017388D01*
X016459Y017290D02*
X025059Y017290D01*
X025059Y017191D02*
X016459Y017191D01*
X016459Y017093D02*
X025059Y017093D01*
X025059Y016994D02*
X016459Y016994D01*
X016459Y016896D02*
X025059Y016896D01*
X025059Y016797D02*
X016459Y016797D01*
X016459Y016699D02*
X025059Y016699D01*
X025059Y016600D02*
X016459Y016600D01*
X016459Y016502D02*
X025059Y016502D01*
X025059Y016403D02*
X022701Y016403D01*
X022799Y016305D02*
X025059Y016305D01*
X025259Y016163D02*
X025159Y016063D01*
X022759Y016063D01*
X022559Y016263D01*
X022259Y016263D01*
X022059Y016063D01*
X022059Y015863D01*
X021959Y015763D01*
X021759Y015763D01*
X021485Y015911D02*
X019793Y015911D01*
X019695Y016009D02*
X021568Y016009D01*
X021450Y015812D02*
X019892Y015812D01*
X019990Y015714D02*
X021450Y015714D01*
X021485Y015615D02*
X020089Y015615D01*
X020187Y015517D02*
X021567Y015517D01*
X021950Y015517D02*
X026464Y015517D01*
X026432Y015418D02*
X020259Y015418D01*
X020259Y015320D02*
X026432Y015320D01*
X026432Y015221D02*
X020259Y015221D01*
X020259Y015123D02*
X026432Y015123D01*
X026432Y015024D02*
X020259Y015024D01*
X020259Y014926D02*
X026432Y014926D01*
X026432Y014827D02*
X020259Y014827D01*
X020259Y014729D02*
X026432Y014729D01*
X026432Y014630D02*
X020259Y014630D01*
X020259Y014532D02*
X026432Y014532D01*
X026432Y014433D02*
X020259Y014433D01*
X020259Y014335D02*
X026432Y014335D01*
X026432Y014236D02*
X020259Y014236D01*
X020259Y014138D02*
X026432Y014138D01*
X026432Y014039D02*
X020259Y014039D01*
X020259Y013941D02*
X026432Y013941D01*
X026432Y013842D02*
X020259Y013842D01*
X020259Y013744D02*
X026432Y013744D01*
X026432Y013645D02*
X020259Y013645D01*
X020259Y013547D02*
X026432Y013547D01*
X026432Y013448D02*
X020259Y013448D01*
X020259Y013350D02*
X026432Y013350D01*
X026432Y013251D02*
X020259Y013251D01*
X020259Y013153D02*
X026435Y013153D01*
X026499Y013054D02*
X020259Y013054D01*
X020259Y012956D02*
X027309Y012956D01*
X027309Y012857D02*
X020259Y012857D01*
X020259Y012759D02*
X025691Y012759D01*
X025581Y012660D02*
X020259Y012660D01*
X020259Y012562D02*
X025518Y012562D01*
X025478Y012463D02*
X020341Y012463D01*
X020439Y012365D02*
X025475Y012365D01*
X025481Y012266D02*
X020538Y012266D01*
X020559Y012168D02*
X025522Y012168D01*
X025482Y012069D02*
X020589Y012069D01*
X020648Y011971D02*
X025384Y011971D01*
X025285Y011872D02*
X020668Y011872D01*
X020656Y011774D02*
X025187Y011774D01*
X025088Y011675D02*
X020608Y011675D01*
X020359Y011863D02*
X020359Y012163D01*
X020059Y012463D01*
X020059Y015363D01*
X019159Y016263D01*
X016359Y016263D01*
X016259Y016363D01*
X016259Y019763D01*
X016829Y020333D01*
X016829Y020377D01*
X016379Y020343D02*
X016279Y020343D01*
X016279Y020245D02*
X016379Y020245D01*
X016359Y020146D02*
X016279Y020146D01*
X016279Y020442D02*
X016379Y020442D01*
X016379Y020540D02*
X016279Y020540D01*
X016279Y020639D02*
X016379Y020639D01*
X016379Y020737D02*
X016279Y020737D01*
X016251Y020836D02*
X016408Y020836D01*
X016450Y020934D02*
X016208Y020934D01*
X016110Y021033D02*
X016549Y021033D01*
X017110Y021033D02*
X018182Y021033D01*
X018208Y021058D02*
X018081Y020932D01*
X018012Y020766D01*
X018012Y019987D01*
X018081Y019822D01*
X018208Y019695D01*
X018373Y019627D01*
X018552Y019627D01*
X018717Y019695D01*
X018844Y019822D01*
X018912Y019987D01*
X018912Y020766D01*
X018844Y020932D01*
X018717Y021058D01*
X018552Y021127D01*
X018373Y021127D01*
X018208Y021058D01*
X018083Y020934D02*
X017208Y020934D01*
X017251Y020836D02*
X018041Y020836D01*
X018012Y020737D02*
X017279Y020737D01*
X017279Y020639D02*
X018012Y020639D01*
X018012Y020540D02*
X017279Y020540D01*
X017279Y020442D02*
X018012Y020442D01*
X018012Y020343D02*
X017279Y020343D01*
X017279Y020245D02*
X018012Y020245D01*
X018012Y020146D02*
X017279Y020146D01*
X017279Y020048D02*
X018012Y020048D01*
X018028Y019949D02*
X017264Y019949D01*
X017223Y019851D02*
X018069Y019851D01*
X018151Y019752D02*
X017141Y019752D01*
X016984Y019654D02*
X018308Y019654D01*
X018617Y019654D02*
X019308Y019654D01*
X019373Y019627D02*
X019208Y019695D01*
X019081Y019822D01*
X019012Y019987D01*
X019012Y020766D01*
X019081Y020932D01*
X019208Y021058D01*
X019373Y021127D01*
X019552Y021127D01*
X019717Y021058D01*
X019844Y020932D01*
X019912Y020766D01*
X019912Y019987D01*
X019844Y019822D01*
X019717Y019695D01*
X019552Y019627D01*
X019373Y019627D01*
X019617Y019654D02*
X020308Y019654D01*
X020373Y019627D02*
X020552Y019627D01*
X020717Y019695D01*
X020844Y019822D01*
X020912Y019987D01*
X020912Y020766D01*
X020844Y020932D01*
X020717Y021058D01*
X020552Y021127D01*
X020373Y021127D01*
X020208Y021058D01*
X020081Y020932D01*
X020012Y020766D01*
X020012Y019987D01*
X020081Y019822D01*
X020208Y019695D01*
X020373Y019627D01*
X020617Y019654D02*
X021308Y019654D01*
X021373Y019627D02*
X021552Y019627D01*
X021717Y019695D01*
X021844Y019822D01*
X021912Y019987D01*
X021912Y020766D01*
X021844Y020932D01*
X021717Y021058D01*
X021552Y021127D01*
X021373Y021127D01*
X021208Y021058D01*
X021081Y020932D01*
X021012Y020766D01*
X021012Y019987D01*
X021081Y019822D01*
X021208Y019695D01*
X021373Y019627D01*
X021617Y019654D02*
X022262Y019654D01*
X022262Y019555D02*
X016459Y019555D01*
X016459Y019457D02*
X022262Y019457D01*
X022262Y019358D02*
X016459Y019358D01*
X016459Y019260D02*
X022262Y019260D01*
X022262Y019161D02*
X016459Y019161D01*
X016459Y019063D02*
X022262Y019063D01*
X022177Y018964D02*
X016459Y018964D01*
X016459Y018866D02*
X020383Y018866D01*
X020535Y018866D02*
X022079Y018866D01*
X022159Y018663D02*
X022462Y018966D01*
X022462Y020377D01*
X022912Y020343D02*
X023012Y020343D01*
X023012Y020245D02*
X022912Y020245D01*
X022912Y020146D02*
X023012Y020146D01*
X023012Y020048D02*
X022912Y020048D01*
X022897Y019949D02*
X023028Y019949D01*
X023069Y019851D02*
X022856Y019851D01*
X022774Y019752D02*
X023151Y019752D01*
X023308Y019654D02*
X022662Y019654D01*
X022151Y019752D02*
X021774Y019752D01*
X021856Y019851D02*
X022069Y019851D01*
X022028Y019949D02*
X021897Y019949D01*
X021912Y020048D02*
X022012Y020048D01*
X022012Y020146D02*
X021912Y020146D01*
X021912Y020245D02*
X022012Y020245D01*
X022012Y020343D02*
X021912Y020343D01*
X021912Y020442D02*
X022012Y020442D01*
X022012Y020540D02*
X021912Y020540D01*
X021912Y020639D02*
X022012Y020639D01*
X022012Y020737D02*
X021912Y020737D01*
X021884Y020836D02*
X022041Y020836D01*
X022083Y020934D02*
X021842Y020934D01*
X021743Y021033D02*
X022182Y021033D01*
X022743Y021033D02*
X023182Y021033D01*
X023083Y020934D02*
X022842Y020934D01*
X022884Y020836D02*
X023041Y020836D01*
X023012Y020737D02*
X022912Y020737D01*
X022912Y020639D02*
X023012Y020639D01*
X023012Y020540D02*
X022912Y020540D01*
X022912Y020442D02*
X023012Y020442D01*
X023912Y020442D02*
X024012Y020442D01*
X024012Y020540D02*
X023912Y020540D01*
X023912Y020639D02*
X024012Y020639D01*
X024012Y020737D02*
X023912Y020737D01*
X023884Y020836D02*
X024041Y020836D01*
X024083Y020934D02*
X023842Y020934D01*
X023743Y021033D02*
X024182Y021033D01*
X024743Y021033D02*
X025182Y021033D01*
X025083Y020934D02*
X024842Y020934D01*
X024884Y020836D02*
X025041Y020836D01*
X025012Y020737D02*
X024912Y020737D01*
X024912Y020639D02*
X025012Y020639D01*
X025012Y020540D02*
X024912Y020540D01*
X024912Y020442D02*
X025012Y020442D01*
X025012Y020343D02*
X024912Y020343D01*
X024912Y020245D02*
X025012Y020245D01*
X025012Y020146D02*
X024912Y020146D01*
X024956Y020048D02*
X025012Y020048D01*
X025459Y020373D02*
X025462Y020377D01*
X025459Y020373D02*
X025459Y016063D01*
X025259Y015863D01*
X022359Y015863D01*
X022548Y015615D02*
X026894Y015615D01*
X026795Y015714D02*
X025392Y015714D01*
X025491Y015812D02*
X026697Y015812D01*
X025259Y016163D02*
X025259Y019463D01*
X022159Y018663D02*
X020559Y018663D01*
X020459Y018563D01*
X020168Y018669D02*
X016459Y018669D01*
X016459Y018767D02*
X020226Y018767D01*
X020150Y018570D02*
X016459Y018570D01*
X016459Y018472D02*
X020162Y018472D01*
X020211Y018373D02*
X016459Y018373D01*
X016459Y018275D02*
X020346Y018275D01*
X020151Y019752D02*
X019774Y019752D01*
X019856Y019851D02*
X020069Y019851D01*
X020028Y019949D02*
X019897Y019949D01*
X019912Y020048D02*
X020012Y020048D01*
X020012Y020146D02*
X019912Y020146D01*
X019912Y020245D02*
X020012Y020245D01*
X020012Y020343D02*
X019912Y020343D01*
X019912Y020442D02*
X020012Y020442D01*
X020012Y020540D02*
X019912Y020540D01*
X019912Y020639D02*
X020012Y020639D01*
X020012Y020737D02*
X019912Y020737D01*
X019884Y020836D02*
X020041Y020836D01*
X020083Y020934D02*
X019842Y020934D01*
X019743Y021033D02*
X020182Y021033D01*
X020743Y021033D02*
X021182Y021033D01*
X021083Y020934D02*
X020842Y020934D01*
X020884Y020836D02*
X021041Y020836D01*
X021012Y020737D02*
X020912Y020737D01*
X020912Y020639D02*
X021012Y020639D01*
X021012Y020540D02*
X020912Y020540D01*
X020912Y020442D02*
X021012Y020442D01*
X021012Y020343D02*
X020912Y020343D01*
X020912Y020245D02*
X021012Y020245D01*
X021012Y020146D02*
X020912Y020146D01*
X020912Y020048D02*
X021012Y020048D01*
X021028Y019949D02*
X020897Y019949D01*
X020856Y019851D02*
X021069Y019851D01*
X021151Y019752D02*
X020774Y019752D01*
X019151Y019752D02*
X018774Y019752D01*
X018856Y019851D02*
X019069Y019851D01*
X019028Y019949D02*
X018897Y019949D01*
X018912Y020048D02*
X019012Y020048D01*
X019012Y020146D02*
X018912Y020146D01*
X018912Y020245D02*
X019012Y020245D01*
X019012Y020343D02*
X018912Y020343D01*
X018912Y020442D02*
X019012Y020442D01*
X019012Y020540D02*
X018912Y020540D01*
X018912Y020639D02*
X019012Y020639D01*
X019012Y020737D02*
X018912Y020737D01*
X018884Y020836D02*
X019041Y020836D01*
X019083Y020934D02*
X018842Y020934D01*
X018743Y021033D02*
X019182Y021033D01*
X016675Y019654D02*
X016459Y019654D01*
X016059Y019763D02*
X015829Y019992D01*
X015829Y020377D01*
X015379Y020343D02*
X015279Y020343D01*
X015279Y020245D02*
X015379Y020245D01*
X015379Y020146D02*
X015279Y020146D01*
X015279Y020048D02*
X015379Y020048D01*
X015395Y019949D02*
X015264Y019949D01*
X015253Y019851D02*
X015436Y019851D01*
X015518Y019752D02*
X015352Y019752D01*
X015450Y019654D02*
X015675Y019654D01*
X015549Y019555D02*
X015859Y019555D01*
X015859Y019457D02*
X015647Y019457D01*
X015746Y019358D02*
X015859Y019358D01*
X015859Y019260D02*
X015844Y019260D01*
X015859Y018963D02*
X014829Y019992D01*
X014829Y020377D01*
X014379Y020343D02*
X014279Y020343D01*
X014279Y020245D02*
X014379Y020245D01*
X014379Y020146D02*
X014279Y020146D01*
X014279Y020048D02*
X014379Y020048D01*
X014395Y019949D02*
X014264Y019949D01*
X014223Y019851D02*
X014436Y019851D01*
X014059Y019563D02*
X013859Y019763D01*
X013859Y020348D01*
X013829Y020377D01*
X014279Y020442D02*
X014379Y020442D01*
X014379Y020540D02*
X014279Y020540D01*
X014279Y020639D02*
X014379Y020639D01*
X014379Y020737D02*
X014279Y020737D01*
X014251Y020836D02*
X014408Y020836D01*
X014450Y020934D02*
X014208Y020934D01*
X014110Y021033D02*
X014549Y021033D01*
X015110Y021033D02*
X015549Y021033D01*
X015450Y020934D02*
X015208Y020934D01*
X015251Y020836D02*
X015408Y020836D01*
X015379Y020737D02*
X015279Y020737D01*
X015279Y020639D02*
X015379Y020639D01*
X015379Y020540D02*
X015279Y020540D01*
X015279Y020442D02*
X015379Y020442D01*
X016059Y019763D02*
X016059Y016163D01*
X016159Y016063D01*
X019059Y016063D01*
X019859Y015263D01*
X019859Y011963D01*
X019659Y011763D01*
X019559Y012063D02*
X019659Y012163D01*
X019659Y015163D01*
X018959Y015863D01*
X016059Y015863D01*
X015859Y016063D01*
X015859Y018963D01*
X015659Y018863D02*
X014959Y019563D01*
X014059Y019563D01*
X013776Y019563D02*
X013776Y019563D01*
X013675Y019654D02*
X012984Y019654D01*
X013141Y019752D02*
X013518Y019752D01*
X013436Y019851D02*
X013223Y019851D01*
X013264Y019949D02*
X013395Y019949D01*
X013379Y020048D02*
X013279Y020048D01*
X013279Y020146D02*
X013379Y020146D01*
X013379Y020245D02*
X013279Y020245D01*
X013279Y020343D02*
X013379Y020343D01*
X013379Y020442D02*
X013279Y020442D01*
X013279Y020540D02*
X013379Y020540D01*
X013379Y020639D02*
X013279Y020639D01*
X013279Y020737D02*
X013379Y020737D01*
X013408Y020836D02*
X013251Y020836D01*
X013208Y020934D02*
X013450Y020934D01*
X013549Y021033D02*
X013110Y021033D01*
X012549Y021033D02*
X012110Y021033D01*
X012208Y020934D02*
X012450Y020934D01*
X012408Y020836D02*
X012251Y020836D01*
X012279Y020737D02*
X012379Y020737D01*
X012379Y020639D02*
X012279Y020639D01*
X012279Y020540D02*
X012379Y020540D01*
X012379Y020442D02*
X012279Y020442D01*
X012279Y020343D02*
X012379Y020343D01*
X012379Y020245D02*
X012279Y020245D01*
X012459Y020006D02*
X012829Y020377D01*
X012459Y020006D02*
X012459Y019563D01*
X012659Y019363D01*
X014859Y019363D01*
X015459Y018763D01*
X015459Y015863D01*
X015859Y015463D01*
X018759Y015463D01*
X019259Y014963D01*
X019259Y013163D01*
X019059Y012963D01*
X018859Y012963D01*
X018959Y013363D02*
X018659Y013363D01*
X018959Y013363D02*
X019059Y013463D01*
X018659Y014063D02*
X018859Y014263D01*
X018859Y014763D01*
X018559Y015063D01*
X014459Y015063D01*
X014359Y015163D01*
X014359Y016663D01*
X014659Y016963D01*
X014659Y018363D01*
X014459Y018563D01*
X008459Y018563D01*
X007759Y019263D01*
X004959Y019263D01*
X005060Y019555D02*
X008059Y019555D01*
X008059Y019457D02*
X007847Y019457D01*
X007946Y019358D02*
X008059Y019358D01*
X008059Y019260D02*
X008044Y019260D01*
X008259Y019063D02*
X008259Y019948D01*
X007829Y020377D01*
X007379Y020343D02*
X000609Y020343D01*
X000609Y020245D02*
X007379Y020245D01*
X007379Y020146D02*
X002531Y020146D01*
X002526Y020151D02*
X002399Y020204D01*
X002261Y020204D01*
X002133Y020151D01*
X002036Y020053D01*
X001983Y019926D01*
X001983Y019788D01*
X002036Y019660D01*
X002133Y019563D01*
X002261Y019510D01*
X002399Y019510D01*
X002526Y019563D01*
X002624Y019660D01*
X002677Y019788D01*
X002677Y019926D01*
X002624Y020053D01*
X002526Y020151D01*
X002626Y020048D02*
X007379Y020048D01*
X007395Y019949D02*
X002667Y019949D01*
X002677Y019851D02*
X007436Y019851D01*
X007518Y019752D02*
X002662Y019752D01*
X002617Y019654D02*
X007675Y019654D01*
X007984Y019654D02*
X008059Y019654D01*
X008259Y019063D02*
X008559Y018763D01*
X014559Y018763D01*
X014859Y018463D01*
X014859Y016663D01*
X014759Y016563D01*
X015059Y016263D02*
X015059Y018563D01*
X014659Y018963D01*
X008659Y018963D01*
X008459Y019163D01*
X007759Y018963D02*
X005359Y018963D01*
X005050Y018964D02*
X005046Y018964D01*
X005064Y018866D02*
X000609Y018866D01*
X000609Y018964D02*
X004872Y018964D01*
X004721Y019063D02*
X000609Y019063D01*
X000609Y019161D02*
X004666Y019161D01*
X004650Y019260D02*
X000609Y019260D01*
X000609Y019358D02*
X004664Y019358D01*
X004716Y019457D02*
X000609Y019457D01*
X000609Y019555D02*
X002152Y019555D01*
X002042Y019654D02*
X000609Y019654D01*
X000609Y019752D02*
X001998Y019752D01*
X001983Y019851D02*
X000609Y019851D01*
X000609Y019949D02*
X001993Y019949D01*
X002033Y020048D02*
X000609Y020048D01*
X000609Y020146D02*
X002128Y020146D01*
X002508Y019555D02*
X004857Y019555D01*
X005117Y018767D02*
X000609Y018767D01*
X000609Y018669D02*
X005261Y018669D01*
X005457Y018669D02*
X007770Y018669D01*
X007868Y018570D02*
X000609Y018570D01*
X000609Y018472D02*
X007967Y018472D01*
X008065Y018373D02*
X002572Y018373D01*
X002526Y018419D02*
X002399Y018471D01*
X002261Y018471D01*
X002133Y018419D01*
X002036Y018321D01*
X001983Y018194D01*
X001983Y018056D01*
X002036Y017928D01*
X002133Y017831D01*
X002261Y017778D01*
X002399Y017778D01*
X002526Y017831D01*
X002624Y017928D01*
X002677Y018056D01*
X002677Y018194D01*
X002624Y018321D01*
X002526Y018419D01*
X002643Y018275D02*
X008164Y018275D01*
X008262Y018176D02*
X002677Y018176D01*
X002677Y018078D02*
X014259Y018078D01*
X014259Y017979D02*
X002645Y017979D01*
X002576Y017881D02*
X014259Y017881D01*
X014259Y017782D02*
X002409Y017782D01*
X002250Y017782D02*
X000609Y017782D01*
X000609Y017684D02*
X014259Y017684D01*
X014259Y017585D02*
X000609Y017585D01*
X000609Y017487D02*
X014259Y017487D01*
X014259Y017388D02*
X000609Y017388D01*
X000609Y017290D02*
X014259Y017290D01*
X014259Y017191D02*
X000609Y017191D01*
X000609Y017093D02*
X014206Y017093D01*
X014107Y016994D02*
X000609Y016994D01*
X000609Y016896D02*
X014009Y016896D01*
X013959Y016797D02*
X000609Y016797D01*
X000609Y016699D02*
X013959Y016699D01*
X013959Y016600D02*
X000609Y016600D01*
X000609Y016502D02*
X013959Y016502D01*
X013959Y016403D02*
X000609Y016403D01*
X000609Y016305D02*
X013959Y016305D01*
X013959Y016206D02*
X000609Y016206D01*
X000609Y016108D02*
X013959Y016108D01*
X013959Y016009D02*
X002400Y016009D01*
X002382Y016027D02*
X002224Y016093D01*
X001493Y016093D01*
X001335Y016027D01*
X001214Y015906D01*
X001149Y015748D01*
X001149Y015577D01*
X001214Y015419D01*
X001335Y015298D01*
X001493Y015233D01*
X002224Y015233D01*
X002382Y015298D01*
X002503Y015419D01*
X002569Y015577D01*
X002569Y015748D01*
X002503Y015906D01*
X002382Y016027D01*
X002499Y015911D02*
X013959Y015911D01*
X013959Y015812D02*
X002542Y015812D01*
X002569Y015714D02*
X013959Y015714D01*
X013959Y015615D02*
X002569Y015615D01*
X002544Y015517D02*
X013959Y015517D01*
X013959Y015418D02*
X002502Y015418D01*
X002404Y015320D02*
X013959Y015320D01*
X013959Y015221D02*
X004654Y015221D01*
X004752Y015123D02*
X013959Y015123D01*
X013959Y015024D02*
X004851Y015024D01*
X004949Y014926D02*
X014013Y014926D01*
X014111Y014827D02*
X005048Y014827D01*
X005102Y014729D02*
X014210Y014729D01*
X014359Y014863D02*
X018359Y014863D01*
X018459Y014763D01*
X018459Y014563D01*
X018178Y014433D02*
X005109Y014433D01*
X005109Y014335D02*
X018249Y014335D01*
X018396Y014236D02*
X005109Y014236D01*
X005109Y014138D02*
X018355Y014138D01*
X018350Y014039D02*
X005109Y014039D01*
X005109Y013941D02*
X018375Y013941D01*
X018150Y014532D02*
X005109Y014532D01*
X005109Y014630D02*
X018152Y014630D01*
X018859Y015663D02*
X015959Y015663D01*
X015659Y015963D01*
X015659Y018863D01*
X014459Y018263D02*
X014359Y018363D01*
X008359Y018363D01*
X007759Y018963D01*
X007379Y020442D02*
X000609Y020442D01*
X000609Y020540D02*
X007379Y020540D01*
X007379Y020639D02*
X000609Y020639D01*
X000609Y020737D02*
X007379Y020737D01*
X007408Y020836D02*
X000609Y020836D01*
X000609Y020934D02*
X007450Y020934D01*
X011984Y019654D02*
X012059Y019654D01*
X012659Y019654D02*
X012675Y019654D01*
X014459Y018263D02*
X014459Y017063D01*
X014159Y016763D01*
X014159Y015063D01*
X014359Y014863D01*
X014959Y016163D02*
X015059Y016263D01*
X018859Y015663D02*
X019459Y015063D01*
X019459Y012763D01*
X019359Y012663D01*
X019159Y012663D01*
X019059Y012063D02*
X019559Y012063D01*
X018772Y009659D02*
X018624Y009659D01*
X018488Y009602D01*
X018384Y009498D01*
X018328Y009362D01*
X018328Y008775D01*
X018384Y008639D01*
X018488Y008535D01*
X018624Y008479D01*
X018772Y008479D01*
X018908Y008535D01*
X019012Y008639D01*
X019068Y008775D01*
X019068Y009362D01*
X019012Y009498D01*
X018908Y009602D01*
X018772Y009659D01*
X018897Y009607D02*
X025537Y009607D01*
X025544Y009623D02*
X025475Y009458D01*
X025475Y009279D01*
X025544Y009114D01*
X019068Y009114D01*
X019068Y009016D02*
X025642Y009016D01*
X025671Y008987D02*
X025836Y008918D01*
X026615Y008918D01*
X026780Y008987D01*
X026907Y009114D01*
X027309Y009114D01*
X027309Y009016D02*
X026809Y009016D01*
X026907Y009114D02*
X026975Y009279D01*
X026975Y009458D01*
X026907Y009623D01*
X026780Y009750D01*
X026615Y009818D01*
X025836Y009818D01*
X025671Y009750D01*
X025544Y009623D01*
X025626Y009705D02*
X014559Y009705D01*
X014559Y009607D02*
X016499Y009607D01*
X016488Y009602D02*
X016384Y009498D01*
X016328Y009362D01*
X016328Y008775D01*
X016384Y008639D01*
X016488Y008535D01*
X016624Y008479D01*
X016772Y008479D01*
X016908Y008535D01*
X017012Y008639D01*
X017068Y008775D01*
X017068Y009362D01*
X017012Y009498D01*
X016908Y009602D01*
X016772Y009659D01*
X016624Y009659D01*
X016488Y009602D01*
X016394Y009508D02*
X014487Y009508D01*
X014388Y009410D02*
X016348Y009410D01*
X016328Y009311D02*
X014244Y009311D01*
X014259Y009563D02*
X014059Y009563D01*
X014259Y009563D02*
X014359Y009663D01*
X014359Y011363D01*
X014459Y011463D01*
X025159Y011463D01*
X026064Y012368D01*
X026225Y012368D01*
X025851Y011872D02*
X027309Y011872D01*
X027309Y011774D02*
X026723Y011774D01*
X026855Y011675D02*
X027309Y011675D01*
X027309Y011577D02*
X026926Y011577D01*
X026967Y011478D02*
X027309Y011478D01*
X027309Y011380D02*
X026975Y011380D01*
X026975Y011281D02*
X027309Y011281D01*
X027309Y011183D02*
X026936Y011183D01*
X026878Y011084D02*
X027309Y011084D01*
X027309Y010986D02*
X026777Y010986D01*
X026687Y010789D02*
X027309Y010789D01*
X027309Y010887D02*
X014559Y010887D01*
X014559Y010789D02*
X025764Y010789D01*
X025836Y010818D02*
X025671Y010750D01*
X025544Y010623D01*
X025475Y010458D01*
X025475Y010279D01*
X025544Y010114D01*
X025671Y009987D01*
X025836Y009918D01*
X026615Y009918D01*
X026780Y009987D01*
X026907Y010114D01*
X026975Y010279D01*
X026975Y010458D01*
X026907Y010623D01*
X026780Y010750D01*
X026615Y010818D01*
X025836Y010818D01*
X025674Y010986D02*
X014559Y010986D01*
X014559Y011084D02*
X025573Y011084D01*
X025515Y011183D02*
X014559Y011183D01*
X014559Y010690D02*
X025611Y010690D01*
X025531Y010592D02*
X014559Y010592D01*
X014559Y010493D02*
X025490Y010493D01*
X025475Y010395D02*
X014559Y010395D01*
X014559Y010296D02*
X025475Y010296D01*
X025509Y010198D02*
X014559Y010198D01*
X014559Y010099D02*
X025558Y010099D01*
X025657Y010001D02*
X014559Y010001D01*
X014559Y009902D02*
X027309Y009902D01*
X027309Y009804D02*
X026651Y009804D01*
X026825Y009705D02*
X027309Y009705D01*
X027309Y009607D02*
X026914Y009607D01*
X026955Y009508D02*
X027309Y009508D01*
X027309Y009410D02*
X026975Y009410D01*
X026975Y009311D02*
X027309Y009311D01*
X027309Y009213D02*
X026948Y009213D01*
X027309Y008917D02*
X019068Y008917D01*
X019068Y008819D02*
X027309Y008819D01*
X027309Y008720D02*
X026810Y008720D01*
X026780Y008750D02*
X026907Y008623D01*
X026975Y008458D01*
X026975Y008279D01*
X026907Y008114D01*
X026780Y007987D01*
X026615Y007918D01*
X025836Y007918D01*
X025671Y007987D01*
X025544Y008114D01*
X025475Y008279D01*
X025475Y008458D01*
X025544Y008623D01*
X025671Y008750D01*
X025836Y008818D01*
X026615Y008818D01*
X026780Y008750D01*
X026908Y008622D02*
X027309Y008622D01*
X027309Y008523D02*
X026948Y008523D01*
X026975Y008425D02*
X027309Y008425D01*
X027309Y008326D02*
X026975Y008326D01*
X026954Y008228D02*
X027309Y008228D01*
X027309Y008129D02*
X026913Y008129D01*
X026824Y008031D02*
X027309Y008031D01*
X027309Y007932D02*
X026648Y007932D01*
X026615Y007818D02*
X026780Y007750D01*
X026907Y007623D01*
X026975Y007458D01*
X026975Y007279D01*
X026907Y007114D01*
X026780Y006987D01*
X026615Y006918D01*
X025836Y006918D01*
X025671Y006987D01*
X025544Y007114D01*
X025475Y007279D01*
X025475Y007458D01*
X025544Y007623D01*
X025671Y007750D01*
X025836Y007818D01*
X026615Y007818D01*
X026795Y007735D02*
X027309Y007735D01*
X027309Y007637D02*
X026894Y007637D01*
X026942Y007538D02*
X027309Y007538D01*
X027309Y007440D02*
X026975Y007440D01*
X026975Y007341D02*
X027309Y007341D01*
X027309Y007243D02*
X026960Y007243D01*
X026920Y007144D02*
X027309Y007144D01*
X027309Y007046D02*
X026839Y007046D01*
X026684Y006947D02*
X027309Y006947D01*
X027309Y006849D02*
X016057Y006849D01*
X016068Y006824D02*
X016021Y006938D01*
X015934Y007025D01*
X015820Y007072D01*
X015697Y007072D01*
X015584Y007025D01*
X015522Y006963D01*
X015076Y006963D01*
X014959Y006845D01*
X014659Y006545D01*
X014659Y004500D01*
X014597Y004438D01*
X014550Y004324D01*
X014550Y004201D01*
X014597Y004088D01*
X014684Y004001D01*
X014797Y003954D01*
X014920Y003954D01*
X015034Y004001D01*
X015121Y004088D01*
X015168Y004201D01*
X015168Y004324D01*
X015121Y004438D01*
X015059Y004500D01*
X015059Y006380D01*
X015241Y006563D01*
X015522Y006563D01*
X015584Y006501D01*
X015697Y006454D01*
X015820Y006454D01*
X015934Y006501D01*
X016021Y006588D01*
X016068Y006701D01*
X016068Y006824D01*
X016068Y006750D02*
X025671Y006750D01*
X025544Y006623D01*
X025475Y006458D01*
X025475Y006279D01*
X025544Y006114D01*
X025671Y005987D01*
X025836Y005918D01*
X026615Y005918D01*
X026780Y005987D01*
X026907Y006114D01*
X026975Y006279D01*
X026975Y006458D01*
X026907Y006623D01*
X026780Y006750D01*
X027309Y006750D01*
X027309Y006652D02*
X026879Y006652D01*
X026936Y006553D02*
X027309Y006553D01*
X027309Y006455D02*
X026975Y006455D01*
X026975Y006356D02*
X027309Y006356D01*
X027309Y006258D02*
X026967Y006258D01*
X026926Y006159D02*
X027309Y006159D01*
X027309Y006061D02*
X026854Y006061D01*
X026720Y005962D02*
X027309Y005962D01*
X027309Y005864D02*
X015059Y005864D01*
X015059Y005962D02*
X025731Y005962D01*
X025597Y006061D02*
X015059Y006061D01*
X015059Y006159D02*
X025525Y006159D01*
X025484Y006258D02*
X015059Y006258D01*
X015059Y006356D02*
X025475Y006356D01*
X025475Y006455D02*
X015823Y006455D01*
X015695Y006455D02*
X015133Y006455D01*
X015232Y006553D02*
X015531Y006553D01*
X015759Y006763D02*
X015159Y006763D01*
X014859Y006463D01*
X014859Y004263D01*
X015074Y004485D02*
X027309Y004485D01*
X027309Y004583D02*
X015059Y004583D01*
X015059Y004682D02*
X027309Y004682D01*
X027309Y004780D02*
X015059Y004780D01*
X015059Y004879D02*
X027309Y004879D01*
X027309Y004977D02*
X026757Y004977D01*
X026780Y004987D02*
X026907Y005114D01*
X026975Y005279D01*
X026975Y005458D01*
X026907Y005623D01*
X026780Y005750D01*
X026615Y005818D01*
X025836Y005818D01*
X025671Y005750D01*
X025544Y005623D01*
X025475Y005458D01*
X025475Y005279D01*
X025544Y005114D01*
X025671Y004987D01*
X025836Y004918D01*
X026615Y004918D01*
X026780Y004987D01*
X026869Y005076D02*
X027309Y005076D01*
X027309Y005174D02*
X026932Y005174D01*
X026973Y005273D02*
X027309Y005273D01*
X027309Y005371D02*
X026975Y005371D01*
X026971Y005470D02*
X027309Y005470D01*
X027309Y005568D02*
X026930Y005568D01*
X026864Y005667D02*
X027309Y005667D01*
X027309Y005765D02*
X026744Y005765D01*
X025707Y005765D02*
X015059Y005765D01*
X015059Y005667D02*
X025587Y005667D01*
X025521Y005568D02*
X015059Y005568D01*
X015059Y005470D02*
X025480Y005470D01*
X025475Y005371D02*
X015059Y005371D01*
X015059Y005273D02*
X025478Y005273D01*
X025519Y005174D02*
X015059Y005174D01*
X015059Y005076D02*
X025582Y005076D01*
X025694Y004977D02*
X015059Y004977D01*
X014659Y004977D02*
X014281Y004977D01*
X014321Y004938D02*
X014234Y005025D01*
X014120Y005072D01*
X013997Y005072D01*
X013884Y005025D01*
X013822Y004963D01*
X013296Y004963D01*
X013234Y005025D01*
X013120Y005072D01*
X012997Y005072D01*
X012884Y005025D01*
X012797Y004938D01*
X012750Y004824D01*
X012750Y004701D01*
X012797Y004588D01*
X012884Y004501D01*
X012997Y004454D01*
X013120Y004454D01*
X013234Y004501D01*
X013296Y004563D01*
X013822Y004563D01*
X013884Y004501D01*
X013997Y004454D01*
X014120Y004454D01*
X014234Y004501D01*
X014321Y004588D01*
X014368Y004701D01*
X014368Y004824D01*
X014321Y004938D01*
X014345Y004879D02*
X014659Y004879D01*
X014659Y004780D02*
X014368Y004780D01*
X014360Y004682D02*
X014659Y004682D01*
X014659Y004583D02*
X014316Y004583D01*
X014195Y004485D02*
X014644Y004485D01*
X014575Y004386D02*
X012689Y004386D01*
X012777Y004288D02*
X014550Y004288D01*
X014555Y004189D02*
X012809Y004189D01*
X012809Y004091D02*
X014595Y004091D01*
X014704Y003992D02*
X012809Y003992D01*
X012809Y003894D02*
X027309Y003894D01*
X027309Y003992D02*
X015013Y003992D01*
X015122Y004091D02*
X027309Y004091D01*
X027309Y004189D02*
X015163Y004189D01*
X015168Y004288D02*
X027309Y004288D01*
X027309Y004386D02*
X015142Y004386D01*
X014659Y005076D02*
X012157Y005076D01*
X012168Y005174D02*
X014659Y005174D01*
X014659Y005273D02*
X012148Y005273D01*
X012087Y005371D02*
X014659Y005371D01*
X014659Y005470D02*
X011925Y005470D01*
X011792Y005470D02*
X009009Y005470D01*
X009009Y005568D02*
X014659Y005568D01*
X014659Y005667D02*
X009009Y005667D01*
X009009Y005765D02*
X014659Y005765D01*
X014659Y005864D02*
X009009Y005864D01*
X009009Y005962D02*
X014659Y005962D01*
X014659Y006061D02*
X009009Y006061D01*
X009009Y006159D02*
X014659Y006159D01*
X014659Y006258D02*
X009009Y006258D01*
X009009Y006356D02*
X014659Y006356D01*
X014659Y006455D02*
X009009Y006455D01*
X009009Y006553D02*
X014666Y006553D01*
X014765Y006652D02*
X009009Y006652D01*
X008993Y006750D02*
X014863Y006750D01*
X014962Y006849D02*
X008926Y006849D01*
X008828Y006947D02*
X015060Y006947D01*
X015634Y007046D02*
X008729Y007046D01*
X008631Y007144D02*
X025531Y007144D01*
X025491Y007243D02*
X008532Y007243D01*
X008434Y007341D02*
X025475Y007341D01*
X025475Y007440D02*
X008335Y007440D01*
X009009Y005371D02*
X011630Y005371D01*
X011570Y005273D02*
X009009Y005273D01*
X009009Y005174D02*
X011550Y005174D01*
X011560Y005076D02*
X009009Y005076D01*
X009009Y004977D02*
X011607Y004977D01*
X011609Y004879D02*
X009009Y004879D01*
X009009Y004780D02*
X011622Y004780D01*
X011686Y004682D02*
X009093Y004682D01*
X009192Y004583D02*
X011785Y004583D01*
X011883Y004485D02*
X009290Y004485D01*
X009389Y004386D02*
X011982Y004386D01*
X012080Y004288D02*
X011569Y004288D01*
X011686Y004189D02*
X012179Y004189D01*
X012277Y004091D02*
X011784Y004091D01*
X011883Y003992D02*
X012309Y003992D01*
X012309Y003894D02*
X011981Y003894D01*
X012080Y003795D02*
X012309Y003795D01*
X012309Y003697D02*
X012178Y003697D01*
X012277Y003598D02*
X012309Y003598D01*
X012809Y003598D02*
X027309Y003598D01*
X027309Y003500D02*
X012809Y003500D01*
X012809Y003401D02*
X027309Y003401D01*
X027309Y003303D02*
X012809Y003303D01*
X012809Y003204D02*
X027309Y003204D01*
X027309Y003106D02*
X012809Y003106D01*
X012809Y003007D02*
X027309Y003007D01*
X027309Y002909D02*
X012809Y002909D01*
X012809Y003697D02*
X027309Y003697D01*
X027309Y003795D02*
X012809Y003795D01*
X012922Y004485D02*
X012590Y004485D01*
X012492Y004583D02*
X012801Y004583D01*
X012758Y004682D02*
X012393Y004682D01*
X012295Y004780D02*
X012750Y004780D01*
X012772Y004879D02*
X012196Y004879D01*
X012110Y004977D02*
X012836Y004977D01*
X013059Y004763D02*
X014059Y004763D01*
X013836Y004977D02*
X013281Y004977D01*
X013195Y004485D02*
X013922Y004485D01*
X011471Y003697D02*
X008924Y003697D01*
X009024Y003795D02*
X011373Y003795D01*
X009174Y003894D02*
X009065Y003894D01*
X009071Y003992D02*
X009076Y003992D01*
X008759Y003963D02*
X009109Y004313D01*
X006959Y002363D02*
X006859Y002463D01*
X013171Y007538D02*
X025509Y007538D01*
X025557Y007637D02*
X013241Y007637D01*
X013268Y007735D02*
X025656Y007735D01*
X025803Y007932D02*
X013223Y007932D01*
X013264Y007834D02*
X027309Y007834D01*
X026780Y006750D02*
X026615Y006818D01*
X025836Y006818D01*
X025671Y006750D01*
X025572Y006652D02*
X016047Y006652D01*
X015986Y006553D02*
X025515Y006553D01*
X025767Y006947D02*
X016011Y006947D01*
X015883Y007046D02*
X025612Y007046D01*
X025627Y008031D02*
X013159Y008031D01*
X013159Y008129D02*
X025538Y008129D01*
X025497Y008228D02*
X013159Y008228D01*
X013159Y008326D02*
X025475Y008326D01*
X025475Y008425D02*
X013159Y008425D01*
X013159Y008523D02*
X016517Y008523D01*
X016402Y008622D02*
X013159Y008622D01*
X013159Y008720D02*
X016351Y008720D01*
X016328Y008819D02*
X013159Y008819D01*
X013159Y008917D02*
X016328Y008917D01*
X016328Y009016D02*
X013159Y009016D01*
X013159Y009114D02*
X016328Y009114D01*
X016328Y009213D02*
X013231Y009213D01*
X013268Y009311D02*
X013873Y009311D01*
X013787Y009410D02*
X013268Y009410D01*
X013233Y009508D02*
X013750Y009508D01*
X013750Y009607D02*
X013152Y009607D01*
X012959Y009363D02*
X012959Y007763D01*
X014559Y009804D02*
X025800Y009804D01*
X025496Y009508D02*
X019002Y009508D01*
X019048Y009410D02*
X025475Y009410D01*
X025475Y009311D02*
X019068Y009311D01*
X019068Y009213D02*
X025503Y009213D01*
X025544Y009114D02*
X025671Y008987D01*
X025641Y008720D02*
X019045Y008720D01*
X018994Y008622D02*
X025543Y008622D01*
X025502Y008523D02*
X018879Y008523D01*
X018517Y008523D02*
X016879Y008523D01*
X016994Y008622D02*
X018402Y008622D01*
X018351Y008720D02*
X017045Y008720D01*
X017068Y008819D02*
X018328Y008819D01*
X018328Y008917D02*
X017068Y008917D01*
X017068Y009016D02*
X018328Y009016D01*
X018328Y009114D02*
X017068Y009114D01*
X017068Y009213D02*
X018328Y009213D01*
X018328Y009311D02*
X017068Y009311D01*
X017048Y009410D02*
X018348Y009410D01*
X018394Y009508D02*
X017002Y009508D01*
X016897Y009607D02*
X018499Y009607D01*
X025260Y011281D02*
X025475Y011281D01*
X025475Y011380D02*
X025358Y011380D01*
X025457Y011478D02*
X025484Y011478D01*
X026741Y011971D02*
X027309Y011971D01*
X027309Y012069D02*
X026863Y012069D01*
X026929Y012168D02*
X027309Y012168D01*
X027309Y012266D02*
X026970Y012266D01*
X026975Y012365D02*
X027309Y012365D01*
X027309Y012463D02*
X026973Y012463D01*
X026933Y012562D02*
X027309Y012562D01*
X027309Y012660D02*
X026870Y012660D01*
X026759Y012759D02*
X027309Y012759D01*
X027309Y010690D02*
X026840Y010690D01*
X026920Y010592D02*
X027309Y010592D01*
X027309Y010493D02*
X026961Y010493D01*
X026975Y010395D02*
X027309Y010395D01*
X027309Y010296D02*
X026975Y010296D01*
X026942Y010198D02*
X027309Y010198D01*
X027309Y010099D02*
X026893Y010099D01*
X026794Y010001D02*
X027309Y010001D01*
X022169Y015615D02*
X022094Y015615D01*
X021859Y016108D02*
X019596Y016108D01*
X019498Y016206D02*
X021919Y016206D01*
X022018Y016305D02*
X019399Y016305D01*
X019301Y016403D02*
X022116Y016403D01*
X004609Y014532D02*
X002881Y014532D01*
X002980Y014630D02*
X004538Y014630D01*
X004439Y014729D02*
X003078Y014729D01*
X002758Y014433D02*
X004609Y014433D01*
X004609Y014335D02*
X002419Y014335D01*
X002233Y014236D02*
X004609Y014236D01*
X004609Y014138D02*
X000609Y014138D01*
X000609Y014236D02*
X001485Y014236D01*
X001493Y014093D02*
X001335Y014027D01*
X001214Y013906D01*
X001149Y013748D01*
X001149Y013577D01*
X001214Y013419D01*
X001335Y013298D01*
X001493Y013233D01*
X002224Y013233D01*
X002382Y013298D01*
X002503Y013419D01*
X002569Y013577D01*
X002569Y013748D01*
X002503Y013906D01*
X002382Y014027D01*
X002224Y014093D01*
X001493Y014093D01*
X001364Y014039D02*
X000609Y014039D01*
X000609Y013941D02*
X001249Y013941D01*
X001188Y013842D02*
X000609Y013842D01*
X000609Y013744D02*
X001149Y013744D01*
X001149Y013645D02*
X000609Y013645D01*
X000609Y013547D02*
X001161Y013547D01*
X001202Y013448D02*
X000609Y013448D01*
X000609Y013350D02*
X001283Y013350D01*
X001448Y013251D02*
X000609Y013251D01*
X000609Y013153D02*
X004609Y013153D01*
X004609Y013251D02*
X002269Y013251D01*
X002434Y013350D02*
X004609Y013350D01*
X004609Y013448D02*
X002515Y013448D01*
X002556Y013547D02*
X004609Y013547D01*
X004609Y013645D02*
X002569Y013645D01*
X002569Y013744D02*
X004609Y013744D01*
X004609Y013842D02*
X002530Y013842D01*
X002469Y013941D02*
X004609Y013941D01*
X004609Y014039D02*
X002353Y014039D01*
X002484Y014926D02*
X002568Y014926D01*
X002667Y015024D02*
X002385Y015024D01*
X002765Y015123D02*
X000609Y015123D01*
X000609Y015221D02*
X002864Y015221D01*
X001332Y015024D02*
X000609Y015024D01*
X000609Y014926D02*
X001234Y014926D01*
X001181Y014827D02*
X000609Y014827D01*
X000609Y014729D02*
X001149Y014729D01*
X001149Y014630D02*
X000609Y014630D01*
X000609Y014532D02*
X001167Y014532D01*
X001208Y014433D02*
X000609Y014433D01*
X000609Y014335D02*
X001298Y014335D01*
X001313Y015320D02*
X000609Y015320D01*
X000609Y015418D02*
X001215Y015418D01*
X001174Y015517D02*
X000609Y015517D01*
X000609Y015615D02*
X001149Y015615D01*
X001149Y015714D02*
X000609Y015714D01*
X000609Y015812D02*
X001175Y015812D01*
X001219Y015911D02*
X000609Y015911D01*
X000609Y016009D02*
X001317Y016009D01*
X000609Y017881D02*
X002083Y017881D01*
X002015Y017979D02*
X000609Y017979D01*
X000609Y018078D02*
X001983Y018078D01*
X001983Y018176D02*
X000609Y018176D01*
X000609Y018275D02*
X002016Y018275D01*
X002088Y018373D02*
X000609Y018373D01*
X000609Y013054D02*
X004609Y013054D01*
X004609Y012956D02*
X000609Y012956D01*
X000609Y012857D02*
X004609Y012857D01*
X004609Y012759D02*
X000609Y012759D01*
X000609Y012660D02*
X004609Y012660D01*
X004609Y012562D02*
X000609Y012562D01*
X000609Y012463D02*
X004609Y012463D01*
X004609Y012365D02*
X000609Y012365D01*
X000609Y012266D02*
X004609Y012266D01*
X004609Y012168D02*
X000609Y012168D01*
X000609Y012069D02*
X004609Y012069D01*
X004609Y011971D02*
X000609Y011971D01*
X000609Y011872D02*
X004609Y011872D01*
X004609Y011774D02*
X000609Y011774D01*
X000609Y011675D02*
X004609Y011675D01*
X004609Y011577D02*
X000609Y011577D01*
X000609Y011478D02*
X004609Y011478D01*
X004609Y011380D02*
X000609Y011380D01*
X000609Y011281D02*
X004609Y011281D01*
X004609Y011183D02*
X000609Y011183D01*
X000609Y011084D02*
X004609Y011084D01*
X004609Y010986D02*
X000609Y010986D01*
X000609Y010887D02*
X004609Y010887D01*
X004609Y010789D02*
X000609Y010789D01*
X000609Y010690D02*
X004609Y010690D01*
X004609Y010592D02*
X000609Y010592D01*
X000609Y010493D02*
X004609Y010493D01*
X004609Y010395D02*
X000609Y010395D01*
X000609Y010296D02*
X004609Y010296D01*
X004609Y010198D02*
X000609Y010198D01*
X000609Y010099D02*
X004609Y010099D01*
X004609Y010001D02*
X000609Y010001D01*
X017741Y002022D02*
X019160Y002022D01*
X019073Y001924D02*
X017839Y001924D01*
X017880Y001825D02*
X019032Y001825D01*
X019012Y001727D02*
X017908Y001727D01*
X017908Y001628D02*
X019012Y001628D01*
X019012Y001530D02*
X017908Y001530D01*
X017908Y001431D02*
X019012Y001431D01*
X019012Y001333D02*
X017908Y001333D01*
X017908Y001234D02*
X019012Y001234D01*
X019012Y001136D02*
X017908Y001136D01*
X017908Y001037D02*
X019012Y001037D01*
X019038Y000939D02*
X017891Y000939D01*
X017850Y000840D02*
X019078Y000840D01*
X019173Y000742D02*
X017767Y000742D01*
X019752Y000742D02*
X020173Y000742D01*
X020078Y000840D02*
X019847Y000840D01*
X019887Y000939D02*
X020038Y000939D01*
X020012Y001037D02*
X019912Y001037D01*
X019912Y001136D02*
X020012Y001136D01*
X020012Y001234D02*
X019912Y001234D01*
X019912Y001333D02*
X020012Y001333D01*
X020012Y001431D02*
X019912Y001431D01*
X019912Y001530D02*
X020012Y001530D01*
X020012Y001628D02*
X019912Y001628D01*
X019912Y001727D02*
X020012Y001727D01*
X020032Y001825D02*
X019893Y001825D01*
X019852Y001924D02*
X020073Y001924D01*
X020160Y002022D02*
X019765Y002022D01*
X020765Y002022D02*
X021160Y002022D01*
X021073Y001924D02*
X020852Y001924D01*
X020893Y001825D02*
X021032Y001825D01*
X021012Y001727D02*
X020912Y001727D01*
X020912Y001628D02*
X021012Y001628D01*
X021012Y001530D02*
X020912Y001530D01*
X020912Y001431D02*
X021012Y001431D01*
X021012Y001333D02*
X020912Y001333D01*
X020912Y001234D02*
X021012Y001234D01*
X021012Y001136D02*
X020912Y001136D01*
X020912Y001037D02*
X021012Y001037D01*
X021038Y000939D02*
X020887Y000939D01*
X020847Y000840D02*
X021078Y000840D01*
X021173Y000742D02*
X020752Y000742D01*
X021752Y000742D02*
X022173Y000742D01*
X022078Y000840D02*
X021847Y000840D01*
X021887Y000939D02*
X022038Y000939D01*
X022012Y001037D02*
X021912Y001037D01*
X021912Y001136D02*
X022012Y001136D01*
X022012Y001234D02*
X021912Y001234D01*
X021912Y001333D02*
X022012Y001333D01*
X022012Y001431D02*
X021912Y001431D01*
X021912Y001530D02*
X022012Y001530D01*
X022012Y001628D02*
X021912Y001628D01*
X021912Y001727D02*
X022012Y001727D01*
X022032Y001825D02*
X021893Y001825D01*
X021852Y001924D02*
X022073Y001924D01*
X022160Y002022D02*
X021765Y002022D01*
X022765Y002022D02*
X023160Y002022D01*
X023073Y001924D02*
X022852Y001924D01*
X022893Y001825D02*
X023032Y001825D01*
X023012Y001727D02*
X022912Y001727D01*
X022912Y001628D02*
X023012Y001628D01*
X023012Y001530D02*
X022912Y001530D01*
X022912Y001431D02*
X023012Y001431D01*
X023012Y001333D02*
X022912Y001333D01*
X022912Y001234D02*
X023012Y001234D01*
X023012Y001136D02*
X022912Y001136D01*
X022912Y001037D02*
X023012Y001037D01*
X023038Y000939D02*
X022887Y000939D01*
X022847Y000840D02*
X023078Y000840D01*
X023173Y000742D02*
X022752Y000742D01*
X023752Y000742D02*
X024173Y000742D01*
X024078Y000840D02*
X023847Y000840D01*
X023887Y000939D02*
X024038Y000939D01*
X024012Y001037D02*
X023912Y001037D01*
X023912Y001136D02*
X024012Y001136D01*
X024012Y001234D02*
X023912Y001234D01*
X023912Y001333D02*
X024012Y001333D01*
X024012Y001431D02*
X023912Y001431D01*
X023912Y001530D02*
X024012Y001530D01*
X024012Y001628D02*
X023912Y001628D01*
X023912Y001727D02*
X024012Y001727D01*
X024032Y001825D02*
X023893Y001825D01*
X023852Y001924D02*
X024073Y001924D01*
X024160Y002022D02*
X023765Y002022D01*
X024765Y002022D02*
X027006Y002022D01*
X026907Y001924D02*
X024852Y001924D01*
X024893Y001825D02*
X026809Y001825D01*
X026710Y001727D02*
X024912Y001727D01*
X024912Y001628D02*
X026612Y001628D01*
X026513Y001530D02*
X024912Y001530D01*
X024912Y001431D02*
X026415Y001431D01*
X026409Y001333D02*
X024912Y001333D01*
X024912Y001234D02*
X026409Y001234D01*
X026409Y001136D02*
X024912Y001136D01*
X024912Y001037D02*
X026409Y001037D01*
X026409Y000939D02*
X024887Y000939D01*
X024847Y000840D02*
X026409Y000840D01*
X026409Y000742D02*
X024752Y000742D01*
D17*
X014458Y001369D02*
X014458Y001963D01*
X013959Y002463D01*
X012759Y002463D01*
X012559Y002663D01*
X012559Y002963D01*
X011459Y004063D01*
X009359Y004063D01*
X009109Y004313D01*
X008759Y004663D01*
X008759Y006663D01*
X008159Y007263D01*
X005359Y007263D01*
X004859Y007763D01*
X004859Y014663D01*
X004459Y015063D01*
X003059Y015063D01*
X002659Y014663D01*
X001859Y014663D01*
X011859Y005163D02*
X011859Y004863D01*
X012559Y004163D01*
X012559Y002963D01*
M02*
