%
M48
M72
T01C0.0118
T02C0.0240
T03C0.0360
T04C0.0394
T05C0.0400
%
T01
X13159Y16563
X21259Y14663
X6959Y2363
X1059Y9863
X14059Y4763
X13059Y4763
X14859Y4263
X15759Y6763
X11859Y5163
X8759Y3963
X12959Y7763
X12959Y9363
X14059Y9563
X18659Y14063
X4959Y19263
X18459Y14563
X5359Y18963
X20359Y11863
X19659Y11763
X19059Y12063
X20459Y18563
X19159Y12663
X18859Y12963
X18659Y13363
X21759Y15763
X22359Y15863
X14959Y16163
X14759Y16563
X9159Y2663
T02
X18698Y9069
X16698Y9069
T03
X1859Y13663
X1859Y14663
X1859Y15663
T04
X2330Y19857
X2330Y18125
T05
X18462Y20377
X19462Y20377
X20462Y20377
X21462Y20377
X22462Y20377
X23462Y20377
X24462Y20377
X25462Y20377
X7829Y20377
X8829Y20377
X9829Y20377
X10829Y20377
X11829Y20377
X12829Y20377
X13829Y20377
X14829Y20377
X15829Y20377
X16829Y20377
X24462Y1389
X23462Y1389
X22462Y1389
X21462Y1389
X20462Y1389
X19462Y1389
X26225Y12368
X26225Y11368
X26225Y10368
X26225Y9368
X26225Y8368
X26225Y7368
X26225Y6368
X26225Y5368
X10458Y1369
X11458Y1369
X12458Y1369
X13458Y1369
X14458Y1369
X15458Y1369
X16458Y1369
X17458Y1369
M30
