G75*
%MOIN*%
%OFA0B0*%
%FSLAX24Y24*%
%IPPOS*%
%LPD*%
%AMOC8*
5,1,8,0,0,1.08239X$1,22.5*
%
%ADD10C,0.0000*%
%ADD11R,0.0197X0.0591*%
%ADD12R,0.0591X0.0197*%
%ADD13R,0.0394X0.0433*%
%ADD14R,0.0315X0.0315*%
%ADD15R,0.0433X0.0394*%
%ADD16R,0.0945X0.0787*%
%ADD17R,0.0909X0.0197*%
%ADD18R,0.2283X0.2441*%
%ADD19R,0.0630X0.1181*%
%ADD20R,0.1260X0.0472*%
%ADD21R,0.0787X0.0591*%
%ADD22R,0.0591X0.0787*%
%ADD23R,0.0413X0.0425*%
%ADD24R,0.0374X0.0177*%
%ADD25R,0.0669X0.1063*%
%ADD26R,0.0512X0.1063*%
D10*
X000459Y000363D02*
X000459Y021363D01*
X025859Y021363D01*
X026459Y020763D01*
X026459Y016263D01*
X027459Y015263D01*
X027459Y002263D01*
X026559Y001363D01*
X026559Y000363D01*
X000459Y000363D01*
X002133Y018125D02*
X002135Y018152D01*
X002141Y018179D01*
X002150Y018205D01*
X002163Y018229D01*
X002179Y018252D01*
X002198Y018271D01*
X002220Y018288D01*
X002244Y018302D01*
X002269Y018312D01*
X002296Y018319D01*
X002323Y018322D01*
X002351Y018321D01*
X002378Y018316D01*
X002404Y018308D01*
X002428Y018296D01*
X002451Y018280D01*
X002472Y018262D01*
X002489Y018241D01*
X002504Y018217D01*
X002515Y018192D01*
X002523Y018166D01*
X002527Y018139D01*
X002527Y018111D01*
X002523Y018084D01*
X002515Y018058D01*
X002504Y018033D01*
X002489Y018009D01*
X002472Y017988D01*
X002451Y017970D01*
X002429Y017954D01*
X002404Y017942D01*
X002378Y017934D01*
X002351Y017929D01*
X002323Y017928D01*
X002296Y017931D01*
X002269Y017938D01*
X002244Y017948D01*
X002220Y017962D01*
X002198Y017979D01*
X002179Y017998D01*
X002163Y018021D01*
X002150Y018045D01*
X002141Y018071D01*
X002135Y018098D01*
X002133Y018125D01*
X002133Y019857D02*
X002135Y019884D01*
X002141Y019911D01*
X002150Y019937D01*
X002163Y019961D01*
X002179Y019984D01*
X002198Y020003D01*
X002220Y020020D01*
X002244Y020034D01*
X002269Y020044D01*
X002296Y020051D01*
X002323Y020054D01*
X002351Y020053D01*
X002378Y020048D01*
X002404Y020040D01*
X002428Y020028D01*
X002451Y020012D01*
X002472Y019994D01*
X002489Y019973D01*
X002504Y019949D01*
X002515Y019924D01*
X002523Y019898D01*
X002527Y019871D01*
X002527Y019843D01*
X002523Y019816D01*
X002515Y019790D01*
X002504Y019765D01*
X002489Y019741D01*
X002472Y019720D01*
X002451Y019702D01*
X002429Y019686D01*
X002404Y019674D01*
X002378Y019666D01*
X002351Y019661D01*
X002323Y019660D01*
X002296Y019663D01*
X002269Y019670D01*
X002244Y019680D01*
X002220Y019694D01*
X002198Y019711D01*
X002179Y019730D01*
X002163Y019753D01*
X002150Y019777D01*
X002141Y019803D01*
X002135Y019830D01*
X002133Y019857D01*
D11*
X013968Y015349D03*
X014283Y015349D03*
X014598Y015349D03*
X014913Y015349D03*
X015228Y015349D03*
X015543Y015349D03*
X015858Y015349D03*
X016173Y015349D03*
X016488Y015349D03*
X016803Y015349D03*
X017118Y015349D03*
X017118Y010782D03*
X016803Y010782D03*
X016488Y010782D03*
X016173Y010782D03*
X015858Y010782D03*
X015543Y010782D03*
X015228Y010782D03*
X014913Y010782D03*
X014598Y010782D03*
X014283Y010782D03*
X013968Y010782D03*
D12*
X013259Y011490D03*
X013259Y011805D03*
X013259Y012120D03*
X013259Y012435D03*
X013259Y012750D03*
X013259Y013065D03*
X013259Y013380D03*
X013259Y013695D03*
X013259Y014010D03*
X013259Y014325D03*
X013259Y014640D03*
X017826Y014640D03*
X017826Y014325D03*
X017826Y014010D03*
X017826Y013695D03*
X017826Y013380D03*
X017826Y013065D03*
X017826Y012750D03*
X017826Y012435D03*
X017826Y012120D03*
X017826Y011805D03*
X017826Y011490D03*
D13*
X013509Y010264D03*
X012840Y010264D03*
X010415Y005861D03*
X009746Y005861D03*
X008093Y003463D03*
X007424Y003463D03*
X007424Y002363D03*
X008093Y002363D03*
X006378Y002253D03*
X005708Y002253D03*
D14*
X009789Y007326D03*
X010380Y007326D03*
X011199Y007307D03*
X011789Y007307D03*
D15*
X011856Y005775D03*
X011187Y005775D03*
X013741Y003533D03*
X014410Y003533D03*
X016676Y007395D03*
X017346Y007395D03*
G36*
X018447Y007612D02*
X018878Y007615D01*
X018881Y007222D01*
X018450Y007219D01*
X018447Y007612D01*
G37*
G36*
X019117Y007617D02*
X019548Y007620D01*
X019551Y007227D01*
X019120Y007224D01*
X019117Y007617D01*
G37*
X020149Y012454D03*
X020818Y012454D03*
X010859Y013028D03*
X010859Y013697D03*
X009959Y013697D03*
X009959Y013028D03*
X009059Y013028D03*
X009059Y013697D03*
D16*
X003314Y017258D03*
X001149Y017258D03*
X001149Y020723D03*
X003314Y020723D03*
D17*
X003536Y019621D03*
X003536Y019306D03*
X003536Y018991D03*
X003536Y018676D03*
X003536Y018361D03*
D18*
X002259Y007600D03*
D19*
X003156Y004773D03*
X001361Y004773D03*
D20*
X001620Y002850D03*
X001620Y001275D03*
X004297Y001275D03*
X004297Y002850D03*
D21*
X005955Y004554D03*
X005955Y005735D03*
D22*
X002949Y011563D03*
X001768Y011563D03*
D23*
X001714Y009963D03*
X002403Y009963D03*
D24*
X020929Y007622D03*
X020929Y007111D03*
X021796Y007111D03*
X021796Y007367D03*
X021796Y007622D03*
D25*
X010803Y009300D03*
X009244Y009300D03*
X009248Y011465D03*
X010803Y011465D03*
D26*
X010027Y011465D03*
X010023Y009300D03*
M02*
