G75*
%MOIN*%
%OFA0B0*%
%FSLAX24Y24*%
%IPPOS*%
%LPD*%
%AMOC8*
5,1,8,0,0,1.08239X$1,22.5*
%
%ADD10C,0.0000*%
%ADD11C,0.0520*%
%ADD12C,0.0474*%
%ADD13C,0.0640*%
%ADD14C,0.0680*%
%ADD15C,0.0001*%
%ADD16C,0.0398*%
D10*
X000459Y000363D02*
X000459Y021363D01*
X025859Y021363D01*
X026459Y020763D01*
X026459Y016263D01*
X027459Y015263D01*
X027459Y002263D01*
X026559Y001363D01*
X026559Y000363D01*
X000459Y000363D01*
X006330Y006346D02*
X007417Y006369D01*
X006306Y007480D01*
X006330Y006346D01*
X002133Y018125D02*
X002135Y018152D01*
X002141Y018179D01*
X002150Y018205D01*
X002163Y018229D01*
X002179Y018252D01*
X002198Y018271D01*
X002220Y018288D01*
X002244Y018302D01*
X002269Y018312D01*
X002296Y018319D01*
X002323Y018322D01*
X002351Y018321D01*
X002378Y018316D01*
X002404Y018308D01*
X002428Y018296D01*
X002451Y018280D01*
X002472Y018262D01*
X002489Y018241D01*
X002504Y018217D01*
X002515Y018192D01*
X002523Y018166D01*
X002527Y018139D01*
X002527Y018111D01*
X002523Y018084D01*
X002515Y018058D01*
X002504Y018033D01*
X002489Y018009D01*
X002472Y017988D01*
X002451Y017970D01*
X002429Y017954D01*
X002404Y017942D01*
X002378Y017934D01*
X002351Y017929D01*
X002323Y017928D01*
X002296Y017931D01*
X002269Y017938D01*
X002244Y017948D01*
X002220Y017962D01*
X002198Y017979D01*
X002179Y017998D01*
X002163Y018021D01*
X002150Y018045D01*
X002141Y018071D01*
X002135Y018098D01*
X002133Y018125D01*
X002133Y019857D02*
X002135Y019884D01*
X002141Y019911D01*
X002150Y019937D01*
X002163Y019961D01*
X002179Y019984D01*
X002198Y020003D01*
X002220Y020020D01*
X002244Y020034D01*
X002269Y020044D01*
X002296Y020051D01*
X002323Y020054D01*
X002351Y020053D01*
X002378Y020048D01*
X002404Y020040D01*
X002428Y020028D01*
X002451Y020012D01*
X002472Y019994D01*
X002489Y019973D01*
X002504Y019949D01*
X002515Y019924D01*
X002523Y019898D01*
X002527Y019871D01*
X002527Y019843D01*
X002523Y019816D01*
X002515Y019790D01*
X002504Y019765D01*
X002489Y019741D01*
X002472Y019720D01*
X002451Y019702D01*
X002429Y019686D01*
X002404Y019674D01*
X002378Y019666D01*
X002351Y019661D01*
X002323Y019660D01*
X002296Y019663D01*
X002269Y019670D01*
X002244Y019680D01*
X002220Y019694D01*
X002198Y019711D01*
X002179Y019730D01*
X002163Y019753D01*
X002150Y019777D01*
X002141Y019803D01*
X002135Y019830D01*
X002133Y019857D01*
D11*
X016698Y009289D02*
X016698Y008849D01*
X018698Y008849D02*
X018698Y009289D01*
D12*
X002330Y018125D03*
X002330Y019857D03*
D13*
X002139Y015663D02*
X001579Y015663D01*
X001579Y014663D02*
X002139Y014663D01*
X002139Y013663D02*
X001579Y013663D01*
D14*
X007829Y020077D02*
X007829Y020677D01*
X008829Y020677D02*
X008829Y020077D01*
X009829Y020077D02*
X009829Y020677D01*
X010829Y020677D02*
X010829Y020077D01*
X011829Y020077D02*
X011829Y020677D01*
X012829Y020677D02*
X012829Y020077D01*
X013829Y020077D02*
X013829Y020677D01*
X014829Y020677D02*
X014829Y020077D01*
X015829Y020077D02*
X015829Y020677D01*
X016829Y020677D02*
X016829Y020077D01*
X018462Y020077D02*
X018462Y020677D01*
X019462Y020677D02*
X019462Y020077D01*
X020462Y020077D02*
X020462Y020677D01*
X021462Y020677D02*
X021462Y020077D01*
X022462Y020077D02*
X022462Y020677D01*
X023462Y020677D02*
X023462Y020077D01*
X024462Y020077D02*
X024462Y020677D01*
X025462Y020677D02*
X025462Y020077D01*
X025925Y012368D02*
X026525Y012368D01*
X026525Y011368D02*
X025925Y011368D01*
X025925Y010368D02*
X026525Y010368D01*
X026525Y009368D02*
X025925Y009368D01*
X025925Y008368D02*
X026525Y008368D01*
X026525Y007368D02*
X025925Y007368D01*
X025925Y006368D02*
X026525Y006368D01*
X026525Y005368D02*
X025925Y005368D01*
X024462Y001689D02*
X024462Y001089D01*
X023462Y001089D02*
X023462Y001689D01*
X022462Y001689D02*
X022462Y001089D01*
X021462Y001089D02*
X021462Y001689D01*
X020462Y001689D02*
X020462Y001089D01*
X019462Y001089D02*
X019462Y001689D01*
X017458Y001669D02*
X017458Y001069D01*
X016458Y001069D02*
X016458Y001669D01*
X015458Y001669D02*
X015458Y001069D01*
X014458Y001069D02*
X014458Y001669D01*
X013458Y001669D02*
X013458Y001069D01*
X012458Y001069D02*
X012458Y001669D01*
X011458Y001669D02*
X011458Y001069D01*
X010458Y001069D02*
X010458Y001669D01*
D15*
X007416Y006370D02*
X006329Y006370D01*
X006329Y006371D02*
X007415Y006371D01*
X007414Y006372D02*
X006329Y006372D01*
X006329Y006373D02*
X007413Y006373D01*
X007412Y006374D02*
X006329Y006374D01*
X006329Y006375D02*
X007411Y006375D01*
X007410Y006376D02*
X006329Y006376D01*
X006329Y006377D02*
X007409Y006377D01*
X007408Y006378D02*
X006329Y006378D01*
X006329Y006379D02*
X007407Y006379D01*
X007406Y006380D02*
X006329Y006380D01*
X006329Y006381D02*
X007405Y006381D01*
X007404Y006382D02*
X006329Y006382D01*
X006329Y006383D02*
X007403Y006383D01*
X007402Y006384D02*
X006329Y006384D01*
X006329Y006385D02*
X007401Y006385D01*
X007400Y006386D02*
X006329Y006386D01*
X006329Y006387D02*
X007399Y006387D01*
X007398Y006388D02*
X006329Y006388D01*
X006329Y006389D02*
X007397Y006389D01*
X007396Y006390D02*
X006329Y006390D01*
X006329Y006391D02*
X007395Y006391D01*
X007394Y006392D02*
X006329Y006392D01*
X006329Y006393D02*
X007393Y006393D01*
X007392Y006394D02*
X006329Y006394D01*
X006329Y006395D02*
X007391Y006395D01*
X007390Y006396D02*
X006329Y006396D01*
X006329Y006397D02*
X007389Y006397D01*
X007388Y006398D02*
X006329Y006398D01*
X006329Y006399D02*
X007387Y006399D01*
X007386Y006400D02*
X006328Y006400D01*
X006328Y006401D02*
X007385Y006401D01*
X007384Y006402D02*
X006328Y006402D01*
X006328Y006403D02*
X007383Y006403D01*
X007382Y006404D02*
X006328Y006404D01*
X006328Y006405D02*
X007381Y006405D01*
X007380Y006406D02*
X006328Y006406D01*
X006328Y006407D02*
X007379Y006407D01*
X007379Y006408D02*
X006328Y006408D01*
X006328Y006409D02*
X007378Y006409D01*
X007377Y006410D02*
X006328Y006410D01*
X006328Y006411D02*
X007376Y006411D01*
X007375Y006412D02*
X006328Y006412D01*
X006328Y006413D02*
X007374Y006413D01*
X007373Y006414D02*
X006328Y006414D01*
X006328Y006415D02*
X007372Y006415D01*
X007371Y006416D02*
X006328Y006416D01*
X006328Y006417D02*
X007370Y006417D01*
X007369Y006418D02*
X006328Y006418D01*
X006328Y006419D02*
X007368Y006419D01*
X007367Y006420D02*
X006328Y006420D01*
X006328Y006421D02*
X007366Y006421D01*
X007365Y006422D02*
X006328Y006422D01*
X006328Y006423D02*
X007364Y006423D01*
X007363Y006424D02*
X006328Y006424D01*
X006328Y006425D02*
X007362Y006425D01*
X007361Y006426D02*
X006328Y006426D01*
X006328Y006427D02*
X007360Y006427D01*
X007359Y006428D02*
X006328Y006428D01*
X006328Y006429D02*
X007358Y006429D01*
X007357Y006430D02*
X006328Y006430D01*
X006328Y006431D02*
X007356Y006431D01*
X007355Y006432D02*
X006328Y006432D01*
X006328Y006433D02*
X007354Y006433D01*
X007353Y006434D02*
X006328Y006434D01*
X006328Y006435D02*
X007352Y006435D01*
X007351Y006436D02*
X006328Y006436D01*
X006328Y006437D02*
X007350Y006437D01*
X007349Y006438D02*
X006328Y006438D01*
X006328Y006439D02*
X007348Y006439D01*
X007347Y006440D02*
X006328Y006440D01*
X006328Y006441D02*
X007346Y006441D01*
X007345Y006442D02*
X006328Y006442D01*
X006328Y006443D02*
X007344Y006443D01*
X007343Y006444D02*
X006328Y006444D01*
X006328Y006445D02*
X007342Y006445D01*
X007341Y006446D02*
X006328Y006446D01*
X006328Y006447D02*
X007340Y006447D01*
X007339Y006448D02*
X006327Y006448D01*
X006327Y006449D02*
X007338Y006449D01*
X007337Y006450D02*
X006327Y006450D01*
X006327Y006451D02*
X007336Y006451D01*
X007335Y006452D02*
X006327Y006452D01*
X006327Y006453D02*
X007334Y006453D01*
X007333Y006454D02*
X006327Y006454D01*
X006327Y006455D02*
X007332Y006455D01*
X007331Y006456D02*
X006327Y006456D01*
X006327Y006457D02*
X007330Y006457D01*
X007329Y006458D02*
X006327Y006458D01*
X006327Y006459D02*
X007328Y006459D01*
X007327Y006460D02*
X006327Y006460D01*
X006327Y006461D02*
X007326Y006461D01*
X007325Y006462D02*
X006327Y006462D01*
X006327Y006463D02*
X007324Y006463D01*
X007323Y006464D02*
X006327Y006464D01*
X006327Y006465D02*
X007322Y006465D01*
X007321Y006466D02*
X006327Y006466D01*
X006327Y006467D02*
X007320Y006467D01*
X007319Y006468D02*
X006327Y006468D01*
X006327Y006469D02*
X007318Y006469D01*
X007317Y006470D02*
X006327Y006470D01*
X006327Y006471D02*
X007316Y006471D01*
X007315Y006472D02*
X006327Y006472D01*
X006327Y006473D02*
X007314Y006473D01*
X007313Y006474D02*
X006327Y006474D01*
X006327Y006475D02*
X007312Y006475D01*
X007311Y006476D02*
X006327Y006476D01*
X006327Y006477D02*
X007310Y006477D01*
X007309Y006478D02*
X006327Y006478D01*
X006327Y006479D02*
X007308Y006479D01*
X007307Y006480D02*
X006327Y006480D01*
X006327Y006481D02*
X007306Y006481D01*
X007305Y006482D02*
X006327Y006482D01*
X006327Y006483D02*
X007304Y006483D01*
X007303Y006484D02*
X006327Y006484D01*
X006327Y006485D02*
X007302Y006485D01*
X007301Y006486D02*
X006327Y006486D01*
X006327Y006487D02*
X007300Y006487D01*
X007299Y006488D02*
X006327Y006488D01*
X006327Y006489D02*
X007298Y006489D01*
X007297Y006490D02*
X006327Y006490D01*
X006327Y006491D02*
X007296Y006491D01*
X007295Y006492D02*
X006327Y006492D01*
X006327Y006493D02*
X007294Y006493D01*
X007293Y006494D02*
X006327Y006494D01*
X006327Y006495D02*
X007292Y006495D01*
X007291Y006496D02*
X006326Y006496D01*
X006326Y006497D02*
X007290Y006497D01*
X007289Y006498D02*
X006326Y006498D01*
X006326Y006499D02*
X007288Y006499D01*
X007287Y006500D02*
X006326Y006500D01*
X006326Y006501D02*
X007286Y006501D01*
X007285Y006502D02*
X006326Y006502D01*
X006326Y006503D02*
X007284Y006503D01*
X007283Y006504D02*
X006326Y006504D01*
X006326Y006505D02*
X007282Y006505D01*
X007281Y006506D02*
X006326Y006506D01*
X006326Y006507D02*
X007280Y006507D01*
X007279Y006508D02*
X006326Y006508D01*
X006326Y006509D02*
X007278Y006509D01*
X007277Y006510D02*
X006326Y006510D01*
X006326Y006511D02*
X007276Y006511D01*
X007275Y006512D02*
X006326Y006512D01*
X006326Y006513D02*
X007274Y006513D01*
X007273Y006514D02*
X006326Y006514D01*
X006326Y006515D02*
X007272Y006515D01*
X007271Y006516D02*
X006326Y006516D01*
X006326Y006517D02*
X007270Y006517D01*
X007269Y006518D02*
X006326Y006518D01*
X006326Y006519D02*
X007268Y006519D01*
X007267Y006520D02*
X006326Y006520D01*
X006326Y006521D02*
X007266Y006521D01*
X007265Y006522D02*
X006326Y006522D01*
X006326Y006523D02*
X007264Y006523D01*
X007263Y006524D02*
X006326Y006524D01*
X006326Y006525D02*
X007262Y006525D01*
X007261Y006526D02*
X006326Y006526D01*
X006326Y006527D02*
X007260Y006527D01*
X007259Y006528D02*
X006326Y006528D01*
X006326Y006529D02*
X007258Y006529D01*
X007257Y006530D02*
X006326Y006530D01*
X006326Y006531D02*
X007256Y006531D01*
X007255Y006532D02*
X006326Y006532D01*
X006326Y006533D02*
X007254Y006533D01*
X007253Y006534D02*
X006326Y006534D01*
X006326Y006535D02*
X007252Y006535D01*
X007251Y006536D02*
X006326Y006536D01*
X006326Y006537D02*
X007250Y006537D01*
X007249Y006538D02*
X006326Y006538D01*
X006326Y006539D02*
X007248Y006539D01*
X007247Y006540D02*
X006326Y006540D01*
X006326Y006541D02*
X007246Y006541D01*
X007245Y006542D02*
X006326Y006542D01*
X006326Y006543D02*
X007244Y006543D01*
X007243Y006544D02*
X006326Y006544D01*
X006325Y006545D02*
X007242Y006545D01*
X007241Y006546D02*
X006325Y006546D01*
X006325Y006547D02*
X007240Y006547D01*
X007239Y006548D02*
X006325Y006548D01*
X006325Y006549D02*
X007238Y006549D01*
X007237Y006550D02*
X006325Y006550D01*
X006325Y006551D02*
X007236Y006551D01*
X007235Y006552D02*
X006325Y006552D01*
X006325Y006553D02*
X007234Y006553D01*
X007233Y006554D02*
X006325Y006554D01*
X006325Y006555D02*
X007232Y006555D01*
X007231Y006556D02*
X006325Y006556D01*
X006325Y006557D02*
X007230Y006557D01*
X007229Y006558D02*
X006325Y006558D01*
X006325Y006559D02*
X007228Y006559D01*
X007227Y006560D02*
X006325Y006560D01*
X006325Y006561D02*
X007226Y006561D01*
X007225Y006562D02*
X006325Y006562D01*
X006325Y006563D02*
X007224Y006563D01*
X007223Y006564D02*
X006325Y006564D01*
X006325Y006565D02*
X007222Y006565D01*
X007221Y006566D02*
X006325Y006566D01*
X006325Y006567D02*
X007220Y006567D01*
X007219Y006568D02*
X006325Y006568D01*
X007218Y006568D01*
X007217Y006569D02*
X006325Y006569D01*
X006325Y006570D02*
X007216Y006570D01*
X007215Y006571D02*
X006325Y006571D01*
X006325Y006572D02*
X007214Y006572D01*
X007213Y006573D02*
X006325Y006573D01*
X006325Y006574D02*
X007212Y006574D01*
X007211Y006575D02*
X006325Y006575D01*
X006325Y006576D02*
X007210Y006576D01*
X007209Y006577D02*
X006325Y006577D01*
X006325Y006578D02*
X007208Y006578D01*
X007207Y006579D02*
X006325Y006579D01*
X006325Y006580D02*
X007206Y006580D01*
X007205Y006581D02*
X006325Y006581D01*
X006325Y006582D02*
X007204Y006582D01*
X007203Y006583D02*
X006325Y006583D01*
X006325Y006584D02*
X007202Y006584D01*
X007201Y006585D02*
X006325Y006585D01*
X006325Y006586D02*
X007200Y006586D01*
X007199Y006587D02*
X006325Y006587D01*
X006325Y006588D02*
X007198Y006588D01*
X007197Y006589D02*
X006325Y006589D01*
X006325Y006590D02*
X007196Y006590D01*
X007195Y006591D02*
X006325Y006591D01*
X006324Y006592D02*
X007194Y006592D01*
X007193Y006593D02*
X006324Y006593D01*
X006324Y006594D02*
X007192Y006594D01*
X007191Y006595D02*
X006324Y006595D01*
X006324Y006596D02*
X007190Y006596D01*
X007189Y006597D02*
X006324Y006597D01*
X006324Y006598D02*
X007188Y006598D01*
X007187Y006599D02*
X006324Y006599D01*
X006324Y006600D02*
X007186Y006600D01*
X007185Y006601D02*
X006324Y006601D01*
X006324Y006602D02*
X007184Y006602D01*
X007183Y006603D02*
X006324Y006603D01*
X006324Y006604D02*
X007182Y006604D01*
X007181Y006605D02*
X006324Y006605D01*
X006324Y006606D02*
X007180Y006606D01*
X007179Y006607D02*
X006324Y006607D01*
X006324Y006608D02*
X007178Y006608D01*
X007177Y006609D02*
X006324Y006609D01*
X006324Y006610D02*
X007176Y006610D01*
X007175Y006611D02*
X006324Y006611D01*
X006324Y006612D02*
X007174Y006612D01*
X007173Y006613D02*
X006324Y006613D01*
X006324Y006614D02*
X007172Y006614D01*
X007171Y006615D02*
X006324Y006615D01*
X006324Y006616D02*
X007170Y006616D01*
X007169Y006617D02*
X006324Y006617D01*
X006324Y006618D02*
X007168Y006618D01*
X007167Y006619D02*
X006324Y006619D01*
X006324Y006620D02*
X007166Y006620D01*
X007165Y006621D02*
X006324Y006621D01*
X006324Y006622D02*
X007164Y006622D01*
X007163Y006623D02*
X006324Y006623D01*
X006324Y006624D02*
X007162Y006624D01*
X007161Y006625D02*
X006324Y006625D01*
X006324Y006626D02*
X007160Y006626D01*
X007159Y006627D02*
X006324Y006627D01*
X006324Y006628D02*
X007158Y006628D01*
X007157Y006629D02*
X006324Y006629D01*
X006324Y006630D02*
X007156Y006630D01*
X007155Y006631D02*
X006324Y006631D01*
X006324Y006632D02*
X007154Y006632D01*
X007153Y006633D02*
X006324Y006633D01*
X006324Y006634D02*
X007152Y006634D01*
X007151Y006635D02*
X006324Y006635D01*
X006324Y006636D02*
X007150Y006636D01*
X007149Y006637D02*
X006324Y006637D01*
X006324Y006638D02*
X007148Y006638D01*
X007147Y006639D02*
X006324Y006639D01*
X006324Y006640D02*
X007146Y006640D01*
X007145Y006641D02*
X006323Y006641D01*
X006323Y006642D02*
X007144Y006642D01*
X007143Y006643D02*
X006323Y006643D01*
X006323Y006644D02*
X007142Y006644D01*
X007141Y006645D02*
X006323Y006645D01*
X006323Y006646D02*
X007140Y006646D01*
X007139Y006647D02*
X006323Y006647D01*
X006323Y006648D02*
X007138Y006648D01*
X007137Y006649D02*
X006323Y006649D01*
X006323Y006650D02*
X007136Y006650D01*
X007135Y006651D02*
X006323Y006651D01*
X006323Y006652D02*
X007134Y006652D01*
X007133Y006653D02*
X006323Y006653D01*
X006323Y006654D02*
X007132Y006654D01*
X007131Y006655D02*
X006323Y006655D01*
X006323Y006656D02*
X007130Y006656D01*
X007129Y006657D02*
X006323Y006657D01*
X006323Y006658D02*
X007128Y006658D01*
X007127Y006659D02*
X006323Y006659D01*
X006323Y006660D02*
X007126Y006660D01*
X007125Y006661D02*
X006323Y006661D01*
X006323Y006662D02*
X007124Y006662D01*
X007123Y006663D02*
X006323Y006663D01*
X006323Y006664D02*
X007122Y006664D01*
X007121Y006665D02*
X006323Y006665D01*
X006323Y006666D02*
X007120Y006666D01*
X007119Y006667D02*
X006323Y006667D01*
X006323Y006668D02*
X007118Y006668D01*
X007117Y006669D02*
X006323Y006669D01*
X006323Y006670D02*
X007116Y006670D01*
X007115Y006671D02*
X006323Y006671D01*
X006323Y006672D02*
X007114Y006672D01*
X007113Y006673D02*
X006323Y006673D01*
X006323Y006674D02*
X007112Y006674D01*
X007111Y006675D02*
X006323Y006675D01*
X006323Y006676D02*
X007110Y006676D01*
X007109Y006677D02*
X006323Y006677D01*
X006323Y006678D02*
X007108Y006678D01*
X007107Y006679D02*
X006323Y006679D01*
X006323Y006680D02*
X007106Y006680D01*
X007105Y006681D02*
X006323Y006681D01*
X006323Y006682D02*
X007104Y006682D01*
X007103Y006683D02*
X006323Y006683D01*
X006323Y006684D02*
X007102Y006684D01*
X007101Y006685D02*
X006323Y006685D01*
X006323Y006686D02*
X007100Y006686D01*
X007099Y006687D02*
X006323Y006687D01*
X006323Y006688D02*
X007098Y006688D01*
X007097Y006689D02*
X006322Y006689D01*
X006322Y006690D02*
X007096Y006690D01*
X007095Y006691D02*
X006322Y006691D01*
X006322Y006692D02*
X007094Y006692D01*
X007093Y006693D02*
X006322Y006693D01*
X006322Y006694D02*
X007092Y006694D01*
X007091Y006695D02*
X006322Y006695D01*
X006322Y006696D02*
X007090Y006696D01*
X007089Y006697D02*
X006322Y006697D01*
X006322Y006698D02*
X007088Y006698D01*
X007087Y006699D02*
X006322Y006699D01*
X006322Y006700D02*
X007086Y006700D01*
X007085Y006701D02*
X006322Y006701D01*
X006322Y006702D02*
X007084Y006702D01*
X007083Y006703D02*
X006322Y006703D01*
X006322Y006704D02*
X007082Y006704D01*
X007081Y006705D02*
X006322Y006705D01*
X006322Y006706D02*
X007080Y006706D01*
X007079Y006707D02*
X006322Y006707D01*
X006322Y006708D02*
X007078Y006708D01*
X007077Y006709D02*
X006322Y006709D01*
X006322Y006710D02*
X007076Y006710D01*
X007075Y006711D02*
X006322Y006711D01*
X006322Y006712D02*
X007074Y006712D01*
X007073Y006713D02*
X006322Y006713D01*
X006322Y006714D02*
X007072Y006714D01*
X007071Y006715D02*
X006322Y006715D01*
X006322Y006716D02*
X007070Y006716D01*
X007069Y006717D02*
X006322Y006717D01*
X006322Y006718D02*
X007068Y006718D01*
X007067Y006719D02*
X006322Y006719D01*
X006322Y006720D02*
X007066Y006720D01*
X007065Y006721D02*
X006322Y006721D01*
X006322Y006722D02*
X007064Y006722D01*
X007063Y006723D02*
X006322Y006723D01*
X006322Y006724D02*
X007062Y006724D01*
X007061Y006725D02*
X006322Y006725D01*
X006322Y006726D02*
X007060Y006726D01*
X007059Y006727D02*
X006322Y006727D01*
X006322Y006728D02*
X007058Y006728D01*
X007057Y006729D02*
X006322Y006729D01*
X006322Y006730D02*
X007056Y006730D01*
X007055Y006731D02*
X006322Y006731D01*
X006322Y006732D02*
X007054Y006732D01*
X007053Y006733D02*
X006322Y006733D01*
X006322Y006734D02*
X007052Y006734D01*
X007051Y006735D02*
X006322Y006735D01*
X006322Y006736D02*
X007050Y006736D01*
X007049Y006737D02*
X006321Y006737D01*
X006321Y006738D02*
X007048Y006738D01*
X007047Y006739D02*
X006321Y006739D01*
X006321Y006740D02*
X007046Y006740D01*
X007045Y006741D02*
X006321Y006741D01*
X006321Y006742D02*
X007044Y006742D01*
X007043Y006743D02*
X006321Y006743D01*
X006321Y006744D02*
X007042Y006744D01*
X007041Y006745D02*
X006321Y006745D01*
X006321Y006746D02*
X007040Y006746D01*
X007039Y006747D02*
X006321Y006747D01*
X006321Y006748D02*
X007038Y006748D01*
X007037Y006749D02*
X006321Y006749D01*
X006321Y006750D02*
X007036Y006750D01*
X007035Y006751D02*
X006321Y006751D01*
X006321Y006752D02*
X007034Y006752D01*
X007033Y006753D02*
X006321Y006753D01*
X006321Y006754D02*
X007032Y006754D01*
X007031Y006755D02*
X006321Y006755D01*
X006321Y006756D02*
X007030Y006756D01*
X007029Y006757D02*
X006321Y006757D01*
X006321Y006758D02*
X007028Y006758D01*
X007027Y006759D02*
X006321Y006759D01*
X006321Y006760D02*
X007026Y006760D01*
X007025Y006761D02*
X006321Y006761D01*
X006321Y006762D02*
X007024Y006762D01*
X007023Y006763D02*
X006321Y006763D01*
X006321Y006764D02*
X007022Y006764D01*
X007021Y006765D02*
X006321Y006765D01*
X006321Y006766D02*
X007020Y006766D01*
X007019Y006767D02*
X006321Y006767D01*
X006321Y006768D02*
X007018Y006768D01*
X007017Y006769D02*
X006321Y006769D01*
X006321Y006770D02*
X007016Y006770D01*
X007015Y006771D02*
X006321Y006771D01*
X006321Y006772D02*
X007014Y006772D01*
X007013Y006773D02*
X006321Y006773D01*
X006321Y006774D02*
X007012Y006774D01*
X007011Y006775D02*
X006321Y006775D01*
X006321Y006776D02*
X007010Y006776D01*
X007009Y006777D02*
X006321Y006777D01*
X006321Y006778D02*
X007008Y006778D01*
X007007Y006779D02*
X006321Y006779D01*
X006321Y006780D02*
X007006Y006780D01*
X007005Y006781D02*
X006321Y006781D01*
X006321Y006782D02*
X007004Y006782D01*
X007003Y006783D02*
X006321Y006783D01*
X006321Y006784D02*
X007002Y006784D01*
X007001Y006785D02*
X006321Y006785D01*
X006320Y006786D02*
X007000Y006786D01*
X006999Y006787D02*
X006320Y006787D01*
X006320Y006788D02*
X006998Y006788D01*
X006997Y006789D02*
X006320Y006789D01*
X006320Y006790D02*
X006996Y006790D01*
X006995Y006791D02*
X006320Y006791D01*
X006320Y006792D02*
X006994Y006792D01*
X006993Y006793D02*
X006320Y006793D01*
X006320Y006794D02*
X006992Y006794D01*
X006991Y006795D02*
X006320Y006795D01*
X006320Y006796D02*
X006990Y006796D01*
X006989Y006797D02*
X006320Y006797D01*
X006320Y006798D02*
X006988Y006798D01*
X006987Y006799D02*
X006320Y006799D01*
X006320Y006800D02*
X006986Y006800D01*
X006985Y006801D02*
X006320Y006801D01*
X006320Y006802D02*
X006984Y006802D01*
X006983Y006803D02*
X006320Y006803D01*
X006320Y006804D02*
X006982Y006804D01*
X006981Y006805D02*
X006320Y006805D01*
X006320Y006806D02*
X006980Y006806D01*
X006979Y006807D02*
X006320Y006807D01*
X006320Y006808D02*
X006978Y006808D01*
X006977Y006809D02*
X006320Y006809D01*
X006320Y006810D02*
X006976Y006810D01*
X006975Y006811D02*
X006320Y006811D01*
X006320Y006812D02*
X006974Y006812D01*
X006973Y006813D02*
X006320Y006813D01*
X006320Y006814D02*
X006972Y006814D01*
X006971Y006815D02*
X006320Y006815D01*
X006320Y006816D02*
X006970Y006816D01*
X006969Y006817D02*
X006320Y006817D01*
X006320Y006818D02*
X006968Y006818D01*
X006967Y006819D02*
X006320Y006819D01*
X006320Y006820D02*
X006966Y006820D01*
X006965Y006821D02*
X006320Y006821D01*
X006320Y006822D02*
X006964Y006822D01*
X006963Y006823D02*
X006320Y006823D01*
X006320Y006824D02*
X006962Y006824D01*
X006961Y006825D02*
X006320Y006825D01*
X006320Y006826D02*
X006960Y006826D01*
X006959Y006827D02*
X006320Y006827D01*
X006320Y006828D02*
X006958Y006828D01*
X006957Y006829D02*
X006320Y006829D01*
X006320Y006830D02*
X006956Y006830D01*
X006955Y006831D02*
X006320Y006831D01*
X006320Y006832D02*
X006954Y006832D01*
X006953Y006833D02*
X006320Y006833D01*
X006319Y006834D02*
X006952Y006834D01*
X006951Y006835D02*
X006319Y006835D01*
X006319Y006836D02*
X006950Y006836D01*
X006949Y006837D02*
X006319Y006837D01*
X006319Y006838D02*
X006948Y006838D01*
X006947Y006839D02*
X006319Y006839D01*
X006319Y006840D02*
X006946Y006840D01*
X006945Y006841D02*
X006319Y006841D01*
X006319Y006842D02*
X006944Y006842D01*
X006943Y006843D02*
X006319Y006843D01*
X006319Y006844D02*
X006942Y006844D01*
X006941Y006845D02*
X006319Y006845D01*
X006319Y006846D02*
X006940Y006846D01*
X006939Y006847D02*
X006319Y006847D01*
X006319Y006848D02*
X006938Y006848D01*
X006937Y006849D02*
X006319Y006849D01*
X006319Y006850D02*
X006936Y006850D01*
X006935Y006851D02*
X006319Y006851D01*
X006319Y006852D02*
X006934Y006852D01*
X006933Y006853D02*
X006319Y006853D01*
X006319Y006854D02*
X006932Y006854D01*
X006931Y006855D02*
X006319Y006855D01*
X006319Y006856D02*
X006930Y006856D01*
X006929Y006857D02*
X006319Y006857D01*
X006319Y006858D02*
X006928Y006858D01*
X006927Y006859D02*
X006319Y006859D01*
X006319Y006860D02*
X006926Y006860D01*
X006925Y006861D02*
X006319Y006861D01*
X006319Y006862D02*
X006924Y006862D01*
X006923Y006863D02*
X006319Y006863D01*
X006319Y006864D02*
X006922Y006864D01*
X006921Y006865D02*
X006319Y006865D01*
X006319Y006866D02*
X006920Y006866D01*
X006919Y006867D02*
X006319Y006867D01*
X006319Y006868D02*
X006918Y006868D01*
X006917Y006869D02*
X006319Y006869D01*
X006319Y006870D02*
X006916Y006870D01*
X006915Y006871D02*
X006319Y006871D01*
X006319Y006872D02*
X006914Y006872D01*
X006913Y006873D02*
X006319Y006873D01*
X006319Y006874D02*
X006912Y006874D01*
X006911Y006875D02*
X006319Y006875D01*
X006319Y006876D02*
X006910Y006876D01*
X006909Y006877D02*
X006319Y006877D01*
X006319Y006878D02*
X006908Y006878D01*
X006907Y006879D02*
X006319Y006879D01*
X006319Y006880D02*
X006906Y006880D01*
X006905Y006881D02*
X006319Y006881D01*
X006318Y006882D02*
X006904Y006882D01*
X006903Y006883D02*
X006318Y006883D01*
X006318Y006884D02*
X006902Y006884D01*
X006901Y006885D02*
X006318Y006885D01*
X006318Y006886D02*
X006900Y006886D01*
X006899Y006887D02*
X006318Y006887D01*
X006318Y006888D02*
X006898Y006888D01*
X006897Y006889D02*
X006318Y006889D01*
X006318Y006890D02*
X006896Y006890D01*
X006895Y006891D02*
X006318Y006891D01*
X006318Y006892D02*
X006894Y006892D01*
X006893Y006893D02*
X006318Y006893D01*
X006318Y006894D02*
X006892Y006894D01*
X006891Y006895D02*
X006318Y006895D01*
X006318Y006896D02*
X006890Y006896D01*
X006889Y006897D02*
X006318Y006897D01*
X006318Y006898D02*
X006888Y006898D01*
X006887Y006899D02*
X006318Y006899D01*
X006318Y006900D02*
X006886Y006900D01*
X006885Y006901D02*
X006318Y006901D01*
X006318Y006902D02*
X006884Y006902D01*
X006883Y006903D02*
X006318Y006903D01*
X006318Y006904D02*
X006882Y006904D01*
X006881Y006905D02*
X006318Y006905D01*
X006318Y006906D02*
X006880Y006906D01*
X006879Y006907D02*
X006318Y006907D01*
X006318Y006908D02*
X006878Y006908D01*
X006877Y006909D02*
X006318Y006909D01*
X006318Y006910D02*
X006876Y006910D01*
X006875Y006911D02*
X006318Y006911D01*
X006318Y006912D02*
X006874Y006912D01*
X006873Y006913D02*
X006318Y006913D01*
X006318Y006914D02*
X006872Y006914D01*
X006871Y006915D02*
X006318Y006915D01*
X006318Y006916D02*
X006870Y006916D01*
X006869Y006917D02*
X006318Y006917D01*
X006318Y006918D02*
X006868Y006918D01*
X006867Y006919D02*
X006318Y006919D01*
X006318Y006920D02*
X006866Y006920D01*
X006865Y006921D02*
X006318Y006921D01*
X006318Y006922D02*
X006864Y006922D01*
X006863Y006923D02*
X006318Y006923D01*
X006318Y006924D02*
X006862Y006924D01*
X006861Y006925D02*
X006318Y006925D01*
X006318Y006926D02*
X006860Y006926D01*
X006859Y006927D02*
X006318Y006927D01*
X006318Y006928D02*
X006858Y006928D01*
X006857Y006929D02*
X006318Y006929D01*
X006318Y006930D02*
X006856Y006930D01*
X006855Y006931D02*
X006317Y006931D01*
X006317Y006932D02*
X006854Y006932D01*
X006853Y006933D02*
X006317Y006933D01*
X006317Y006934D02*
X006852Y006934D01*
X006851Y006935D02*
X006317Y006935D01*
X006317Y006936D02*
X006850Y006936D01*
X006849Y006937D02*
X006317Y006937D01*
X006317Y006938D02*
X006848Y006938D01*
X006847Y006939D02*
X006317Y006939D01*
X006317Y006940D02*
X006846Y006940D01*
X006845Y006941D02*
X006317Y006941D01*
X006317Y006942D02*
X006844Y006942D01*
X006843Y006943D02*
X006317Y006943D01*
X006317Y006944D02*
X006842Y006944D01*
X006841Y006945D02*
X006317Y006945D01*
X006317Y006946D02*
X006840Y006946D01*
X006839Y006947D02*
X006317Y006947D01*
X006317Y006948D02*
X006838Y006948D01*
X006837Y006949D02*
X006317Y006949D01*
X006317Y006950D02*
X006836Y006950D01*
X006835Y006951D02*
X006317Y006951D01*
X006317Y006952D02*
X006834Y006952D01*
X006833Y006953D02*
X006317Y006953D01*
X006317Y006954D02*
X006832Y006954D01*
X006831Y006955D02*
X006317Y006955D01*
X006317Y006956D02*
X006830Y006956D01*
X006829Y006957D02*
X006317Y006957D01*
X006317Y006958D02*
X006828Y006958D01*
X006827Y006959D02*
X006317Y006959D01*
X006317Y006960D02*
X006826Y006960D01*
X006825Y006961D02*
X006317Y006961D01*
X006317Y006962D02*
X006824Y006962D01*
X006823Y006963D02*
X006317Y006963D01*
X006317Y006964D02*
X006822Y006964D01*
X006821Y006965D02*
X006317Y006965D01*
X006317Y006966D02*
X006820Y006966D01*
X006819Y006967D02*
X006317Y006967D01*
X006317Y006968D02*
X006818Y006968D01*
X006817Y006969D02*
X006317Y006969D01*
X006317Y006970D02*
X006816Y006970D01*
X006815Y006971D02*
X006317Y006971D01*
X006317Y006972D02*
X006814Y006972D01*
X006813Y006973D02*
X006317Y006973D01*
X006317Y006974D02*
X006812Y006974D01*
X006811Y006975D02*
X006317Y006975D01*
X006317Y006976D02*
X006810Y006976D01*
X006809Y006977D02*
X006317Y006977D01*
X006317Y006978D02*
X006808Y006978D01*
X006807Y006979D02*
X006316Y006979D01*
X006316Y006980D02*
X006806Y006980D01*
X006805Y006981D02*
X006316Y006981D01*
X006316Y006982D02*
X006804Y006982D01*
X006803Y006983D02*
X006316Y006983D01*
X006316Y006984D02*
X006802Y006984D01*
X006801Y006985D02*
X006316Y006985D01*
X006316Y006986D02*
X006800Y006986D01*
X006799Y006987D02*
X006316Y006987D01*
X006316Y006988D02*
X006798Y006988D01*
X006797Y006989D02*
X006316Y006989D01*
X006316Y006990D02*
X006796Y006990D01*
X006795Y006991D02*
X006316Y006991D01*
X006316Y006992D02*
X006794Y006992D01*
X006793Y006993D02*
X006316Y006993D01*
X006316Y006994D02*
X006792Y006994D01*
X006791Y006995D02*
X006316Y006995D01*
X006316Y006996D02*
X006790Y006996D01*
X006789Y006997D02*
X006316Y006997D01*
X006316Y006998D02*
X006788Y006998D01*
X006787Y006999D02*
X006316Y006999D01*
X006316Y007000D02*
X006786Y007000D01*
X006785Y007001D02*
X006316Y007001D01*
X006316Y007002D02*
X006784Y007002D01*
X006783Y007003D02*
X006316Y007003D01*
X006316Y007004D02*
X006782Y007004D01*
X006781Y007005D02*
X006316Y007005D01*
X006316Y007006D02*
X006780Y007006D01*
X006779Y007007D02*
X006316Y007007D01*
X006316Y007008D02*
X006778Y007008D01*
X006777Y007009D02*
X006316Y007009D01*
X006316Y007010D02*
X006776Y007010D01*
X006775Y007011D02*
X006316Y007011D01*
X006316Y007012D02*
X006774Y007012D01*
X006773Y007013D02*
X006316Y007013D01*
X006316Y007014D02*
X006772Y007014D01*
X006771Y007015D02*
X006316Y007015D01*
X006316Y007016D02*
X006770Y007016D01*
X006769Y007017D02*
X006316Y007017D01*
X006316Y007018D02*
X006768Y007018D01*
X006767Y007019D02*
X006316Y007019D01*
X006316Y007020D02*
X006766Y007020D01*
X006765Y007021D02*
X006316Y007021D01*
X006316Y007022D02*
X006764Y007022D01*
X006763Y007023D02*
X006316Y007023D01*
X006316Y007024D02*
X006762Y007024D01*
X006761Y007025D02*
X006316Y007025D01*
X006316Y007026D02*
X006760Y007026D01*
X006759Y007027D02*
X006316Y007027D01*
X006315Y007028D02*
X006758Y007028D01*
X006757Y007029D02*
X006315Y007029D01*
X006315Y007030D02*
X006756Y007030D01*
X006755Y007031D02*
X006315Y007031D01*
X006315Y007032D02*
X006754Y007032D01*
X006753Y007033D02*
X006315Y007033D01*
X006315Y007034D02*
X006752Y007034D01*
X006751Y007035D02*
X006315Y007035D01*
X006315Y007036D02*
X006750Y007036D01*
X006749Y007037D02*
X006315Y007037D01*
X006315Y007038D02*
X006748Y007038D01*
X006747Y007039D02*
X006315Y007039D01*
X006315Y007040D02*
X006746Y007040D01*
X006745Y007041D02*
X006315Y007041D01*
X006315Y007042D02*
X006744Y007042D01*
X006743Y007043D02*
X006315Y007043D01*
X006315Y007044D02*
X006742Y007044D01*
X006741Y007045D02*
X006315Y007045D01*
X006315Y007046D02*
X006740Y007046D01*
X006739Y007047D02*
X006315Y007047D01*
X006315Y007048D02*
X006738Y007048D01*
X006737Y007049D02*
X006315Y007049D01*
X006315Y007050D02*
X006736Y007050D01*
X006735Y007051D02*
X006315Y007051D01*
X006315Y007052D02*
X006734Y007052D01*
X006733Y007053D02*
X006315Y007053D01*
X006315Y007054D02*
X006732Y007054D01*
X006731Y007055D02*
X006315Y007055D01*
X006315Y007056D02*
X006730Y007056D01*
X006729Y007057D02*
X006315Y007057D01*
X006315Y007058D02*
X006728Y007058D01*
X006727Y007059D02*
X006315Y007059D01*
X006315Y007060D02*
X006726Y007060D01*
X006725Y007061D02*
X006315Y007061D01*
X006315Y007062D02*
X006724Y007062D01*
X006723Y007063D02*
X006315Y007063D01*
X006315Y007064D02*
X006722Y007064D01*
X006721Y007065D02*
X006315Y007065D01*
X006315Y007066D02*
X006720Y007066D01*
X006719Y007067D02*
X006315Y007067D01*
X006315Y007068D02*
X006718Y007068D01*
X006717Y007069D02*
X006315Y007069D01*
X006315Y007070D02*
X006716Y007070D01*
X006715Y007071D02*
X006315Y007071D01*
X006315Y007072D02*
X006714Y007072D01*
X006713Y007073D02*
X006315Y007073D01*
X006315Y007074D02*
X006712Y007074D01*
X006711Y007075D02*
X006315Y007075D01*
X006314Y007076D02*
X006710Y007076D01*
X006709Y007077D02*
X006314Y007077D01*
X006314Y007078D02*
X006708Y007078D01*
X006707Y007079D02*
X006314Y007079D01*
X006314Y007080D02*
X006706Y007080D01*
X006705Y007081D02*
X006314Y007081D01*
X006314Y007082D02*
X006704Y007082D01*
X006703Y007083D02*
X006314Y007083D01*
X006314Y007084D02*
X006702Y007084D01*
X006701Y007085D02*
X006314Y007085D01*
X006314Y007086D02*
X006700Y007086D01*
X006699Y007087D02*
X006314Y007087D01*
X006314Y007088D02*
X006698Y007088D01*
X006697Y007089D02*
X006314Y007089D01*
X006314Y007090D02*
X006696Y007090D01*
X006695Y007091D02*
X006314Y007091D01*
X006314Y007092D02*
X006694Y007092D01*
X006693Y007093D02*
X006314Y007093D01*
X006314Y007094D02*
X006692Y007094D01*
X006691Y007095D02*
X006314Y007095D01*
X006314Y007096D02*
X006690Y007096D01*
X006689Y007097D02*
X006314Y007097D01*
X006314Y007098D02*
X006688Y007098D01*
X006687Y007099D02*
X006314Y007099D01*
X006314Y007100D02*
X006686Y007100D01*
X006685Y007101D02*
X006314Y007101D01*
X006314Y007102D02*
X006684Y007102D01*
X006683Y007103D02*
X006314Y007103D01*
X006314Y007104D02*
X006682Y007104D01*
X006681Y007105D02*
X006314Y007105D01*
X006314Y007106D02*
X006680Y007106D01*
X006679Y007107D02*
X006314Y007107D01*
X006314Y007108D02*
X006678Y007108D01*
X006677Y007109D02*
X006314Y007109D01*
X006314Y007110D02*
X006676Y007110D01*
X006675Y007111D02*
X006314Y007111D01*
X006314Y007112D02*
X006674Y007112D01*
X006673Y007113D02*
X006314Y007113D01*
X006314Y007114D02*
X006672Y007114D01*
X006671Y007115D02*
X006314Y007115D01*
X006314Y007116D02*
X006670Y007116D01*
X006669Y007117D02*
X006314Y007117D01*
X006314Y007118D02*
X006668Y007118D01*
X006667Y007119D02*
X006314Y007119D01*
X006314Y007120D02*
X006666Y007120D01*
X006665Y007121D02*
X006314Y007121D01*
X006314Y007122D02*
X006664Y007122D01*
X006663Y007123D02*
X006314Y007123D01*
X006313Y007124D02*
X006662Y007124D01*
X006661Y007125D02*
X006313Y007125D01*
X006313Y007126D02*
X006660Y007126D01*
X006659Y007127D02*
X006313Y007127D01*
X006313Y007128D02*
X006658Y007128D01*
X006657Y007129D02*
X006313Y007129D01*
X006313Y007130D02*
X006656Y007130D01*
X006655Y007131D02*
X006313Y007131D01*
X006313Y007132D02*
X006654Y007132D01*
X006653Y007133D02*
X006313Y007133D01*
X006313Y007134D02*
X006652Y007134D01*
X006651Y007135D02*
X006313Y007135D01*
X006313Y007136D02*
X006650Y007136D01*
X006649Y007137D02*
X006313Y007137D01*
X006313Y007138D02*
X006648Y007138D01*
X006647Y007139D02*
X006313Y007139D01*
X006313Y007140D02*
X006646Y007140D01*
X006645Y007141D02*
X006313Y007141D01*
X006313Y007142D02*
X006644Y007142D01*
X006643Y007143D02*
X006313Y007143D01*
X006313Y007144D02*
X006642Y007144D01*
X006641Y007145D02*
X006313Y007145D01*
X006313Y007146D02*
X006640Y007146D01*
X006639Y007147D02*
X006313Y007147D01*
X006313Y007148D02*
X006638Y007148D01*
X006637Y007149D02*
X006313Y007149D01*
X006313Y007150D02*
X006636Y007150D01*
X006635Y007151D02*
X006313Y007151D01*
X006313Y007152D02*
X006634Y007152D01*
X006633Y007153D02*
X006313Y007153D01*
X006313Y007154D02*
X006632Y007154D01*
X006631Y007155D02*
X006313Y007155D01*
X006313Y007156D02*
X006630Y007156D01*
X006629Y007157D02*
X006313Y007157D01*
X006313Y007158D02*
X006628Y007158D01*
X006627Y007159D02*
X006313Y007159D01*
X006313Y007160D02*
X006626Y007160D01*
X006625Y007161D02*
X006313Y007161D01*
X006313Y007162D02*
X006624Y007162D01*
X006623Y007163D02*
X006313Y007163D01*
X006313Y007164D02*
X006622Y007164D01*
X006621Y007165D02*
X006313Y007165D01*
X006313Y007166D02*
X006620Y007166D01*
X006619Y007167D02*
X006313Y007167D01*
X006313Y007168D02*
X006618Y007168D01*
X006617Y007169D02*
X006313Y007169D01*
X006313Y007170D02*
X006616Y007170D01*
X006615Y007171D02*
X006313Y007171D01*
X006313Y007172D02*
X006614Y007172D01*
X006613Y007173D02*
X006312Y007173D01*
X006312Y007174D02*
X006612Y007174D01*
X006611Y007175D02*
X006312Y007175D01*
X006312Y007176D02*
X006610Y007176D01*
X006609Y007177D02*
X006312Y007177D01*
X006312Y007178D02*
X006608Y007178D01*
X006607Y007179D02*
X006312Y007179D01*
X006312Y007180D02*
X006606Y007180D01*
X006605Y007181D02*
X006312Y007181D01*
X006312Y007182D02*
X006604Y007182D01*
X006603Y007183D02*
X006312Y007183D01*
X006312Y007184D02*
X006602Y007184D01*
X006601Y007185D02*
X006312Y007185D01*
X006312Y007186D02*
X006600Y007186D01*
X006599Y007187D02*
X006312Y007187D01*
X006312Y007188D02*
X006598Y007188D01*
X006597Y007189D02*
X006312Y007189D01*
X006312Y007190D02*
X006596Y007190D01*
X006595Y007191D02*
X006312Y007191D01*
X006312Y007192D02*
X006594Y007192D01*
X006593Y007193D02*
X006312Y007193D01*
X006312Y007194D02*
X006592Y007194D01*
X006591Y007195D02*
X006312Y007195D01*
X006312Y007196D02*
X006590Y007196D01*
X006589Y007197D02*
X006312Y007197D01*
X006312Y007198D02*
X006588Y007198D01*
X006587Y007199D02*
X006312Y007199D01*
X006312Y007200D02*
X006586Y007200D01*
X006585Y007201D02*
X006312Y007201D01*
X006312Y007202D02*
X006584Y007202D01*
X006583Y007203D02*
X006312Y007203D01*
X006312Y007204D02*
X006582Y007204D01*
X006581Y007205D02*
X006312Y007205D01*
X006312Y007206D02*
X006580Y007206D01*
X006579Y007207D02*
X006312Y007207D01*
X006312Y007208D02*
X006578Y007208D01*
X006577Y007209D02*
X006312Y007209D01*
X006312Y007210D02*
X006576Y007210D01*
X006575Y007211D02*
X006312Y007211D01*
X006312Y007212D02*
X006574Y007212D01*
X006573Y007213D02*
X006312Y007213D01*
X006312Y007214D02*
X006572Y007214D01*
X006571Y007215D02*
X006312Y007215D01*
X006312Y007216D02*
X006570Y007216D01*
X006569Y007217D02*
X006312Y007217D01*
X006312Y007218D02*
X006568Y007218D01*
X006567Y007219D02*
X006312Y007219D01*
X006312Y007220D02*
X006566Y007220D01*
X006565Y007221D02*
X006311Y007221D01*
X006311Y007222D02*
X006564Y007222D01*
X006563Y007223D02*
X006311Y007223D01*
X006311Y007224D02*
X006562Y007224D01*
X006561Y007225D02*
X006311Y007225D01*
X006311Y007226D02*
X006560Y007226D01*
X006559Y007227D02*
X006311Y007227D01*
X006311Y007228D02*
X006558Y007228D01*
X006557Y007229D02*
X006311Y007229D01*
X006311Y007230D02*
X006556Y007230D01*
X006555Y007231D02*
X006311Y007231D01*
X006311Y007232D02*
X006554Y007232D01*
X006553Y007233D02*
X006311Y007233D01*
X006311Y007234D02*
X006552Y007234D01*
X006551Y007235D02*
X006311Y007235D01*
X006311Y007236D02*
X006550Y007236D01*
X006549Y007237D02*
X006311Y007237D01*
X006311Y007238D02*
X006548Y007238D01*
X006547Y007239D02*
X006311Y007239D01*
X006311Y007240D02*
X006546Y007240D01*
X006545Y007241D02*
X006311Y007241D01*
X006311Y007242D02*
X006544Y007242D01*
X006543Y007243D02*
X006311Y007243D01*
X006311Y007244D02*
X006542Y007244D01*
X006541Y007245D02*
X006311Y007245D01*
X006311Y007246D02*
X006540Y007246D01*
X006539Y007247D02*
X006311Y007247D01*
X006311Y007248D02*
X006538Y007248D01*
X006537Y007249D02*
X006311Y007249D01*
X006311Y007250D02*
X006536Y007250D01*
X006535Y007251D02*
X006311Y007251D01*
X006311Y007252D02*
X006534Y007252D01*
X006533Y007253D02*
X006311Y007253D01*
X006311Y007254D02*
X006532Y007254D01*
X006531Y007255D02*
X006311Y007255D01*
X006311Y007256D02*
X006530Y007256D01*
X006529Y007257D02*
X006311Y007257D01*
X006311Y007258D02*
X006528Y007258D01*
X006527Y007259D02*
X006311Y007259D01*
X006311Y007260D02*
X006526Y007260D01*
X006525Y007261D02*
X006311Y007261D01*
X006311Y007262D02*
X006524Y007262D01*
X006523Y007263D02*
X006311Y007263D01*
X006311Y007264D02*
X006522Y007264D01*
X006521Y007265D02*
X006311Y007265D01*
X006311Y007266D02*
X006520Y007266D01*
X006519Y007267D02*
X006311Y007267D01*
X006311Y007268D02*
X006518Y007268D01*
X006517Y007269D02*
X006310Y007269D01*
X006310Y007270D02*
X006516Y007270D01*
X006515Y007271D02*
X006310Y007271D01*
X006310Y007272D02*
X006514Y007272D01*
X006513Y007273D02*
X006310Y007273D01*
X006310Y007274D02*
X006512Y007274D01*
X006511Y007275D02*
X006310Y007275D01*
X006310Y007276D02*
X006510Y007276D01*
X006509Y007277D02*
X006310Y007277D01*
X006310Y007278D02*
X006508Y007278D01*
X006507Y007279D02*
X006310Y007279D01*
X006310Y007280D02*
X006506Y007280D01*
X006505Y007281D02*
X006310Y007281D01*
X006310Y007282D02*
X006504Y007282D01*
X006503Y007283D02*
X006310Y007283D01*
X006310Y007284D02*
X006502Y007284D01*
X006501Y007285D02*
X006310Y007285D01*
X006310Y007286D02*
X006500Y007286D01*
X006499Y007287D02*
X006310Y007287D01*
X006310Y007288D02*
X006498Y007288D01*
X006497Y007289D02*
X006310Y007289D01*
X006310Y007290D02*
X006496Y007290D01*
X006495Y007291D02*
X006310Y007291D01*
X006310Y007292D02*
X006494Y007292D01*
X006493Y007293D02*
X006310Y007293D01*
X006310Y007294D02*
X006492Y007294D01*
X006491Y007295D02*
X006310Y007295D01*
X006310Y007296D02*
X006490Y007296D01*
X006489Y007297D02*
X006310Y007297D01*
X006310Y007298D02*
X006488Y007298D01*
X006487Y007299D02*
X006310Y007299D01*
X006310Y007300D02*
X006486Y007300D01*
X006485Y007301D02*
X006310Y007301D01*
X006310Y007302D02*
X006484Y007302D01*
X006483Y007303D02*
X006310Y007303D01*
X006310Y007304D02*
X006482Y007304D01*
X006481Y007305D02*
X006310Y007305D01*
X006310Y007306D02*
X006480Y007306D01*
X006479Y007307D02*
X006310Y007307D01*
X006310Y007308D02*
X006478Y007308D01*
X006477Y007309D02*
X006310Y007309D01*
X006310Y007310D02*
X006476Y007310D01*
X006475Y007311D02*
X006310Y007311D01*
X006310Y007312D02*
X006474Y007312D01*
X006473Y007313D02*
X006310Y007313D01*
X006310Y007314D02*
X006472Y007314D01*
X006471Y007315D02*
X006310Y007315D01*
X006310Y007316D02*
X006470Y007316D01*
X006469Y007317D02*
X006310Y007317D01*
X006309Y007318D02*
X006468Y007318D01*
X006467Y007319D02*
X006309Y007319D01*
X006309Y007320D02*
X006466Y007320D01*
X006465Y007321D02*
X006309Y007321D01*
X006309Y007322D02*
X006464Y007322D01*
X006463Y007323D02*
X006309Y007323D01*
X006309Y007324D02*
X006462Y007324D01*
X006461Y007325D02*
X006309Y007325D01*
X006309Y007326D02*
X006460Y007326D01*
X006459Y007327D02*
X006309Y007327D01*
X006309Y007328D02*
X006458Y007328D01*
X006457Y007329D02*
X006309Y007329D01*
X006309Y007330D02*
X006456Y007330D01*
X006455Y007331D02*
X006309Y007331D01*
X006309Y007332D02*
X006454Y007332D01*
X006453Y007333D02*
X006309Y007333D01*
X006309Y007334D02*
X006452Y007334D01*
X006451Y007335D02*
X006309Y007335D01*
X006309Y007336D02*
X006450Y007336D01*
X006449Y007337D02*
X006309Y007337D01*
X006309Y007338D02*
X006448Y007338D01*
X006447Y007339D02*
X006309Y007339D01*
X006309Y007340D02*
X006446Y007340D01*
X006445Y007341D02*
X006309Y007341D01*
X006309Y007342D02*
X006444Y007342D01*
X006443Y007343D02*
X006309Y007343D01*
X006309Y007344D02*
X006442Y007344D01*
X006441Y007345D02*
X006309Y007345D01*
X006309Y007346D02*
X006440Y007346D01*
X006439Y007347D02*
X006309Y007347D01*
X006309Y007348D02*
X006438Y007348D01*
X006437Y007349D02*
X006309Y007349D01*
X006309Y007350D02*
X006436Y007350D01*
X006435Y007351D02*
X006309Y007351D01*
X006309Y007352D02*
X006434Y007352D01*
X006433Y007353D02*
X006309Y007353D01*
X006309Y007354D02*
X006432Y007354D01*
X006431Y007355D02*
X006309Y007355D01*
X006309Y007356D02*
X006430Y007356D01*
X006429Y007357D02*
X006309Y007357D01*
X006309Y007358D02*
X006428Y007358D01*
X006427Y007359D02*
X006309Y007359D01*
X006309Y007360D02*
X006426Y007360D01*
X006425Y007361D02*
X006309Y007361D01*
X006309Y007362D02*
X006424Y007362D01*
X006423Y007363D02*
X006309Y007363D01*
X006309Y007364D02*
X006422Y007364D01*
X006421Y007365D02*
X006309Y007365D01*
X006308Y007366D02*
X006420Y007366D01*
X006419Y007367D02*
X006308Y007367D01*
X006308Y007368D02*
X006418Y007368D01*
X006417Y007369D02*
X006308Y007369D01*
X006308Y007370D02*
X006416Y007370D01*
X006415Y007371D02*
X006308Y007371D01*
X006308Y007372D02*
X006414Y007372D01*
X006413Y007373D02*
X006308Y007373D01*
X006308Y007374D02*
X006412Y007374D01*
X006411Y007375D02*
X006308Y007375D01*
X006308Y007376D02*
X006410Y007376D01*
X006409Y007377D02*
X006308Y007377D01*
X006308Y007378D02*
X006408Y007378D01*
X006407Y007379D02*
X006308Y007379D01*
X006308Y007380D02*
X006406Y007380D01*
X006405Y007381D02*
X006308Y007381D01*
X006308Y007382D02*
X006404Y007382D01*
X006403Y007383D02*
X006308Y007383D01*
X006308Y007384D02*
X006402Y007384D01*
X006401Y007385D02*
X006308Y007385D01*
X006308Y007386D02*
X006400Y007386D01*
X006399Y007387D02*
X006308Y007387D01*
X006308Y007388D02*
X006398Y007388D01*
X006397Y007389D02*
X006308Y007389D01*
X006308Y007390D02*
X006396Y007390D01*
X006395Y007391D02*
X006308Y007391D01*
X006308Y007392D02*
X006394Y007392D01*
X006393Y007393D02*
X006308Y007393D01*
X006308Y007394D02*
X006392Y007394D01*
X006391Y007395D02*
X006308Y007395D01*
X006308Y007396D02*
X006390Y007396D01*
X006389Y007397D02*
X006308Y007397D01*
X006308Y007398D02*
X006388Y007398D01*
X006387Y007399D02*
X006308Y007399D01*
X006308Y007400D02*
X006386Y007400D01*
X006385Y007401D02*
X006308Y007401D01*
X006308Y007402D02*
X006384Y007402D01*
X006383Y007403D02*
X006308Y007403D01*
X006308Y007404D02*
X006382Y007404D01*
X006381Y007405D02*
X006308Y007405D01*
X006308Y007406D02*
X006380Y007406D01*
X006379Y007407D02*
X006308Y007407D01*
X006308Y007408D02*
X006378Y007408D01*
X006377Y007409D02*
X006308Y007409D01*
X006308Y007410D02*
X006376Y007410D01*
X006375Y007411D02*
X006308Y007411D01*
X006308Y007412D02*
X006374Y007412D01*
X006373Y007413D02*
X006308Y007413D01*
X006308Y007414D02*
X006372Y007414D01*
X006371Y007415D02*
X006307Y007415D01*
X006307Y007416D02*
X006370Y007416D01*
X006369Y007417D02*
X006307Y007417D01*
X006307Y007418D02*
X006368Y007418D01*
X006367Y007419D02*
X006307Y007419D01*
X006307Y007420D02*
X006366Y007420D01*
X006365Y007421D02*
X006307Y007421D01*
X006307Y007422D02*
X006364Y007422D01*
X006364Y007423D02*
X006307Y007423D01*
X006307Y007424D02*
X006363Y007424D01*
X006362Y007425D02*
X006307Y007425D01*
X006307Y007426D02*
X006361Y007426D01*
X006360Y007427D02*
X006307Y007427D01*
X006307Y007428D02*
X006359Y007428D01*
X006358Y007429D02*
X006307Y007429D01*
X006307Y007430D02*
X006357Y007430D01*
X006356Y007431D02*
X006307Y007431D01*
X006307Y007432D02*
X006355Y007432D01*
X006354Y007433D02*
X006307Y007433D01*
X006307Y007434D02*
X006353Y007434D01*
X006352Y007435D02*
X006307Y007435D01*
X006307Y007436D02*
X006351Y007436D01*
X006350Y007437D02*
X006307Y007437D01*
X006307Y007438D02*
X006349Y007438D01*
X006348Y007439D02*
X006307Y007439D01*
X006307Y007440D02*
X006347Y007440D01*
X006346Y007441D02*
X006307Y007441D01*
X006307Y007442D02*
X006345Y007442D01*
X006344Y007443D02*
X006307Y007443D01*
X006307Y007444D02*
X006343Y007444D01*
X006342Y007445D02*
X006307Y007445D01*
X006307Y007446D02*
X006341Y007446D01*
X006340Y007447D02*
X006307Y007447D01*
X006307Y007448D02*
X006339Y007448D01*
X006338Y007449D02*
X006307Y007449D01*
X006307Y007450D02*
X006337Y007450D01*
X006336Y007451D02*
X006307Y007451D01*
X006307Y007452D02*
X006335Y007452D01*
X006334Y007453D02*
X006307Y007453D01*
X006307Y007454D02*
X006333Y007454D01*
X006332Y007455D02*
X006307Y007455D01*
X006307Y007456D02*
X006331Y007456D01*
X006330Y007457D02*
X006307Y007457D01*
X006307Y007458D02*
X006329Y007458D01*
X006328Y007459D02*
X006307Y007459D01*
X006307Y007460D02*
X006327Y007460D01*
X006326Y007461D02*
X006307Y007461D01*
X006307Y007462D02*
X006325Y007462D01*
X006324Y007463D02*
X006306Y007463D01*
X006306Y007464D02*
X006323Y007464D01*
X006322Y007465D02*
X006306Y007465D01*
X006306Y007466D02*
X006321Y007466D01*
X006320Y007467D02*
X006306Y007467D01*
X006306Y007468D02*
X006319Y007468D01*
X006318Y007469D02*
X006306Y007469D01*
X006306Y007470D02*
X006317Y007470D01*
X006316Y007471D02*
X006306Y007471D01*
X006306Y007472D02*
X006315Y007472D01*
X006314Y007473D02*
X006306Y007473D01*
X006306Y007474D02*
X006313Y007474D01*
X006312Y007475D02*
X006306Y007475D01*
X006306Y007476D02*
X006311Y007476D01*
X006310Y007477D02*
X006306Y007477D01*
X006306Y007478D02*
X006309Y007478D01*
X006308Y007479D02*
X006306Y007479D01*
X006306Y007480D02*
X006307Y007480D01*
X006329Y006369D02*
X007394Y006369D01*
X007347Y006368D02*
X006329Y006368D01*
X006329Y006367D02*
X007301Y006367D01*
X007255Y006366D02*
X006329Y006366D01*
X006329Y006365D02*
X007208Y006365D01*
X007162Y006364D02*
X006329Y006364D01*
X006329Y006363D02*
X007116Y006363D01*
X007070Y006362D02*
X006329Y006362D01*
X006329Y006361D02*
X007023Y006361D01*
X006977Y006360D02*
X006329Y006360D01*
X006329Y006359D02*
X006931Y006359D01*
X006884Y006358D02*
X006329Y006358D01*
X006329Y006357D02*
X006838Y006357D01*
X006792Y006356D02*
X006329Y006356D01*
X006329Y006355D02*
X006746Y006355D01*
X006699Y006354D02*
X006329Y006354D01*
X006329Y006353D02*
X006653Y006353D01*
X006607Y006352D02*
X006329Y006352D01*
X006329Y006351D02*
X006560Y006351D01*
X006514Y006350D02*
X006330Y006350D01*
X006330Y006349D02*
X006468Y006349D01*
X006421Y006348D02*
X006330Y006348D01*
X006330Y006347D02*
X006375Y006347D01*
D16*
X008759Y003963D03*
X009159Y002663D03*
X006959Y002363D03*
X011859Y005163D03*
X013059Y004763D03*
X014059Y004763D03*
X014859Y004263D03*
X015759Y006763D03*
X012959Y007763D03*
X012959Y009363D03*
X014059Y009563D03*
X018659Y013363D03*
X018859Y012963D03*
X019159Y012663D03*
X019059Y012063D03*
X019659Y011763D03*
X020359Y011863D03*
X018659Y014063D03*
X018459Y014563D03*
X021259Y014663D03*
X021759Y015763D03*
X022359Y015863D03*
X020459Y018563D03*
X014959Y016163D03*
X014759Y016563D03*
X013159Y016563D03*
X005359Y018963D03*
X004959Y019263D03*
X001059Y009863D03*
M02*
