G75*
%MOIN*%
%OFA0B0*%
%FSLAX24Y24*%
%IPPOS*%
%LPD*%
%AMOC8*
5,1,8,0,0,1.08239X$1,22.5*
%
%ADD10C,0.0000*%
%ADD11R,0.0277X0.0671*%
%ADD12R,0.0671X0.0277*%
%ADD13R,0.0474X0.0513*%
%ADD14R,0.0395X0.0395*%
%ADD15R,0.0513X0.0474*%
%ADD16C,0.0520*%
%ADD17R,0.1025X0.0867*%
%ADD18R,0.0989X0.0277*%
%ADD19C,0.0474*%
%ADD20R,0.2363X0.2521*%
%ADD21R,0.0710X0.1261*%
%ADD22C,0.0640*%
%ADD23R,0.1340X0.0552*%
%ADD24R,0.0867X0.0671*%
%ADD25R,0.0671X0.0867*%
%ADD26R,0.0493X0.0505*%
%ADD27C,0.0680*%
%ADD28C,0.0001*%
%ADD29R,0.0454X0.0257*%
%ADD30R,0.0749X0.1143*%
%ADD31R,0.0592X0.1143*%
%ADD32C,0.0398*%
D10*
X000459Y000363D02*
X000459Y021363D01*
X025859Y021363D01*
X026459Y020763D01*
X026459Y016263D01*
X027459Y015263D01*
X027459Y002263D01*
X026559Y001363D01*
X026559Y000363D01*
X000459Y000363D01*
X005905Y015993D02*
X006844Y015993D01*
X006394Y016462D01*
X005905Y015993D01*
X002133Y018125D02*
X002135Y018152D01*
X002141Y018179D01*
X002150Y018205D01*
X002163Y018229D01*
X002179Y018252D01*
X002198Y018271D01*
X002220Y018288D01*
X002244Y018302D01*
X002269Y018312D01*
X002296Y018319D01*
X002323Y018322D01*
X002351Y018321D01*
X002378Y018316D01*
X002404Y018308D01*
X002428Y018296D01*
X002451Y018280D01*
X002472Y018262D01*
X002489Y018241D01*
X002504Y018217D01*
X002515Y018192D01*
X002523Y018166D01*
X002527Y018139D01*
X002527Y018111D01*
X002523Y018084D01*
X002515Y018058D01*
X002504Y018033D01*
X002489Y018009D01*
X002472Y017988D01*
X002451Y017970D01*
X002429Y017954D01*
X002404Y017942D01*
X002378Y017934D01*
X002351Y017929D01*
X002323Y017928D01*
X002296Y017931D01*
X002269Y017938D01*
X002244Y017948D01*
X002220Y017962D01*
X002198Y017979D01*
X002179Y017998D01*
X002163Y018021D01*
X002150Y018045D01*
X002141Y018071D01*
X002135Y018098D01*
X002133Y018125D01*
X002133Y019857D02*
X002135Y019884D01*
X002141Y019911D01*
X002150Y019937D01*
X002163Y019961D01*
X002179Y019984D01*
X002198Y020003D01*
X002220Y020020D01*
X002244Y020034D01*
X002269Y020044D01*
X002296Y020051D01*
X002323Y020054D01*
X002351Y020053D01*
X002378Y020048D01*
X002404Y020040D01*
X002428Y020028D01*
X002451Y020012D01*
X002472Y019994D01*
X002489Y019973D01*
X002504Y019949D01*
X002515Y019924D01*
X002523Y019898D01*
X002527Y019871D01*
X002527Y019843D01*
X002523Y019816D01*
X002515Y019790D01*
X002504Y019765D01*
X002489Y019741D01*
X002472Y019720D01*
X002451Y019702D01*
X002429Y019686D01*
X002404Y019674D01*
X002378Y019666D01*
X002351Y019661D01*
X002323Y019660D01*
X002296Y019663D01*
X002269Y019670D01*
X002244Y019680D01*
X002220Y019694D01*
X002198Y019711D01*
X002179Y019730D01*
X002163Y019753D01*
X002150Y019777D01*
X002141Y019803D01*
X002135Y019830D01*
X002133Y019857D01*
D11*
X013968Y015349D03*
X014283Y015349D03*
X014598Y015349D03*
X014913Y015349D03*
X015228Y015349D03*
X015543Y015349D03*
X015858Y015349D03*
X016173Y015349D03*
X016488Y015349D03*
X016803Y015349D03*
X017118Y015349D03*
X017118Y010782D03*
X016803Y010782D03*
X016488Y010782D03*
X016173Y010782D03*
X015858Y010782D03*
X015543Y010782D03*
X015228Y010782D03*
X014913Y010782D03*
X014598Y010782D03*
X014283Y010782D03*
X013968Y010782D03*
D12*
X013259Y011490D03*
X013259Y011805D03*
X013259Y012120D03*
X013259Y012435D03*
X013259Y012750D03*
X013259Y013065D03*
X013259Y013380D03*
X013259Y013695D03*
X013259Y014010D03*
X013259Y014325D03*
X013259Y014640D03*
X017826Y014640D03*
X017826Y014325D03*
X017826Y014010D03*
X017826Y013695D03*
X017826Y013380D03*
X017826Y013065D03*
X017826Y012750D03*
X017826Y012435D03*
X017826Y012120D03*
X017826Y011805D03*
X017826Y011490D03*
D13*
X013509Y010264D03*
X012840Y010264D03*
X010415Y005861D03*
X009746Y005861D03*
X008093Y003463D03*
X007424Y003463D03*
X007424Y002363D03*
X008093Y002363D03*
X006378Y002253D03*
X005708Y002253D03*
D14*
X009789Y007326D03*
X010380Y007326D03*
X011199Y007307D03*
X011789Y007307D03*
D15*
X011856Y005775D03*
X011187Y005775D03*
X013741Y003533D03*
X014410Y003533D03*
X016676Y007395D03*
X017346Y007395D03*
G36*
X018407Y007652D02*
X018918Y007655D01*
X018921Y007182D01*
X018410Y007179D01*
X018407Y007652D01*
G37*
G36*
X019077Y007657D02*
X019588Y007660D01*
X019591Y007187D01*
X019080Y007184D01*
X019077Y007657D01*
G37*
X020149Y012454D03*
X020818Y012454D03*
X010859Y013028D03*
X010859Y013697D03*
X009959Y013697D03*
X009959Y013028D03*
X009059Y013028D03*
X009059Y013697D03*
D16*
X016698Y009289D02*
X016698Y008849D01*
X018698Y008849D02*
X018698Y009289D01*
D17*
X003314Y017258D03*
X001149Y017258D03*
X001149Y020723D03*
X003314Y020723D03*
D18*
X003536Y019621D03*
X003536Y019306D03*
X003536Y018991D03*
X003536Y018676D03*
X003536Y018361D03*
D19*
X002330Y018125D03*
X002330Y019857D03*
D20*
X002259Y007600D03*
D21*
X003156Y004773D03*
X001361Y004773D03*
D22*
X001579Y013663D02*
X002139Y013663D01*
X002139Y014663D02*
X001579Y014663D01*
X001579Y015663D02*
X002139Y015663D01*
D23*
X001620Y002850D03*
X001620Y001275D03*
X004297Y001275D03*
X004297Y002850D03*
D24*
X005955Y004554D03*
X005955Y005735D03*
D25*
X002949Y011563D03*
X001768Y011563D03*
D26*
X001714Y009963D03*
X002403Y009963D03*
D27*
X010458Y001669D02*
X010458Y001069D01*
X011458Y001069D02*
X011458Y001669D01*
X012458Y001669D02*
X012458Y001069D01*
X013458Y001069D02*
X013458Y001669D01*
X014458Y001669D02*
X014458Y001069D01*
X015458Y001069D02*
X015458Y001669D01*
X016458Y001669D02*
X016458Y001069D01*
X017458Y001069D02*
X017458Y001669D01*
X019462Y001689D02*
X019462Y001089D01*
X020462Y001089D02*
X020462Y001689D01*
X021462Y001689D02*
X021462Y001089D01*
X022462Y001089D02*
X022462Y001689D01*
X023462Y001689D02*
X023462Y001089D01*
X024462Y001089D02*
X024462Y001689D01*
X025925Y005368D02*
X026525Y005368D01*
X026525Y006368D02*
X025925Y006368D01*
X025925Y007368D02*
X026525Y007368D01*
X026525Y008368D02*
X025925Y008368D01*
X025925Y009368D02*
X026525Y009368D01*
X026525Y010368D02*
X025925Y010368D01*
X025925Y011368D02*
X026525Y011368D01*
X026525Y012368D02*
X025925Y012368D01*
X025462Y020077D02*
X025462Y020677D01*
X024462Y020677D02*
X024462Y020077D01*
X023462Y020077D02*
X023462Y020677D01*
X022462Y020677D02*
X022462Y020077D01*
X021462Y020077D02*
X021462Y020677D01*
X020462Y020677D02*
X020462Y020077D01*
X019462Y020077D02*
X019462Y020677D01*
X018462Y020677D02*
X018462Y020077D01*
X016829Y020077D02*
X016829Y020677D01*
X015829Y020677D02*
X015829Y020077D01*
X014829Y020077D02*
X014829Y020677D01*
X013829Y020677D02*
X013829Y020077D01*
X012829Y020077D02*
X012829Y020677D01*
X011829Y020677D02*
X011829Y020077D01*
X010829Y020077D02*
X010829Y020677D01*
X009829Y020677D02*
X009829Y020077D01*
X008829Y020077D02*
X008829Y020677D01*
X007829Y020677D02*
X007829Y020077D01*
D28*
X006393Y016462D02*
X006395Y016462D01*
X006396Y016461D02*
X006392Y016461D01*
X006391Y016460D02*
X006397Y016460D01*
X006398Y016459D02*
X006390Y016459D01*
X006389Y016458D02*
X006399Y016458D01*
X006400Y016457D02*
X006388Y016457D01*
X006387Y016456D02*
X006401Y016456D01*
X006402Y016455D02*
X006386Y016455D01*
X006385Y016454D02*
X006403Y016454D01*
X006403Y016453D02*
X006384Y016453D01*
X006383Y016452D02*
X006404Y016452D01*
X006405Y016451D02*
X006382Y016451D01*
X006381Y016450D02*
X006406Y016450D01*
X006407Y016449D02*
X006380Y016449D01*
X006379Y016448D02*
X006408Y016448D01*
X006409Y016447D02*
X006378Y016447D01*
X006377Y016446D02*
X006410Y016446D01*
X006411Y016445D02*
X006376Y016445D01*
X006375Y016444D02*
X006412Y016444D01*
X006413Y016443D02*
X006374Y016443D01*
X006373Y016442D02*
X006414Y016442D01*
X006415Y016441D02*
X006372Y016441D01*
X006371Y016440D02*
X006416Y016440D01*
X006417Y016439D02*
X006370Y016439D01*
X006368Y016438D02*
X006418Y016438D01*
X006419Y016437D02*
X006367Y016437D01*
X006366Y016436D02*
X006420Y016436D01*
X006421Y016435D02*
X006365Y016435D01*
X006364Y016434D02*
X006422Y016434D01*
X006423Y016433D02*
X006363Y016433D01*
X006362Y016432D02*
X006424Y016432D01*
X006425Y016431D02*
X006361Y016431D01*
X006360Y016430D02*
X006425Y016430D01*
X006426Y016429D02*
X006359Y016429D01*
X006358Y016428D02*
X006427Y016428D01*
X006428Y016427D02*
X006357Y016427D01*
X006356Y016426D02*
X006429Y016426D01*
X006430Y016425D02*
X006355Y016425D01*
X006354Y016424D02*
X006431Y016424D01*
X006432Y016423D02*
X006353Y016423D01*
X006352Y016422D02*
X006433Y016422D01*
X006434Y016421D02*
X006351Y016421D01*
X006350Y016420D02*
X006435Y016420D01*
X006436Y016419D02*
X006349Y016419D01*
X006348Y016418D02*
X006437Y016418D01*
X006438Y016417D02*
X006347Y016417D01*
X006346Y016416D02*
X006439Y016416D01*
X006440Y016415D02*
X006345Y016415D01*
X006343Y016414D02*
X006441Y016414D01*
X006442Y016413D02*
X006342Y016413D01*
X006341Y016412D02*
X006443Y016412D01*
X006444Y016411D02*
X006340Y016411D01*
X006339Y016410D02*
X006445Y016410D01*
X006446Y016409D02*
X006338Y016409D01*
X006337Y016408D02*
X006447Y016408D01*
X006447Y016407D02*
X006336Y016407D01*
X006335Y016406D02*
X006448Y016406D01*
X006449Y016405D02*
X006334Y016405D01*
X006333Y016404D02*
X006450Y016404D01*
X006451Y016403D02*
X006332Y016403D01*
X006331Y016402D02*
X006452Y016402D01*
X006453Y016401D02*
X006330Y016401D01*
X006329Y016400D02*
X006454Y016400D01*
X006455Y016399D02*
X006328Y016399D01*
X006327Y016398D02*
X006456Y016398D01*
X006457Y016397D02*
X006326Y016397D01*
X006325Y016396D02*
X006458Y016396D01*
X006459Y016395D02*
X006324Y016395D01*
X006323Y016394D02*
X006460Y016394D01*
X006461Y016393D02*
X006322Y016393D01*
X006321Y016392D02*
X006462Y016392D01*
X006463Y016391D02*
X006320Y016391D01*
X006319Y016390D02*
X006464Y016390D01*
X006465Y016389D02*
X006317Y016389D01*
X006316Y016388D02*
X006466Y016388D01*
X006467Y016387D02*
X006315Y016387D01*
X006314Y016386D02*
X006468Y016386D01*
X006469Y016385D02*
X006313Y016385D01*
X006312Y016384D02*
X006469Y016384D01*
X006470Y016383D02*
X006311Y016383D01*
X006310Y016382D02*
X006471Y016382D01*
X006472Y016381D02*
X006309Y016381D01*
X006308Y016380D02*
X006473Y016380D01*
X006474Y016379D02*
X006307Y016379D01*
X006306Y016378D02*
X006475Y016378D01*
X006476Y016377D02*
X006305Y016377D01*
X006304Y016376D02*
X006477Y016376D01*
X006478Y016375D02*
X006303Y016375D01*
X006302Y016374D02*
X006479Y016374D01*
X006480Y016373D02*
X006301Y016373D01*
X006300Y016372D02*
X006481Y016372D01*
X006482Y016371D02*
X006299Y016371D01*
X006298Y016370D02*
X006483Y016370D01*
X006484Y016369D02*
X006297Y016369D01*
X006296Y016368D02*
X006485Y016368D01*
X006486Y016367D02*
X006295Y016367D01*
X006294Y016366D02*
X006487Y016366D01*
X006488Y016365D02*
X006292Y016365D01*
X006291Y016364D02*
X006489Y016364D01*
X006490Y016363D02*
X006290Y016363D01*
X006289Y016362D02*
X006491Y016362D01*
X006491Y016361D02*
X006288Y016361D01*
X006287Y016360D02*
X006492Y016360D01*
X006493Y016359D02*
X006286Y016359D01*
X006285Y016358D02*
X006494Y016358D01*
X006495Y016357D02*
X006284Y016357D01*
X006283Y016356D02*
X006496Y016356D01*
X006497Y016355D02*
X006282Y016355D01*
X006281Y016354D02*
X006498Y016354D01*
X006499Y016353D02*
X006280Y016353D01*
X006279Y016352D02*
X006500Y016352D01*
X006501Y016351D02*
X006278Y016351D01*
X006277Y016350D02*
X006502Y016350D01*
X006503Y016349D02*
X006276Y016349D01*
X006275Y016348D02*
X006504Y016348D01*
X006505Y016347D02*
X006274Y016347D01*
X006273Y016346D02*
X006506Y016346D01*
X006507Y016345D02*
X006272Y016345D01*
X006271Y016344D02*
X006508Y016344D01*
X006509Y016343D02*
X006270Y016343D01*
X006269Y016342D02*
X006510Y016342D01*
X006511Y016341D02*
X006267Y016341D01*
X006266Y016340D02*
X006512Y016340D01*
X006513Y016339D02*
X006265Y016339D01*
X006264Y016338D02*
X006513Y016338D01*
X006514Y016337D02*
X006263Y016337D01*
X006262Y016336D02*
X006515Y016336D01*
X006516Y016335D02*
X006261Y016335D01*
X006260Y016334D02*
X006517Y016334D01*
X006518Y016333D02*
X006259Y016333D01*
X006258Y016332D02*
X006519Y016332D01*
X006520Y016331D02*
X006257Y016331D01*
X006256Y016330D02*
X006521Y016330D01*
X006522Y016329D02*
X006255Y016329D01*
X006254Y016328D02*
X006523Y016328D01*
X006524Y016327D02*
X006253Y016327D01*
X006252Y016326D02*
X006525Y016326D01*
X006526Y016325D02*
X006251Y016325D01*
X006250Y016324D02*
X006527Y016324D01*
X006528Y016323D02*
X006249Y016323D01*
X006248Y016322D02*
X006529Y016322D01*
X006530Y016321D02*
X006247Y016321D01*
X006246Y016320D02*
X006531Y016320D01*
X006532Y016319D02*
X006245Y016319D01*
X006244Y016318D02*
X006533Y016318D01*
X006534Y016317D02*
X006242Y016317D01*
X006241Y016316D02*
X006535Y016316D01*
X006536Y016315D02*
X006240Y016315D01*
X006239Y016314D02*
X006536Y016314D01*
X006537Y016313D02*
X006238Y016313D01*
X006237Y016312D02*
X006538Y016312D01*
X006539Y016311D02*
X006236Y016311D01*
X006235Y016310D02*
X006540Y016310D01*
X006541Y016309D02*
X006234Y016309D01*
X006233Y016308D02*
X006542Y016308D01*
X006543Y016307D02*
X006232Y016307D01*
X006231Y016306D02*
X006544Y016306D01*
X006545Y016305D02*
X006230Y016305D01*
X006229Y016304D02*
X006546Y016304D01*
X006547Y016303D02*
X006228Y016303D01*
X006227Y016302D02*
X006548Y016302D01*
X006549Y016301D02*
X006226Y016301D01*
X006225Y016300D02*
X006550Y016300D01*
X006551Y016299D02*
X006224Y016299D01*
X006223Y016298D02*
X006552Y016298D01*
X006553Y016297D02*
X006222Y016297D01*
X006221Y016296D02*
X006554Y016296D01*
X006555Y016295D02*
X006220Y016295D01*
X006219Y016294D02*
X006556Y016294D01*
X006557Y016293D02*
X006218Y016293D01*
X006216Y016292D02*
X006558Y016292D01*
X006558Y016291D02*
X006215Y016291D01*
X006214Y016290D02*
X006559Y016290D01*
X006560Y016289D02*
X006213Y016289D01*
X006212Y016288D02*
X006561Y016288D01*
X006562Y016287D02*
X006211Y016287D01*
X006210Y016286D02*
X006563Y016286D01*
X006564Y016285D02*
X006209Y016285D01*
X006208Y016284D02*
X006565Y016284D01*
X006566Y016283D02*
X006207Y016283D01*
X006206Y016282D02*
X006567Y016282D01*
X006568Y016281D02*
X006205Y016281D01*
X006204Y016280D02*
X006569Y016280D01*
X006570Y016279D02*
X006203Y016279D01*
X006202Y016278D02*
X006571Y016278D01*
X006572Y016277D02*
X006201Y016277D01*
X006200Y016276D02*
X006573Y016276D01*
X006574Y016275D02*
X006199Y016275D01*
X006198Y016274D02*
X006575Y016274D01*
X006576Y016273D02*
X006197Y016273D01*
X006196Y016272D02*
X006577Y016272D01*
X006578Y016271D02*
X006195Y016271D01*
X006194Y016270D02*
X006579Y016270D01*
X006580Y016269D02*
X006193Y016269D01*
X006191Y016268D02*
X006580Y016268D01*
X006581Y016267D02*
X006190Y016267D01*
X006189Y016266D02*
X006582Y016266D01*
X006583Y016265D02*
X006188Y016265D01*
X006187Y016264D02*
X006584Y016264D01*
X006585Y016263D02*
X006186Y016263D01*
X006185Y016262D02*
X006586Y016262D01*
X006587Y016261D02*
X006184Y016261D01*
X006183Y016260D02*
X006588Y016260D01*
X006589Y016259D02*
X006182Y016259D01*
X006181Y016258D02*
X006590Y016258D01*
X006591Y016257D02*
X006180Y016257D01*
X006179Y016256D02*
X006592Y016256D01*
X006593Y016255D02*
X006178Y016255D01*
X006177Y016254D02*
X006594Y016254D01*
X006595Y016253D02*
X006176Y016253D01*
X006175Y016252D02*
X006596Y016252D01*
X006597Y016251D02*
X006174Y016251D01*
X006173Y016250D02*
X006598Y016250D01*
X006599Y016249D02*
X006172Y016249D01*
X006171Y016248D02*
X006600Y016248D01*
X006601Y016247D02*
X006170Y016247D01*
X006169Y016246D02*
X006602Y016246D01*
X006602Y016245D02*
X006168Y016245D01*
X006166Y016244D02*
X006603Y016244D01*
X006604Y016243D02*
X006165Y016243D01*
X006164Y016242D02*
X006605Y016242D01*
X006606Y016241D02*
X006163Y016241D01*
X006162Y016240D02*
X006607Y016240D01*
X006608Y016239D02*
X006161Y016239D01*
X006160Y016238D02*
X006609Y016238D01*
X006610Y016237D02*
X006159Y016237D01*
X006158Y016236D02*
X006611Y016236D01*
X006612Y016235D02*
X006157Y016235D01*
X006156Y016234D02*
X006613Y016234D01*
X006614Y016233D02*
X006155Y016233D01*
X006154Y016232D02*
X006615Y016232D01*
X006616Y016231D02*
X006153Y016231D01*
X006152Y016230D02*
X006617Y016230D01*
X006618Y016229D02*
X006151Y016229D01*
X006150Y016228D02*
X006619Y016228D01*
X006620Y016227D02*
X006149Y016227D01*
X006148Y016226D02*
X006621Y016226D01*
X006622Y016225D02*
X006147Y016225D01*
X006146Y016224D02*
X006623Y016224D01*
X006624Y016223D02*
X006145Y016223D01*
X006144Y016222D02*
X006624Y016222D01*
X006625Y016221D02*
X006143Y016221D01*
X006141Y016220D02*
X006626Y016220D01*
X006627Y016219D02*
X006140Y016219D01*
X006139Y016218D02*
X006628Y016218D01*
X006629Y016217D02*
X006138Y016217D01*
X006137Y016216D02*
X006630Y016216D01*
X006631Y016215D02*
X006136Y016215D01*
X006135Y016214D02*
X006632Y016214D01*
X006633Y016213D02*
X006134Y016213D01*
X006133Y016212D02*
X006634Y016212D01*
X006635Y016211D02*
X006132Y016211D01*
X006131Y016210D02*
X006636Y016210D01*
X006637Y016209D02*
X006130Y016209D01*
X006129Y016208D02*
X006638Y016208D01*
X006639Y016207D02*
X006128Y016207D01*
X006127Y016206D02*
X006640Y016206D01*
X006641Y016205D02*
X006126Y016205D01*
X006125Y016204D02*
X006642Y016204D01*
X006643Y016203D02*
X006124Y016203D01*
X006123Y016202D02*
X006644Y016202D01*
X006645Y016201D02*
X006122Y016201D01*
X006121Y016200D02*
X006646Y016200D01*
X006646Y016199D02*
X006120Y016199D01*
X006119Y016198D02*
X006647Y016198D01*
X006648Y016197D02*
X006118Y016197D01*
X006117Y016196D02*
X006649Y016196D01*
X006650Y016195D02*
X006115Y016195D01*
X006114Y016194D02*
X006651Y016194D01*
X006652Y016193D02*
X006113Y016193D01*
X006112Y016192D02*
X006653Y016192D01*
X006654Y016191D02*
X006111Y016191D01*
X006110Y016190D02*
X006655Y016190D01*
X006656Y016189D02*
X006109Y016189D01*
X006108Y016188D02*
X006657Y016188D01*
X006658Y016187D02*
X006107Y016187D01*
X006106Y016186D02*
X006659Y016186D01*
X006660Y016185D02*
X006105Y016185D01*
X006104Y016184D02*
X006661Y016184D01*
X006662Y016183D02*
X006103Y016183D01*
X006102Y016182D02*
X006663Y016182D01*
X006664Y016181D02*
X006101Y016181D01*
X006100Y016180D02*
X006665Y016180D01*
X006666Y016179D02*
X006099Y016179D01*
X006098Y016178D02*
X006667Y016178D01*
X006668Y016177D02*
X006097Y016177D01*
X006096Y016176D02*
X006668Y016176D01*
X006669Y016175D02*
X006095Y016175D01*
X006094Y016174D02*
X006670Y016174D01*
X006671Y016173D02*
X006093Y016173D01*
X006092Y016172D02*
X006672Y016172D01*
X006673Y016171D02*
X006090Y016171D01*
X006089Y016170D02*
X006674Y016170D01*
X006675Y016169D02*
X006088Y016169D01*
X006087Y016168D02*
X006676Y016168D01*
X006677Y016167D02*
X006086Y016167D01*
X006085Y016166D02*
X006678Y016166D01*
X006679Y016165D02*
X006084Y016165D01*
X006083Y016164D02*
X006680Y016164D01*
X006681Y016163D02*
X006082Y016163D01*
X006081Y016162D02*
X006682Y016162D01*
X006683Y016161D02*
X006080Y016161D01*
X006079Y016160D02*
X006684Y016160D01*
X006685Y016159D02*
X006078Y016159D01*
X006077Y016158D02*
X006686Y016158D01*
X006687Y016157D02*
X006076Y016157D01*
X006075Y016156D02*
X006688Y016156D01*
X006689Y016155D02*
X006074Y016155D01*
X006073Y016154D02*
X006690Y016154D01*
X006691Y016153D02*
X006072Y016153D01*
X006071Y016152D02*
X006691Y016152D01*
X006692Y016151D02*
X006070Y016151D01*
X006069Y016150D02*
X006693Y016150D01*
X006694Y016149D02*
X006068Y016149D01*
X006067Y016148D02*
X006695Y016148D01*
X006696Y016147D02*
X006065Y016147D01*
X006064Y016146D02*
X006697Y016146D01*
X006698Y016145D02*
X006063Y016145D01*
X006062Y016144D02*
X006699Y016144D01*
X006700Y016143D02*
X006061Y016143D01*
X006060Y016142D02*
X006701Y016142D01*
X006702Y016141D02*
X006059Y016141D01*
X006058Y016140D02*
X006703Y016140D01*
X006704Y016139D02*
X006057Y016139D01*
X006056Y016138D02*
X006705Y016138D01*
X006706Y016137D02*
X006055Y016137D01*
X006054Y016136D02*
X006707Y016136D01*
X006708Y016135D02*
X006053Y016135D01*
X006052Y016134D02*
X006709Y016134D01*
X006710Y016133D02*
X006051Y016133D01*
X006050Y016132D02*
X006711Y016132D01*
X006712Y016131D02*
X006049Y016131D01*
X006048Y016130D02*
X006713Y016130D01*
X006713Y016129D02*
X006047Y016129D01*
X006046Y016128D02*
X006714Y016128D01*
X006715Y016127D02*
X006045Y016127D01*
X006044Y016126D02*
X006716Y016126D01*
X006717Y016125D02*
X006043Y016125D01*
X006042Y016124D02*
X006718Y016124D01*
X006719Y016123D02*
X006040Y016123D01*
X006039Y016122D02*
X006720Y016122D01*
X006721Y016121D02*
X006038Y016121D01*
X006037Y016120D02*
X006722Y016120D01*
X006723Y016119D02*
X006036Y016119D01*
X006035Y016118D02*
X006724Y016118D01*
X006725Y016117D02*
X006034Y016117D01*
X006033Y016116D02*
X006726Y016116D01*
X006727Y016115D02*
X006032Y016115D01*
X006031Y016114D02*
X006728Y016114D01*
X006729Y016113D02*
X006030Y016113D01*
X006029Y016112D02*
X006730Y016112D01*
X006731Y016111D02*
X006028Y016111D01*
X006027Y016110D02*
X006732Y016110D01*
X006733Y016109D02*
X006026Y016109D01*
X006025Y016108D02*
X006734Y016108D01*
X006735Y016107D02*
X006024Y016107D01*
X006023Y016106D02*
X006735Y016106D01*
X006736Y016105D02*
X006022Y016105D01*
X006021Y016104D02*
X006737Y016104D01*
X006738Y016103D02*
X006020Y016103D01*
X006019Y016102D02*
X006739Y016102D01*
X006740Y016101D02*
X006018Y016101D01*
X006017Y016100D02*
X006741Y016100D01*
X006742Y016099D02*
X006016Y016099D01*
X006014Y016098D02*
X006743Y016098D01*
X006744Y016097D02*
X006013Y016097D01*
X006012Y016096D02*
X006745Y016096D01*
X006746Y016095D02*
X006011Y016095D01*
X006010Y016094D02*
X006747Y016094D01*
X006748Y016093D02*
X006009Y016093D01*
X006008Y016092D02*
X006749Y016092D01*
X006750Y016091D02*
X006007Y016091D01*
X006006Y016090D02*
X006751Y016090D01*
X006752Y016089D02*
X006005Y016089D01*
X006004Y016088D02*
X006753Y016088D01*
X006754Y016087D02*
X006003Y016087D01*
X006002Y016086D02*
X006755Y016086D01*
X006756Y016085D02*
X006001Y016085D01*
X006000Y016084D02*
X006757Y016084D01*
X006757Y016083D02*
X005999Y016083D01*
X005998Y016082D02*
X006758Y016082D01*
X006759Y016081D02*
X005997Y016081D01*
X005996Y016080D02*
X006760Y016080D01*
X006761Y016079D02*
X005995Y016079D01*
X005994Y016078D02*
X006762Y016078D01*
X006763Y016077D02*
X005993Y016077D01*
X005992Y016076D02*
X006764Y016076D01*
X006765Y016075D02*
X005991Y016075D01*
X005989Y016074D02*
X006766Y016074D01*
X006767Y016073D02*
X005988Y016073D01*
X005987Y016072D02*
X006768Y016072D01*
X006769Y016071D02*
X005986Y016071D01*
X005985Y016070D02*
X006770Y016070D01*
X006771Y016069D02*
X005984Y016069D01*
X005983Y016068D02*
X006772Y016068D01*
X006773Y016067D02*
X005982Y016067D01*
X005981Y016066D02*
X006774Y016066D01*
X006775Y016065D02*
X005980Y016065D01*
X005979Y016064D02*
X006776Y016064D01*
X006777Y016063D02*
X005978Y016063D01*
X005977Y016062D02*
X006778Y016062D01*
X006779Y016061D02*
X005976Y016061D01*
X005975Y016060D02*
X006779Y016060D01*
X006780Y016059D02*
X005974Y016059D01*
X005973Y016058D02*
X006781Y016058D01*
X006782Y016057D02*
X005972Y016057D01*
X005971Y016056D02*
X006783Y016056D01*
X006784Y016055D02*
X005970Y016055D01*
X005969Y016054D02*
X006785Y016054D01*
X006786Y016053D02*
X005968Y016053D01*
X005967Y016052D02*
X006787Y016052D01*
X006788Y016051D02*
X005966Y016051D01*
X005964Y016050D02*
X006789Y016050D01*
X006790Y016049D02*
X005963Y016049D01*
X005962Y016048D02*
X006791Y016048D01*
X006792Y016047D02*
X005961Y016047D01*
X005960Y016046D02*
X006793Y016046D01*
X006794Y016045D02*
X005959Y016045D01*
X005958Y016044D02*
X006795Y016044D01*
X006796Y016043D02*
X005957Y016043D01*
X005956Y016042D02*
X006797Y016042D01*
X006798Y016041D02*
X005955Y016041D01*
X005954Y016040D02*
X006799Y016040D01*
X006800Y016039D02*
X005953Y016039D01*
X005952Y016038D02*
X006801Y016038D01*
X006801Y016037D02*
X005951Y016037D01*
X005950Y016036D02*
X006802Y016036D01*
X006803Y016035D02*
X005949Y016035D01*
X005948Y016034D02*
X006804Y016034D01*
X006805Y016033D02*
X005947Y016033D01*
X005946Y016032D02*
X006806Y016032D01*
X006807Y016031D02*
X005945Y016031D01*
X005944Y016030D02*
X006808Y016030D01*
X006809Y016029D02*
X005943Y016029D01*
X005942Y016028D02*
X006810Y016028D01*
X006811Y016027D02*
X005941Y016027D01*
X005939Y016026D02*
X006812Y016026D01*
X006813Y016025D02*
X005938Y016025D01*
X005937Y016024D02*
X006814Y016024D01*
X006815Y016023D02*
X005936Y016023D01*
X005935Y016022D02*
X006816Y016022D01*
X006817Y016021D02*
X005934Y016021D01*
X005933Y016020D02*
X006818Y016020D01*
X006819Y016019D02*
X005932Y016019D01*
X005931Y016018D02*
X006820Y016018D01*
X006821Y016017D02*
X005930Y016017D01*
X005929Y016016D02*
X006822Y016016D01*
X006823Y016015D02*
X005928Y016015D01*
X005927Y016014D02*
X006824Y016014D01*
X006824Y016013D02*
X005926Y016013D01*
X005925Y016012D02*
X006825Y016012D01*
X006826Y016011D02*
X005924Y016011D01*
X005923Y016010D02*
X006827Y016010D01*
X006828Y016009D02*
X005922Y016009D01*
X005921Y016008D02*
X006829Y016008D01*
X006830Y016007D02*
X005920Y016007D01*
X005919Y016006D02*
X006831Y016006D01*
X006832Y016005D02*
X005918Y016005D01*
X005917Y016004D02*
X006833Y016004D01*
X006834Y016003D02*
X005916Y016003D01*
X005915Y016002D02*
X006835Y016002D01*
X006836Y016001D02*
X005913Y016001D01*
X005912Y016000D02*
X006837Y016000D01*
X006838Y015999D02*
X005911Y015999D01*
X005910Y015998D02*
X006839Y015998D01*
X006840Y015997D02*
X005909Y015997D01*
X005908Y015996D02*
X006841Y015996D01*
X006842Y015995D02*
X005907Y015995D01*
X005906Y015994D02*
X006843Y015994D01*
X006844Y015993D02*
X005905Y015993D01*
D29*
X020929Y007622D03*
X020929Y007111D03*
X021796Y007111D03*
X021796Y007367D03*
X021796Y007622D03*
D30*
X010803Y009300D03*
X009244Y009300D03*
X009248Y011465D03*
X010803Y011465D03*
D31*
X010027Y011465D03*
X010023Y009300D03*
D32*
X012959Y009363D03*
X014059Y009563D03*
X012959Y007763D03*
X015759Y006763D03*
X014059Y004763D03*
X014859Y004263D03*
X013059Y004763D03*
X011859Y005163D03*
X008759Y003963D03*
X009159Y002663D03*
X006959Y002363D03*
X001059Y009863D03*
X005359Y018963D03*
X004959Y019263D03*
X013159Y016563D03*
X014759Y016563D03*
X014959Y016163D03*
X018459Y014563D03*
X018659Y014063D03*
X018659Y013363D03*
X018859Y012963D03*
X019159Y012663D03*
X019059Y012063D03*
X019659Y011763D03*
X020359Y011863D03*
X021259Y014663D03*
X021759Y015763D03*
X022359Y015863D03*
X020459Y018563D03*
M02*
